%TF.GenerationSoftware,KiCad,Pcbnew,8.0.8-8.0.8-0~ubuntu24.04.1*%
%TF.CreationDate,2025-02-16T19:55:32+01:00*%
%TF.ProjectId,LIS2HH12TR-devboard,4c495332-4848-4313-9254-522d64657662,rev?*%
%TF.SameCoordinates,Original*%
%TF.FileFunction,Copper,L1,Top*%
%TF.FilePolarity,Positive*%
%FSLAX46Y46*%
G04 Gerber Fmt 4.6, Leading zero omitted, Abs format (unit mm)*
G04 Created by KiCad (PCBNEW 8.0.8-8.0.8-0~ubuntu24.04.1) date 2025-02-16 19:55:32*
%MOMM*%
%LPD*%
G01*
G04 APERTURE LIST*
G04 Aperture macros list*
%AMRoundRect*
0 Rectangle with rounded corners*
0 $1 Rounding radius*
0 $2 $3 $4 $5 $6 $7 $8 $9 X,Y pos of 4 corners*
0 Add a 4 corners polygon primitive as box body*
4,1,4,$2,$3,$4,$5,$6,$7,$8,$9,$2,$3,0*
0 Add four circle primitives for the rounded corners*
1,1,$1+$1,$2,$3*
1,1,$1+$1,$4,$5*
1,1,$1+$1,$6,$7*
1,1,$1+$1,$8,$9*
0 Add four rect primitives between the rounded corners*
20,1,$1+$1,$2,$3,$4,$5,0*
20,1,$1+$1,$4,$5,$6,$7,0*
20,1,$1+$1,$6,$7,$8,$9,0*
20,1,$1+$1,$8,$9,$2,$3,0*%
G04 Aperture macros list end*
%TA.AperFunction,SMDPad,CuDef*%
%ADD10RoundRect,0.225000X-0.250000X0.225000X-0.250000X-0.225000X0.250000X-0.225000X0.250000X0.225000X0*%
%TD*%
%TA.AperFunction,SMDPad,CuDef*%
%ADD11C,2.000000*%
%TD*%
%TA.AperFunction,SMDPad,CuDef*%
%ADD12R,0.375000X0.350000*%
%TD*%
%TA.AperFunction,SMDPad,CuDef*%
%ADD13R,0.350000X0.375000*%
%TD*%
%TA.AperFunction,ComponentPad*%
%ADD14R,1.700000X1.700000*%
%TD*%
%TA.AperFunction,ComponentPad*%
%ADD15O,1.700000X1.700000*%
%TD*%
%TA.AperFunction,SMDPad,CuDef*%
%ADD16RoundRect,0.225000X0.250000X-0.225000X0.250000X0.225000X-0.250000X0.225000X-0.250000X-0.225000X0*%
%TD*%
%TA.AperFunction,ViaPad*%
%ADD17C,0.600000*%
%TD*%
%TA.AperFunction,Conductor*%
%ADD18C,0.200000*%
%TD*%
%TA.AperFunction,Conductor*%
%ADD19C,1.000000*%
%TD*%
G04 APERTURE END LIST*
D10*
%TO.P,C2,1*%
%TO.N,VDD*%
X200150000Y-94225000D03*
%TO.P,C2,2*%
%TO.N,GND*%
X200150000Y-95775000D03*
%TD*%
D11*
%TO.P,TP2,1,1*%
%TO.N,Net-(J2-Pin_5)*%
X203710000Y-99030000D03*
%TD*%
D12*
%TO.P,U1,1,SCL/SPC*%
%TO.N,Net-(J1-Pin_2)*%
X194360000Y-94172500D03*
%TO.P,U1,2,~{CS}*%
%TO.N,Net-(J1-Pin_3)*%
X194360000Y-94672500D03*
%TO.P,U1,3,SA0/SDO*%
%TO.N,Net-(J1-Pin_4)*%
X194360000Y-95172500D03*
%TO.P,U1,4,SDA/SDI*%
%TO.N,Net-(J1-Pin_5)*%
X194360000Y-95672500D03*
D13*
%TO.P,U1,5,RES*%
%TO.N,GND*%
X194872500Y-95685000D03*
%TO.P,U1,6,GND*%
X195372500Y-95685000D03*
D12*
%TO.P,U1,7,GND*%
X195885000Y-95672500D03*
%TO.P,U1,8,GND*%
X195885000Y-95172500D03*
%TO.P,U1,9,Vdd*%
%TO.N,VDD*%
X195885000Y-94672500D03*
%TO.P,U1,10,Vdd_IO*%
X195885000Y-94172500D03*
D13*
%TO.P,U1,11,INT2*%
%TO.N,Net-(J2-Pin_3)*%
X195372500Y-94160000D03*
%TO.P,U1,12,INT1*%
%TO.N,Net-(J2-Pin_2)*%
X194872500Y-94160000D03*
%TD*%
D11*
%TO.P,TP1,1,1*%
%TO.N,Net-(J2-Pin_4)*%
X203770000Y-95780000D03*
%TD*%
D14*
%TO.P,J2,1,Pin_1*%
%TO.N,VDD*%
X208000000Y-88220000D03*
D15*
%TO.P,J2,2,Pin_2*%
%TO.N,Net-(J2-Pin_2)*%
X208000000Y-90760000D03*
%TO.P,J2,3,Pin_3*%
%TO.N,Net-(J2-Pin_3)*%
X208000000Y-93300000D03*
%TO.P,J2,4,Pin_4*%
%TO.N,Net-(J2-Pin_4)*%
X208000000Y-95840000D03*
%TO.P,J2,5,Pin_5*%
%TO.N,Net-(J2-Pin_5)*%
X208000000Y-98380000D03*
%TO.P,J2,6,Pin_6*%
%TO.N,GND*%
X208000000Y-100920000D03*
%TD*%
D14*
%TO.P,J1,1,Pin_1*%
%TO.N,GND*%
X182100000Y-88220000D03*
D15*
%TO.P,J1,2,Pin_2*%
%TO.N,Net-(J1-Pin_2)*%
X182100000Y-90760000D03*
%TO.P,J1,3,Pin_3*%
%TO.N,Net-(J1-Pin_3)*%
X182100000Y-93300000D03*
%TO.P,J1,4,Pin_4*%
%TO.N,Net-(J1-Pin_4)*%
X182100000Y-95840000D03*
%TO.P,J1,5,Pin_5*%
%TO.N,Net-(J1-Pin_5)*%
X182100000Y-98380000D03*
%TO.P,J1,6,Pin_6*%
%TO.N,VDD*%
X182100000Y-100920000D03*
%TD*%
D16*
%TO.P,C1,1*%
%TO.N,VDD*%
X200130000Y-92345000D03*
%TO.P,C1,2*%
%TO.N,GND*%
X200130000Y-90795000D03*
%TD*%
D17*
%TO.N,Net-(J2-Pin_3)*%
X195472500Y-92100000D03*
%TO.N,Net-(J2-Pin_2)*%
X194875000Y-91400000D03*
%TD*%
D18*
%TO.N,GND*%
X198900000Y-95775000D02*
X199150000Y-95775000D01*
X199150000Y-95775000D02*
X200150000Y-95775000D01*
X195885000Y-95172500D02*
X198547500Y-95172500D01*
X198547500Y-95172500D02*
X199150000Y-95775000D01*
D19*
%TO.N,VDD*%
X200130000Y-92345000D02*
X201855000Y-92345000D01*
X201855000Y-92345000D02*
X205980000Y-88220000D01*
X205980000Y-88220000D02*
X208000000Y-88220000D01*
%TO.N,Net-(J2-Pin_5)*%
X203710000Y-99030000D02*
X207350000Y-99030000D01*
X207350000Y-99030000D02*
X208000000Y-98380000D01*
%TO.N,Net-(J2-Pin_4)*%
X203770000Y-95780000D02*
X207940000Y-95780000D01*
X207940000Y-95780000D02*
X208000000Y-95840000D01*
D18*
%TO.N,GND*%
X198800000Y-95875000D02*
X198900000Y-95775000D01*
%TO.N,VDD*%
X198800000Y-94325000D02*
X198900000Y-94225000D01*
X198900000Y-94225000D02*
X200150000Y-94225000D01*
%TO.N,GND*%
X195885000Y-95672500D02*
X197502500Y-95672500D01*
X197502500Y-95672500D02*
X197705000Y-95875000D01*
X197705000Y-95875000D02*
X198800000Y-95875000D01*
%TO.N,VDD*%
X195885000Y-94672500D02*
X197467500Y-94672500D01*
X197467500Y-94672500D02*
X197815000Y-94325000D01*
X197532500Y-94172500D02*
X197660000Y-94300000D01*
X195885000Y-94172500D02*
X197532500Y-94172500D01*
X197660000Y-94300000D02*
X197790000Y-94300000D01*
X197790000Y-94300000D02*
X197815000Y-94325000D01*
X197815000Y-94325000D02*
X198800000Y-94325000D01*
%TO.N,GND*%
X195372500Y-95685000D02*
X195372500Y-96872500D01*
X195400000Y-96900000D02*
X195372500Y-96872500D01*
X194872500Y-95685000D02*
X194872500Y-96872500D01*
X194900000Y-96900000D02*
X194872500Y-96872500D01*
%TO.N,Net-(J2-Pin_3)*%
X195472500Y-92100000D02*
X195372500Y-92200000D01*
X195372500Y-92200000D02*
X195372500Y-94160000D01*
%TO.N,Net-(J2-Pin_2)*%
X194875000Y-91400000D02*
X194872500Y-91402500D01*
X194872500Y-91402500D02*
X194872500Y-94160000D01*
%TO.N,Net-(J1-Pin_5)*%
X182100000Y-98380000D02*
X188770000Y-98380000D01*
X188770000Y-98380000D02*
X191477500Y-95672500D01*
X191477500Y-95672500D02*
X194360000Y-95672500D01*
%TO.N,Net-(J1-Pin_4)*%
X182100000Y-95840000D02*
X188060000Y-95840000D01*
X188060000Y-95840000D02*
X188727500Y-95172500D01*
X188727500Y-95172500D02*
X194360000Y-95172500D01*
%TO.N,Net-(J1-Pin_3)*%
X182100000Y-93300000D02*
X189825000Y-93300000D01*
X189825000Y-93300000D02*
X191197500Y-94672500D01*
X191197500Y-94672500D02*
X194360000Y-94672500D01*
%TO.N,Net-(J1-Pin_2)*%
X182100000Y-90760000D02*
X189010000Y-90760000D01*
X189010000Y-90760000D02*
X192422500Y-94172500D01*
X192422500Y-94172500D02*
X194360000Y-94172500D01*
D19*
%TO.N,Net-(J2-Pin_3)*%
X207900000Y-93400000D02*
X208000000Y-93300000D01*
%TD*%
%TA.AperFunction,Conductor*%
%TO.N,GND*%
G36*
X207002992Y-80500681D02*
G01*
X207295309Y-80518362D01*
X207307164Y-80519802D01*
X207592281Y-80572051D01*
X207603883Y-80574911D01*
X207880623Y-80661147D01*
X207891786Y-80665380D01*
X208156119Y-80784347D01*
X208166704Y-80789903D01*
X208414758Y-80939856D01*
X208424583Y-80946638D01*
X208652755Y-81125399D01*
X208661704Y-81133326D01*
X208866673Y-81338295D01*
X208874600Y-81347244D01*
X208901172Y-81381161D01*
X209039768Y-81558066D01*
X209053356Y-81575409D01*
X209060147Y-81585248D01*
X209210096Y-81833295D01*
X209215652Y-81843880D01*
X209334616Y-82108206D01*
X209338855Y-82119384D01*
X209425087Y-82396113D01*
X209427948Y-82407721D01*
X209480196Y-82692828D01*
X209481637Y-82704695D01*
X209499319Y-82997006D01*
X209499500Y-83002984D01*
X209499500Y-106997015D01*
X209499319Y-107002993D01*
X209481637Y-107295304D01*
X209480196Y-107307171D01*
X209427948Y-107592278D01*
X209425087Y-107603886D01*
X209338855Y-107880615D01*
X209334616Y-107891793D01*
X209215652Y-108156119D01*
X209210096Y-108166704D01*
X209060147Y-108414751D01*
X209053356Y-108424590D01*
X208874600Y-108652755D01*
X208866673Y-108661704D01*
X208661704Y-108866673D01*
X208652755Y-108874600D01*
X208424590Y-109053356D01*
X208414751Y-109060147D01*
X208166704Y-109210096D01*
X208156119Y-109215652D01*
X207891793Y-109334616D01*
X207880615Y-109338855D01*
X207603886Y-109425087D01*
X207592278Y-109427948D01*
X207307171Y-109480196D01*
X207295304Y-109481637D01*
X207023993Y-109498048D01*
X207002991Y-109499319D01*
X206997015Y-109499500D01*
X183002985Y-109499500D01*
X182997008Y-109499319D01*
X182973564Y-109497900D01*
X182704695Y-109481637D01*
X182692828Y-109480196D01*
X182407721Y-109427948D01*
X182396113Y-109425087D01*
X182119384Y-109338855D01*
X182108206Y-109334616D01*
X181843880Y-109215652D01*
X181833295Y-109210096D01*
X181585248Y-109060147D01*
X181575413Y-109053358D01*
X181347244Y-108874600D01*
X181338295Y-108866673D01*
X181133326Y-108661704D01*
X181125399Y-108652755D01*
X181098827Y-108618838D01*
X180946638Y-108424583D01*
X180939856Y-108414758D01*
X180789903Y-108166704D01*
X180784347Y-108156119D01*
X180665383Y-107891793D01*
X180661147Y-107880623D01*
X180574911Y-107603883D01*
X180572051Y-107592278D01*
X180536100Y-107396100D01*
X180519802Y-107307164D01*
X180518362Y-107295303D01*
X180516334Y-107261781D01*
X180500681Y-107002992D01*
X180500500Y-106997015D01*
X180500500Y-106778710D01*
X181349500Y-106778710D01*
X181349500Y-107021289D01*
X181381161Y-107261781D01*
X181381161Y-107261786D01*
X181443944Y-107496092D01*
X181443948Y-107496105D01*
X181536772Y-107720204D01*
X181536774Y-107720208D01*
X181536776Y-107720212D01*
X181658064Y-107930289D01*
X181658066Y-107930292D01*
X181805729Y-108122731D01*
X181805731Y-108122733D01*
X181805735Y-108122738D01*
X181977262Y-108294265D01*
X181977266Y-108294268D01*
X181977268Y-108294270D01*
X182039384Y-108341933D01*
X182169711Y-108441936D01*
X182379788Y-108563224D01*
X182603900Y-108656054D01*
X182838211Y-108718838D01*
X183078712Y-108750500D01*
X183078713Y-108750500D01*
X183321287Y-108750500D01*
X183321288Y-108750500D01*
X183561789Y-108718838D01*
X183796100Y-108656054D01*
X184020212Y-108563224D01*
X184230289Y-108441936D01*
X184422738Y-108294265D01*
X184594265Y-108122738D01*
X184741936Y-107930289D01*
X184863224Y-107720212D01*
X184956054Y-107496100D01*
X185018838Y-107261789D01*
X185050500Y-107021288D01*
X185050500Y-106778712D01*
X185037335Y-106678710D01*
X204949500Y-106678710D01*
X204949500Y-106921289D01*
X204981161Y-107161781D01*
X204981161Y-107161786D01*
X205043944Y-107396092D01*
X205043948Y-107396105D01*
X205136772Y-107620204D01*
X205136774Y-107620208D01*
X205136776Y-107620212D01*
X205194511Y-107720212D01*
X205258066Y-107830292D01*
X205405729Y-108022731D01*
X205405731Y-108022733D01*
X205405735Y-108022738D01*
X205577262Y-108194265D01*
X205577266Y-108194268D01*
X205577268Y-108194270D01*
X205707585Y-108294265D01*
X205769711Y-108341936D01*
X205979788Y-108463224D01*
X206203900Y-108556054D01*
X206438211Y-108618838D01*
X206678712Y-108650500D01*
X206678713Y-108650500D01*
X206921287Y-108650500D01*
X206921288Y-108650500D01*
X207161789Y-108618838D01*
X207396100Y-108556054D01*
X207620212Y-108463224D01*
X207830289Y-108341936D01*
X208022738Y-108194265D01*
X208194265Y-108022738D01*
X208341936Y-107830289D01*
X208463224Y-107620212D01*
X208556054Y-107396100D01*
X208618838Y-107161789D01*
X208650500Y-106921288D01*
X208650500Y-106678712D01*
X208618838Y-106438211D01*
X208556054Y-106203900D01*
X208463224Y-105979788D01*
X208341936Y-105769711D01*
X208194265Y-105577262D01*
X208022738Y-105405735D01*
X208022733Y-105405731D01*
X208022731Y-105405729D01*
X207830292Y-105258066D01*
X207793410Y-105236772D01*
X207620212Y-105136776D01*
X207620208Y-105136774D01*
X207620204Y-105136772D01*
X207396105Y-105043948D01*
X207396104Y-105043947D01*
X207396100Y-105043946D01*
X207161789Y-104981162D01*
X207161786Y-104981161D01*
X207161784Y-104981161D01*
X206921289Y-104949500D01*
X206921288Y-104949500D01*
X206678712Y-104949500D01*
X206678710Y-104949500D01*
X206438218Y-104981161D01*
X206438213Y-104981161D01*
X206203907Y-105043944D01*
X206203894Y-105043948D01*
X205979795Y-105136772D01*
X205769707Y-105258066D01*
X205577268Y-105405729D01*
X205405729Y-105577268D01*
X205258066Y-105769707D01*
X205136772Y-105979795D01*
X205043948Y-106203894D01*
X205043944Y-106203907D01*
X204981161Y-106438213D01*
X204981161Y-106438218D01*
X204949500Y-106678710D01*
X185037335Y-106678710D01*
X185018838Y-106538211D01*
X184956054Y-106303900D01*
X184863224Y-106079788D01*
X184741936Y-105869711D01*
X184741933Y-105869707D01*
X184594270Y-105677268D01*
X184594268Y-105677266D01*
X184594265Y-105677262D01*
X184422738Y-105505735D01*
X184422733Y-105505731D01*
X184422731Y-105505729D01*
X184230292Y-105358066D01*
X184230289Y-105358064D01*
X184020212Y-105236776D01*
X184020208Y-105236774D01*
X184020204Y-105236772D01*
X183796105Y-105143948D01*
X183796104Y-105143947D01*
X183796100Y-105143946D01*
X183561789Y-105081162D01*
X183561786Y-105081161D01*
X183561784Y-105081161D01*
X183321289Y-105049500D01*
X183321288Y-105049500D01*
X183078712Y-105049500D01*
X183078710Y-105049500D01*
X182838218Y-105081161D01*
X182838213Y-105081161D01*
X182603907Y-105143944D01*
X182603894Y-105143948D01*
X182379795Y-105236772D01*
X182169707Y-105358066D01*
X181977268Y-105505729D01*
X181805729Y-105677268D01*
X181658066Y-105869707D01*
X181536772Y-106079795D01*
X181443948Y-106303894D01*
X181443944Y-106303907D01*
X181381161Y-106538213D01*
X181381161Y-106538218D01*
X181349500Y-106778710D01*
X180500500Y-106778710D01*
X180500500Y-100919996D01*
X181044417Y-100919996D01*
X181044417Y-100920003D01*
X181064698Y-101125929D01*
X181064699Y-101125934D01*
X181124768Y-101323954D01*
X181222316Y-101506452D01*
X181353585Y-101666404D01*
X181353590Y-101666410D01*
X181353595Y-101666414D01*
X181513547Y-101797683D01*
X181513548Y-101797683D01*
X181513550Y-101797685D01*
X181696046Y-101895232D01*
X181833997Y-101937078D01*
X181894065Y-101955300D01*
X181894070Y-101955301D01*
X182099997Y-101975583D01*
X182100000Y-101975583D01*
X182100003Y-101975583D01*
X182305929Y-101955301D01*
X182305934Y-101955300D01*
X182310724Y-101953847D01*
X182503954Y-101895232D01*
X182686450Y-101797685D01*
X182846410Y-101666410D01*
X182977685Y-101506450D01*
X183075232Y-101323954D01*
X183135300Y-101125934D01*
X183135301Y-101125929D01*
X183155583Y-100920003D01*
X183155583Y-100919996D01*
X183135301Y-100714070D01*
X183135300Y-100714065D01*
X183076401Y-100519901D01*
X183075232Y-100516046D01*
X182977685Y-100333550D01*
X182960005Y-100312007D01*
X182846414Y-100173595D01*
X182846410Y-100173590D01*
X182807825Y-100141924D01*
X182686452Y-100042316D01*
X182503954Y-99944768D01*
X182305934Y-99884699D01*
X182305929Y-99884698D01*
X182100003Y-99864417D01*
X182099997Y-99864417D01*
X181894070Y-99884698D01*
X181894065Y-99884699D01*
X181696045Y-99944768D01*
X181513547Y-100042316D01*
X181353595Y-100173585D01*
X181353585Y-100173595D01*
X181222316Y-100333547D01*
X181124768Y-100516045D01*
X181064699Y-100714065D01*
X181064698Y-100714070D01*
X181044417Y-100919996D01*
X180500500Y-100919996D01*
X180500500Y-90759996D01*
X181044417Y-90759996D01*
X181044417Y-90760003D01*
X181064698Y-90965929D01*
X181064699Y-90965934D01*
X181124768Y-91163954D01*
X181222316Y-91346452D01*
X181332330Y-91480505D01*
X181353590Y-91506410D01*
X181353595Y-91506414D01*
X181513547Y-91637683D01*
X181513548Y-91637683D01*
X181513550Y-91637685D01*
X181696046Y-91735232D01*
X181833997Y-91777078D01*
X181894065Y-91795300D01*
X181894070Y-91795301D01*
X182099997Y-91815583D01*
X182100000Y-91815583D01*
X182100003Y-91815583D01*
X182305929Y-91795301D01*
X182305934Y-91795300D01*
X182349307Y-91782143D01*
X182503954Y-91735232D01*
X182686450Y-91637685D01*
X182846410Y-91506410D01*
X182977685Y-91346450D01*
X183075232Y-91163954D01*
X183085300Y-91130762D01*
X183120284Y-91080566D01*
X183178092Y-91060519D01*
X183180037Y-91060500D01*
X188844521Y-91060500D01*
X188902712Y-91079407D01*
X188914525Y-91089496D01*
X192028025Y-94202996D01*
X192055802Y-94257513D01*
X192046231Y-94317945D01*
X192002966Y-94361210D01*
X191958021Y-94372000D01*
X191362979Y-94372000D01*
X191304788Y-94353093D01*
X191292975Y-94343004D01*
X190653923Y-93703952D01*
X190009511Y-93059540D01*
X190009508Y-93059538D01*
X189985194Y-93045500D01*
X189940990Y-93019979D01*
X189940985Y-93019977D01*
X189864564Y-92999500D01*
X189864562Y-92999500D01*
X183180037Y-92999500D01*
X183121846Y-92980593D01*
X183085882Y-92931093D01*
X183085300Y-92929237D01*
X183075232Y-92896047D01*
X183075231Y-92896045D01*
X183071527Y-92889116D01*
X182977685Y-92713550D01*
X182846410Y-92553590D01*
X182826032Y-92536866D01*
X182686452Y-92422316D01*
X182503954Y-92324768D01*
X182305934Y-92264699D01*
X182305929Y-92264698D01*
X182100003Y-92244417D01*
X182099997Y-92244417D01*
X181894070Y-92264698D01*
X181894065Y-92264699D01*
X181696045Y-92324768D01*
X181513547Y-92422316D01*
X181353595Y-92553585D01*
X181353585Y-92553595D01*
X181222316Y-92713547D01*
X181124768Y-92896045D01*
X181064699Y-93094065D01*
X181064698Y-93094070D01*
X181044417Y-93299996D01*
X181044417Y-93300003D01*
X181064698Y-93505929D01*
X181064699Y-93505934D01*
X181124768Y-93703954D01*
X181222316Y-93886452D01*
X181353585Y-94046404D01*
X181353590Y-94046410D01*
X181353595Y-94046414D01*
X181513547Y-94177683D01*
X181513548Y-94177683D01*
X181513550Y-94177685D01*
X181696046Y-94275232D01*
X181833997Y-94317078D01*
X181894065Y-94335300D01*
X181894070Y-94335301D01*
X182099997Y-94355583D01*
X182100000Y-94355583D01*
X182100003Y-94355583D01*
X182305929Y-94335301D01*
X182305934Y-94335300D01*
X182503954Y-94275232D01*
X182686450Y-94177685D01*
X182846410Y-94046410D01*
X182977685Y-93886450D01*
X183075232Y-93703954D01*
X183085300Y-93670762D01*
X183120284Y-93620566D01*
X183178092Y-93600519D01*
X183180037Y-93600500D01*
X189659521Y-93600500D01*
X189717712Y-93619407D01*
X189729525Y-93629496D01*
X190803025Y-94702996D01*
X190830802Y-94757513D01*
X190821231Y-94817945D01*
X190777966Y-94861210D01*
X190733021Y-94872000D01*
X188767062Y-94872000D01*
X188687938Y-94872000D01*
X188641161Y-94884533D01*
X188611507Y-94892479D01*
X188542993Y-94932036D01*
X187964525Y-95510504D01*
X187910008Y-95538281D01*
X187894521Y-95539500D01*
X183180037Y-95539500D01*
X183121846Y-95520593D01*
X183085882Y-95471093D01*
X183085300Y-95469237D01*
X183075232Y-95436047D01*
X183075231Y-95436045D01*
X183026282Y-95344469D01*
X182977685Y-95253550D01*
X182913452Y-95175282D01*
X182846414Y-95093595D01*
X182846410Y-95093590D01*
X182811846Y-95065224D01*
X182686452Y-94962316D01*
X182503954Y-94864768D01*
X182305934Y-94804699D01*
X182305929Y-94804698D01*
X182100003Y-94784417D01*
X182099997Y-94784417D01*
X181894070Y-94804698D01*
X181894065Y-94804699D01*
X181696045Y-94864768D01*
X181513547Y-94962316D01*
X181353595Y-95093585D01*
X181353585Y-95093595D01*
X181222316Y-95253547D01*
X181124768Y-95436045D01*
X181064699Y-95634065D01*
X181064698Y-95634070D01*
X181044417Y-95839996D01*
X181044417Y-95840003D01*
X181064698Y-96045929D01*
X181064699Y-96045934D01*
X181124768Y-96243954D01*
X181222316Y-96426452D01*
X181303192Y-96525000D01*
X181353590Y-96586410D01*
X181353595Y-96586414D01*
X181513547Y-96717683D01*
X181513548Y-96717683D01*
X181513550Y-96717685D01*
X181696046Y-96815232D01*
X181833997Y-96857078D01*
X181894065Y-96875300D01*
X181894070Y-96875301D01*
X182099997Y-96895583D01*
X182100000Y-96895583D01*
X182100003Y-96895583D01*
X182305929Y-96875301D01*
X182305934Y-96875300D01*
X182503954Y-96815232D01*
X182686450Y-96717685D01*
X182846410Y-96586410D01*
X182977685Y-96426450D01*
X183075232Y-96243954D01*
X183085300Y-96210762D01*
X183120284Y-96160566D01*
X183178092Y-96140519D01*
X183180037Y-96140500D01*
X188099563Y-96140500D01*
X188099563Y-96140499D01*
X188175989Y-96120021D01*
X188244511Y-96080460D01*
X188300460Y-96024511D01*
X188822975Y-95501996D01*
X188877492Y-95474219D01*
X188892979Y-95473000D01*
X191013021Y-95473000D01*
X191071212Y-95491907D01*
X191107176Y-95541407D01*
X191107176Y-95602593D01*
X191083025Y-95642004D01*
X188674525Y-98050504D01*
X188620008Y-98078281D01*
X188604521Y-98079500D01*
X183180037Y-98079500D01*
X183121846Y-98060593D01*
X183085882Y-98011093D01*
X183085300Y-98009237D01*
X183075232Y-97976047D01*
X183075231Y-97976045D01*
X183018752Y-97870382D01*
X182977685Y-97793550D01*
X182846410Y-97633590D01*
X182846404Y-97633585D01*
X182686452Y-97502316D01*
X182503954Y-97404768D01*
X182305934Y-97344699D01*
X182305929Y-97344698D01*
X182100003Y-97324417D01*
X182099997Y-97324417D01*
X181894070Y-97344698D01*
X181894065Y-97344699D01*
X181696045Y-97404768D01*
X181513547Y-97502316D01*
X181353595Y-97633585D01*
X181353585Y-97633595D01*
X181222316Y-97793547D01*
X181124768Y-97976045D01*
X181064699Y-98174065D01*
X181064698Y-98174070D01*
X181044417Y-98379996D01*
X181044417Y-98380003D01*
X181064698Y-98585929D01*
X181064699Y-98585934D01*
X181124768Y-98783954D01*
X181222316Y-98966452D01*
X181353585Y-99126404D01*
X181353590Y-99126410D01*
X181353595Y-99126414D01*
X181513547Y-99257683D01*
X181513548Y-99257683D01*
X181513550Y-99257685D01*
X181696046Y-99355232D01*
X181833997Y-99397078D01*
X181894065Y-99415300D01*
X181894070Y-99415301D01*
X182099997Y-99435583D01*
X182100000Y-99435583D01*
X182100003Y-99435583D01*
X182305929Y-99415301D01*
X182305934Y-99415300D01*
X182503954Y-99355232D01*
X182686450Y-99257685D01*
X182846410Y-99126410D01*
X182925531Y-99030000D01*
X202504357Y-99030000D01*
X202524885Y-99251536D01*
X202585771Y-99465528D01*
X202684942Y-99664689D01*
X202819019Y-99842236D01*
X202983438Y-99992124D01*
X203172599Y-100109247D01*
X203380060Y-100189618D01*
X203598757Y-100230500D01*
X203821243Y-100230500D01*
X204039940Y-100189618D01*
X204247401Y-100109247D01*
X204436562Y-99992124D01*
X204600981Y-99842236D01*
X204655653Y-99769839D01*
X204705809Y-99734796D01*
X204734656Y-99730500D01*
X207388643Y-99730500D01*
X207446834Y-99749407D01*
X207482798Y-99798907D01*
X207482798Y-99860093D01*
X207446834Y-99909593D01*
X207440759Y-99913672D01*
X207303999Y-99998349D01*
X207303995Y-99998352D01*
X207146506Y-100141924D01*
X207146496Y-100141935D01*
X207018062Y-100312007D01*
X207018057Y-100312016D01*
X206923064Y-100502789D01*
X206875489Y-100670000D01*
X207566988Y-100670000D01*
X207534075Y-100727007D01*
X207500000Y-100854174D01*
X207500000Y-100985826D01*
X207534075Y-101112993D01*
X207566988Y-101170000D01*
X206875489Y-101170000D01*
X206923064Y-101337210D01*
X207018057Y-101527983D01*
X207018062Y-101527992D01*
X207146496Y-101698064D01*
X207146506Y-101698075D01*
X207303995Y-101841647D01*
X207303994Y-101841647D01*
X207485206Y-101953847D01*
X207683941Y-102030838D01*
X207750000Y-102043185D01*
X207750000Y-101353012D01*
X207807007Y-101385925D01*
X207934174Y-101420000D01*
X208065826Y-101420000D01*
X208192993Y-101385925D01*
X208250000Y-101353012D01*
X208250000Y-102043184D01*
X208316058Y-102030838D01*
X208514793Y-101953847D01*
X208696004Y-101841647D01*
X208853493Y-101698075D01*
X208853503Y-101698064D01*
X208981937Y-101527992D01*
X208981942Y-101527983D01*
X209076935Y-101337210D01*
X209124511Y-101170000D01*
X208433012Y-101170000D01*
X208465925Y-101112993D01*
X208500000Y-100985826D01*
X208500000Y-100854174D01*
X208465925Y-100727007D01*
X208433012Y-100670000D01*
X209124511Y-100670000D01*
X209076935Y-100502789D01*
X208981942Y-100312016D01*
X208981937Y-100312007D01*
X208853503Y-100141935D01*
X208853493Y-100141924D01*
X208696004Y-99998352D01*
X208696005Y-99998352D01*
X208514793Y-99886152D01*
X208316059Y-99809161D01*
X208250000Y-99796812D01*
X208250000Y-100486988D01*
X208192993Y-100454075D01*
X208065826Y-100420000D01*
X207934174Y-100420000D01*
X207807007Y-100454075D01*
X207750000Y-100486988D01*
X207750000Y-99796812D01*
X207724222Y-99775407D01*
X207691533Y-99723686D01*
X207695488Y-99662628D01*
X207732468Y-99616927D01*
X207796543Y-99574114D01*
X207907785Y-99462870D01*
X207962301Y-99435093D01*
X207987493Y-99434351D01*
X208000000Y-99435583D01*
X208000002Y-99435583D01*
X208205929Y-99415301D01*
X208205934Y-99415300D01*
X208403954Y-99355232D01*
X208586450Y-99257685D01*
X208746410Y-99126410D01*
X208877685Y-98966450D01*
X208975232Y-98783954D01*
X209035300Y-98585934D01*
X209035301Y-98585929D01*
X209055583Y-98380003D01*
X209055583Y-98379996D01*
X209035301Y-98174070D01*
X209035300Y-98174065D01*
X209003088Y-98067876D01*
X208975232Y-97976046D01*
X208877685Y-97793550D01*
X208746410Y-97633590D01*
X208746404Y-97633585D01*
X208586452Y-97502316D01*
X208403954Y-97404768D01*
X208205934Y-97344699D01*
X208205929Y-97344698D01*
X208000003Y-97324417D01*
X207999997Y-97324417D01*
X207794070Y-97344698D01*
X207794065Y-97344699D01*
X207596045Y-97404768D01*
X207413547Y-97502316D01*
X207253595Y-97633585D01*
X207253585Y-97633595D01*
X207122316Y-97793547D01*
X207024768Y-97976045D01*
X206964699Y-98174065D01*
X206964698Y-98174071D01*
X206958186Y-98240203D01*
X206933667Y-98296260D01*
X206880881Y-98327200D01*
X206859663Y-98329500D01*
X204734656Y-98329500D01*
X204676465Y-98310593D01*
X204655653Y-98290161D01*
X204617926Y-98240203D01*
X204600981Y-98217764D01*
X204436562Y-98067876D01*
X204247401Y-97950753D01*
X204039940Y-97870382D01*
X204039939Y-97870381D01*
X204039937Y-97870381D01*
X203821243Y-97829500D01*
X203598757Y-97829500D01*
X203380062Y-97870381D01*
X203303797Y-97899926D01*
X203172599Y-97950753D01*
X202983438Y-98067876D01*
X202819019Y-98217764D01*
X202802074Y-98240203D01*
X202684943Y-98395309D01*
X202684938Y-98395318D01*
X202590022Y-98585934D01*
X202585771Y-98594472D01*
X202524885Y-98808464D01*
X202504357Y-99030000D01*
X182925531Y-99030000D01*
X182977685Y-98966450D01*
X183075232Y-98783954D01*
X183085300Y-98750762D01*
X183120284Y-98700566D01*
X183178092Y-98680519D01*
X183180037Y-98680500D01*
X188809563Y-98680500D01*
X188809563Y-98680499D01*
X188885989Y-98660021D01*
X188954511Y-98620460D01*
X189010460Y-98564511D01*
X191572975Y-96001996D01*
X191627492Y-95974219D01*
X191642979Y-95973000D01*
X193301000Y-95973000D01*
X193359191Y-95991907D01*
X193395155Y-96041407D01*
X193400000Y-96072000D01*
X193400000Y-96600000D01*
X193400001Y-96600000D01*
X196899999Y-96600000D01*
X196900000Y-96600000D01*
X196900000Y-96025001D01*
X199375000Y-96025001D01*
X199375000Y-96041104D01*
X199385132Y-96125468D01*
X199438077Y-96259729D01*
X199525276Y-96374717D01*
X199525282Y-96374723D01*
X199640270Y-96461922D01*
X199774531Y-96514867D01*
X199858895Y-96524999D01*
X199858900Y-96525000D01*
X199899999Y-96525000D01*
X199900000Y-96524999D01*
X199900000Y-96025001D01*
X200400000Y-96025001D01*
X200400000Y-96524999D01*
X200400001Y-96525000D01*
X200441100Y-96525000D01*
X200441104Y-96524999D01*
X200525468Y-96514867D01*
X200659729Y-96461922D01*
X200774717Y-96374723D01*
X200774723Y-96374717D01*
X200861922Y-96259729D01*
X200914867Y-96125468D01*
X200924999Y-96041104D01*
X200925000Y-96041100D01*
X200925000Y-96025001D01*
X200924999Y-96025000D01*
X200400001Y-96025000D01*
X200400000Y-96025001D01*
X199900000Y-96025001D01*
X199899999Y-96025000D01*
X199375001Y-96025000D01*
X199375000Y-96025001D01*
X196900000Y-96025001D01*
X196900000Y-95780000D01*
X202564357Y-95780000D01*
X202584885Y-96001536D01*
X202645771Y-96215528D01*
X202744942Y-96414689D01*
X202879019Y-96592236D01*
X203043438Y-96742124D01*
X203232599Y-96859247D01*
X203440060Y-96939618D01*
X203658757Y-96980500D01*
X203881243Y-96980500D01*
X204099940Y-96939618D01*
X204307401Y-96859247D01*
X204496562Y-96742124D01*
X204660981Y-96592236D01*
X204715653Y-96519839D01*
X204765809Y-96484796D01*
X204794656Y-96480500D01*
X207119848Y-96480500D01*
X207178039Y-96499407D01*
X207196376Y-96516695D01*
X207253587Y-96586407D01*
X207253588Y-96586408D01*
X207253590Y-96586410D01*
X207270150Y-96600000D01*
X207413547Y-96717683D01*
X207413548Y-96717683D01*
X207413550Y-96717685D01*
X207596046Y-96815232D01*
X207733997Y-96857078D01*
X207794065Y-96875300D01*
X207794070Y-96875301D01*
X207999997Y-96895583D01*
X208000000Y-96895583D01*
X208000003Y-96895583D01*
X208205929Y-96875301D01*
X208205934Y-96875300D01*
X208403954Y-96815232D01*
X208586450Y-96717685D01*
X208746410Y-96586410D01*
X208877685Y-96426450D01*
X208975232Y-96243954D01*
X209035300Y-96045934D01*
X209035301Y-96045929D01*
X209055583Y-95840003D01*
X209055583Y-95839996D01*
X209035301Y-95634070D01*
X209035300Y-95634065D01*
X209012367Y-95558464D01*
X208975232Y-95436046D01*
X208877685Y-95253550D01*
X208813452Y-95175282D01*
X208746414Y-95093595D01*
X208746410Y-95093590D01*
X208711846Y-95065224D01*
X208586452Y-94962316D01*
X208403954Y-94864768D01*
X208205934Y-94804699D01*
X208205929Y-94804698D01*
X208000003Y-94784417D01*
X207999997Y-94784417D01*
X207794070Y-94804698D01*
X207794065Y-94804699D01*
X207596045Y-94864768D01*
X207413550Y-94962314D01*
X207338744Y-95023706D01*
X207298140Y-95057028D01*
X207241165Y-95079328D01*
X207235337Y-95079500D01*
X204794656Y-95079500D01*
X204736465Y-95060593D01*
X204715653Y-95040161D01*
X204679069Y-94991717D01*
X204660981Y-94967764D01*
X204496562Y-94817876D01*
X204307401Y-94700753D01*
X204099940Y-94620382D01*
X204099939Y-94620381D01*
X204099937Y-94620381D01*
X203881243Y-94579500D01*
X203658757Y-94579500D01*
X203440062Y-94620381D01*
X203363797Y-94649926D01*
X203232599Y-94700753D01*
X203074688Y-94798527D01*
X203043438Y-94817876D01*
X202997539Y-94859719D01*
X202879019Y-94967764D01*
X202836244Y-95024407D01*
X202744943Y-95145309D01*
X202744938Y-95145318D01*
X202645772Y-95344469D01*
X202645771Y-95344472D01*
X202584885Y-95558464D01*
X202564357Y-95780000D01*
X196900000Y-95780000D01*
X196900000Y-95176500D01*
X196918907Y-95118309D01*
X196968407Y-95082345D01*
X196999000Y-95077500D01*
X198447710Y-95077500D01*
X198447716Y-95077500D01*
X198515066Y-95069984D01*
X198536135Y-95065222D01*
X198600150Y-95043052D01*
X198658796Y-95015119D01*
X198701366Y-95005500D01*
X199456051Y-95005500D01*
X199514242Y-95024407D01*
X199550206Y-95073907D01*
X199550206Y-95135093D01*
X199529040Y-95169632D01*
X199529371Y-95169883D01*
X199526847Y-95173210D01*
X199526055Y-95174504D01*
X199525276Y-95175282D01*
X199438077Y-95290270D01*
X199385132Y-95424531D01*
X199375000Y-95508895D01*
X199375000Y-95524999D01*
X199375001Y-95525000D01*
X200924999Y-95525000D01*
X200925000Y-95524999D01*
X200925000Y-95508899D01*
X200924999Y-95508895D01*
X200914867Y-95424531D01*
X200861922Y-95290270D01*
X200774723Y-95175282D01*
X200774717Y-95175276D01*
X200659728Y-95088077D01*
X200659724Y-95088074D01*
X200540063Y-95040886D01*
X200492866Y-95001950D01*
X200477569Y-94942707D01*
X200500015Y-94885788D01*
X200531437Y-94860579D01*
X200533124Y-94859719D01*
X200533126Y-94859719D01*
X200653220Y-94798528D01*
X200748528Y-94703220D01*
X200809719Y-94583126D01*
X200825500Y-94483488D01*
X200825500Y-93966512D01*
X200809719Y-93866874D01*
X200809718Y-93866872D01*
X200807311Y-93859462D01*
X200810355Y-93858472D01*
X200802997Y-93812048D01*
X200817834Y-93773480D01*
X200867892Y-93696659D01*
X200882244Y-93662011D01*
X200884870Y-93655458D01*
X200905500Y-93545099D01*
X200905500Y-93299996D01*
X206944417Y-93299996D01*
X206944417Y-93300003D01*
X206964698Y-93505929D01*
X206964699Y-93505934D01*
X207024768Y-93703954D01*
X207122316Y-93886452D01*
X207253585Y-94046404D01*
X207253590Y-94046410D01*
X207253595Y-94046414D01*
X207413547Y-94177683D01*
X207413548Y-94177683D01*
X207413550Y-94177685D01*
X207596046Y-94275232D01*
X207733997Y-94317078D01*
X207794065Y-94335300D01*
X207794070Y-94335301D01*
X207999997Y-94355583D01*
X208000000Y-94355583D01*
X208000003Y-94355583D01*
X208205929Y-94335301D01*
X208205934Y-94335300D01*
X208403954Y-94275232D01*
X208586450Y-94177685D01*
X208746410Y-94046410D01*
X208877685Y-93886450D01*
X208975232Y-93703954D01*
X209035300Y-93505934D01*
X209035301Y-93505929D01*
X209055583Y-93300003D01*
X209055583Y-93299996D01*
X209035301Y-93094070D01*
X209035300Y-93094065D01*
X209012402Y-93018580D01*
X208975232Y-92896046D01*
X208877685Y-92713550D01*
X208746410Y-92553590D01*
X208726032Y-92536866D01*
X208586452Y-92422316D01*
X208403954Y-92324768D01*
X208205934Y-92264699D01*
X208205929Y-92264698D01*
X208000003Y-92244417D01*
X207999997Y-92244417D01*
X207794070Y-92264698D01*
X207794065Y-92264699D01*
X207596045Y-92324768D01*
X207413547Y-92422316D01*
X207253595Y-92553585D01*
X207253585Y-92553595D01*
X207122316Y-92713547D01*
X207024768Y-92896045D01*
X206964699Y-93094065D01*
X206964698Y-93094070D01*
X206944417Y-93299996D01*
X200905500Y-93299996D01*
X200905500Y-93144500D01*
X200924407Y-93086309D01*
X200973907Y-93050345D01*
X201004500Y-93045500D01*
X201923993Y-93045500D01*
X201923994Y-93045500D01*
X202059328Y-93018580D01*
X202186811Y-92965775D01*
X202301543Y-92889114D01*
X204430661Y-90759996D01*
X206944417Y-90759996D01*
X206944417Y-90760003D01*
X206964698Y-90965929D01*
X206964699Y-90965934D01*
X207024768Y-91163954D01*
X207122316Y-91346452D01*
X207232330Y-91480505D01*
X207253590Y-91506410D01*
X207253595Y-91506414D01*
X207413547Y-91637683D01*
X207413548Y-91637683D01*
X207413550Y-91637685D01*
X207596046Y-91735232D01*
X207733997Y-91777078D01*
X207794065Y-91795300D01*
X207794070Y-91795301D01*
X207999997Y-91815583D01*
X208000000Y-91815583D01*
X208000003Y-91815583D01*
X208205929Y-91795301D01*
X208205934Y-91795300D01*
X208249307Y-91782143D01*
X208403954Y-91735232D01*
X208586450Y-91637685D01*
X208746410Y-91506410D01*
X208877685Y-91346450D01*
X208975232Y-91163954D01*
X209035300Y-90965934D01*
X209035301Y-90965929D01*
X209055583Y-90760003D01*
X209055583Y-90759996D01*
X209035301Y-90554070D01*
X209035300Y-90554065D01*
X209017078Y-90493997D01*
X208975232Y-90356046D01*
X208877685Y-90173550D01*
X208746410Y-90013590D01*
X208746404Y-90013585D01*
X208586452Y-89882316D01*
X208403954Y-89784768D01*
X208205934Y-89724699D01*
X208205929Y-89724698D01*
X208000003Y-89704417D01*
X207999997Y-89704417D01*
X207794070Y-89724698D01*
X207794065Y-89724699D01*
X207596045Y-89784768D01*
X207413547Y-89882316D01*
X207253595Y-90013585D01*
X207253585Y-90013595D01*
X207122316Y-90173547D01*
X207024768Y-90356045D01*
X206964699Y-90554065D01*
X206964698Y-90554070D01*
X206944417Y-90759996D01*
X204430661Y-90759996D01*
X206241161Y-88949496D01*
X206295678Y-88921719D01*
X206311165Y-88920500D01*
X206850500Y-88920500D01*
X206908691Y-88939407D01*
X206944655Y-88988907D01*
X206949500Y-89019500D01*
X206949500Y-89089746D01*
X206949501Y-89089758D01*
X206961132Y-89148227D01*
X206961133Y-89148231D01*
X207005448Y-89214552D01*
X207071769Y-89258867D01*
X207116231Y-89267711D01*
X207130241Y-89270498D01*
X207130246Y-89270498D01*
X207130252Y-89270500D01*
X207130253Y-89270500D01*
X208869747Y-89270500D01*
X208869748Y-89270500D01*
X208928231Y-89258867D01*
X208994552Y-89214552D01*
X209038867Y-89148231D01*
X209050500Y-89089748D01*
X209050500Y-87350252D01*
X209038867Y-87291769D01*
X208994552Y-87225448D01*
X208994548Y-87225445D01*
X208928233Y-87181134D01*
X208928231Y-87181133D01*
X208928228Y-87181132D01*
X208928227Y-87181132D01*
X208869758Y-87169501D01*
X208869748Y-87169500D01*
X207130252Y-87169500D01*
X207130251Y-87169500D01*
X207130241Y-87169501D01*
X207071772Y-87181132D01*
X207071766Y-87181134D01*
X207005451Y-87225445D01*
X207005445Y-87225451D01*
X206961134Y-87291766D01*
X206961132Y-87291772D01*
X206949501Y-87350241D01*
X206949500Y-87350253D01*
X206949500Y-87420500D01*
X206930593Y-87478691D01*
X206881093Y-87514655D01*
X206850500Y-87519500D01*
X205911003Y-87519500D01*
X205775672Y-87546420D01*
X205775670Y-87546420D01*
X205648191Y-87599223D01*
X205533460Y-87675883D01*
X201593839Y-91615504D01*
X201539322Y-91643281D01*
X201523835Y-91644500D01*
X200719732Y-91644500D01*
X200661541Y-91625593D01*
X200625577Y-91576093D01*
X200625577Y-91514907D01*
X200659913Y-91466616D01*
X200754717Y-91394723D01*
X200754723Y-91394717D01*
X200841922Y-91279729D01*
X200894867Y-91145468D01*
X200904999Y-91061104D01*
X200905000Y-91061100D01*
X200905000Y-91045001D01*
X200904999Y-91045000D01*
X199355001Y-91045000D01*
X199355000Y-91045001D01*
X199355000Y-91061104D01*
X199365132Y-91145472D01*
X199409974Y-91259181D01*
X199413733Y-91320251D01*
X199380878Y-91371867D01*
X199323959Y-91394313D01*
X199317877Y-91394500D01*
X198177443Y-91394500D01*
X198141525Y-91396619D01*
X198141517Y-91396619D01*
X198141516Y-91396620D01*
X198135791Y-91397298D01*
X198130058Y-91397977D01*
X198087778Y-91406039D01*
X197986377Y-91454239D01*
X197956063Y-91476274D01*
X197950381Y-91480504D01*
X197875147Y-91563837D01*
X197409078Y-92324768D01*
X197336120Y-92443883D01*
X196914899Y-93131593D01*
X196901965Y-93152709D01*
X196855448Y-93192456D01*
X196817542Y-93200000D01*
X195772000Y-93200000D01*
X195713809Y-93181093D01*
X195677845Y-93131593D01*
X195673000Y-93101000D01*
X195673000Y-92620150D01*
X195691907Y-92561959D01*
X195718477Y-92536866D01*
X195803626Y-92482144D01*
X195803625Y-92482144D01*
X195803628Y-92482143D01*
X195897877Y-92373373D01*
X195957665Y-92242457D01*
X195978147Y-92100000D01*
X195957665Y-91957543D01*
X195897877Y-91826627D01*
X195803628Y-91717857D01*
X195803627Y-91717856D01*
X195803626Y-91717855D01*
X195682557Y-91640049D01*
X195682554Y-91640047D01*
X195682553Y-91640047D01*
X195674502Y-91637683D01*
X195544464Y-91599500D01*
X195544461Y-91599500D01*
X195466216Y-91599500D01*
X195408025Y-91580593D01*
X195372061Y-91531093D01*
X195368224Y-91486411D01*
X195380647Y-91400003D01*
X195380647Y-91399997D01*
X195360165Y-91257543D01*
X195308981Y-91145468D01*
X195300377Y-91126627D01*
X195206128Y-91017857D01*
X195206127Y-91017856D01*
X195206126Y-91017855D01*
X195085057Y-90940049D01*
X195085054Y-90940047D01*
X195085053Y-90940047D01*
X195085050Y-90940046D01*
X194946964Y-90899500D01*
X194946961Y-90899500D01*
X194803039Y-90899500D01*
X194803035Y-90899500D01*
X194664949Y-90940046D01*
X194664942Y-90940049D01*
X194543873Y-91017855D01*
X194449622Y-91126628D01*
X194389834Y-91257543D01*
X194369353Y-91399997D01*
X194369353Y-91400002D01*
X194389834Y-91542456D01*
X194449623Y-91673373D01*
X194547819Y-91786698D01*
X194571637Y-91843057D01*
X194572000Y-91851529D01*
X194572000Y-93101000D01*
X194553093Y-93159191D01*
X194503593Y-93195155D01*
X194473000Y-93200000D01*
X193400000Y-93200000D01*
X193400000Y-93200001D01*
X193400000Y-93773000D01*
X193381093Y-93831191D01*
X193331593Y-93867155D01*
X193301000Y-93872000D01*
X192587979Y-93872000D01*
X192529788Y-93853093D01*
X192517975Y-93843004D01*
X190917427Y-92242456D01*
X189203866Y-90528895D01*
X199355000Y-90528895D01*
X199355000Y-90544999D01*
X199355001Y-90545000D01*
X199879999Y-90545000D01*
X199880000Y-90544999D01*
X199880000Y-90045001D01*
X200380000Y-90045001D01*
X200380000Y-90544999D01*
X200380001Y-90545000D01*
X200904999Y-90545000D01*
X200905000Y-90544999D01*
X200905000Y-90528899D01*
X200904999Y-90528895D01*
X200894867Y-90444531D01*
X200841922Y-90310270D01*
X200754723Y-90195282D01*
X200754717Y-90195276D01*
X200639729Y-90108077D01*
X200505468Y-90055132D01*
X200421104Y-90045000D01*
X200380001Y-90045000D01*
X200380000Y-90045001D01*
X199880000Y-90045001D01*
X199879999Y-90045000D01*
X199838895Y-90045000D01*
X199754531Y-90055132D01*
X199620270Y-90108077D01*
X199505282Y-90195276D01*
X199505276Y-90195282D01*
X199418077Y-90310270D01*
X199365132Y-90444531D01*
X199355000Y-90528895D01*
X189203866Y-90528895D01*
X189194511Y-90519540D01*
X189194508Y-90519538D01*
X189125992Y-90479980D01*
X189125988Y-90479978D01*
X189049564Y-90459500D01*
X189049562Y-90459500D01*
X183180037Y-90459500D01*
X183121846Y-90440593D01*
X183085882Y-90391093D01*
X183085300Y-90389237D01*
X183075232Y-90356047D01*
X183075231Y-90356045D01*
X182989297Y-90195276D01*
X182977685Y-90173550D01*
X182846410Y-90013590D01*
X182846404Y-90013585D01*
X182686452Y-89882316D01*
X182503954Y-89784768D01*
X182305934Y-89724699D01*
X182305929Y-89724698D01*
X182100003Y-89704417D01*
X182099997Y-89704417D01*
X181894070Y-89724698D01*
X181894065Y-89724699D01*
X181696045Y-89784768D01*
X181513547Y-89882316D01*
X181353595Y-90013585D01*
X181353585Y-90013595D01*
X181222316Y-90173547D01*
X181124768Y-90356045D01*
X181064699Y-90554065D01*
X181064698Y-90554070D01*
X181044417Y-90759996D01*
X180500500Y-90759996D01*
X180500500Y-87325202D01*
X180950000Y-87325202D01*
X180950000Y-87969999D01*
X180950001Y-87970000D01*
X181666988Y-87970000D01*
X181634075Y-88027007D01*
X181600000Y-88154174D01*
X181600000Y-88285826D01*
X181634075Y-88412993D01*
X181666988Y-88470000D01*
X180950002Y-88470000D01*
X180950001Y-88470001D01*
X180950001Y-89114791D01*
X180952909Y-89139874D01*
X180998213Y-89242477D01*
X181077522Y-89321786D01*
X181180127Y-89367090D01*
X181205203Y-89369999D01*
X181849998Y-89369999D01*
X181850000Y-89369998D01*
X181850000Y-88653012D01*
X181907007Y-88685925D01*
X182034174Y-88720000D01*
X182165826Y-88720000D01*
X182292993Y-88685925D01*
X182350000Y-88653012D01*
X182350000Y-89369998D01*
X182350001Y-89369999D01*
X182994790Y-89369999D01*
X182994791Y-89369998D01*
X183019874Y-89367090D01*
X183122477Y-89321786D01*
X183201786Y-89242477D01*
X183247090Y-89139872D01*
X183249999Y-89114797D01*
X183250000Y-89114795D01*
X183250000Y-88470001D01*
X183249999Y-88470000D01*
X182533012Y-88470000D01*
X182565925Y-88412993D01*
X182600000Y-88285826D01*
X182600000Y-88154174D01*
X182565925Y-88027007D01*
X182533012Y-87970000D01*
X183249998Y-87970000D01*
X183249999Y-87969999D01*
X183249999Y-87325210D01*
X183249998Y-87325208D01*
X183247090Y-87300125D01*
X183201786Y-87197522D01*
X183122477Y-87118213D01*
X183019872Y-87072909D01*
X182994797Y-87070000D01*
X182350001Y-87070000D01*
X182350000Y-87070001D01*
X182350000Y-87786988D01*
X182292993Y-87754075D01*
X182165826Y-87720000D01*
X182034174Y-87720000D01*
X181907007Y-87754075D01*
X181850000Y-87786988D01*
X181850000Y-87070001D01*
X181849999Y-87070000D01*
X181205210Y-87070000D01*
X181205207Y-87070001D01*
X181180125Y-87072909D01*
X181077522Y-87118213D01*
X180998213Y-87197522D01*
X180952909Y-87300127D01*
X180950000Y-87325202D01*
X180500500Y-87325202D01*
X180500500Y-83002984D01*
X180500681Y-82997007D01*
X180501788Y-82978710D01*
X181349500Y-82978710D01*
X181349500Y-83221289D01*
X181381161Y-83461781D01*
X181381161Y-83461786D01*
X181443944Y-83696092D01*
X181443948Y-83696105D01*
X181536772Y-83920204D01*
X181536774Y-83920208D01*
X181536776Y-83920212D01*
X181594511Y-84020212D01*
X181658066Y-84130292D01*
X181805729Y-84322731D01*
X181805731Y-84322733D01*
X181805735Y-84322738D01*
X181977262Y-84494265D01*
X181977266Y-84494268D01*
X181977268Y-84494270D01*
X182107585Y-84594265D01*
X182169711Y-84641936D01*
X182379788Y-84763224D01*
X182603900Y-84856054D01*
X182838211Y-84918838D01*
X183078712Y-84950500D01*
X183078713Y-84950500D01*
X183321287Y-84950500D01*
X183321288Y-84950500D01*
X183561789Y-84918838D01*
X183796100Y-84856054D01*
X184020212Y-84763224D01*
X184230289Y-84641936D01*
X184422738Y-84494265D01*
X184594265Y-84322738D01*
X184741936Y-84130289D01*
X184863224Y-83920212D01*
X184956054Y-83696100D01*
X185018838Y-83461789D01*
X185050500Y-83221288D01*
X185050500Y-83078710D01*
X205049500Y-83078710D01*
X205049500Y-83321289D01*
X205081161Y-83561781D01*
X205081161Y-83561786D01*
X205143944Y-83796092D01*
X205143948Y-83796105D01*
X205236772Y-84020204D01*
X205236774Y-84020208D01*
X205236776Y-84020212D01*
X205300329Y-84130289D01*
X205358066Y-84230292D01*
X205505729Y-84422731D01*
X205505731Y-84422733D01*
X205505735Y-84422738D01*
X205677262Y-84594265D01*
X205677266Y-84594268D01*
X205677268Y-84594270D01*
X205739384Y-84641933D01*
X205869711Y-84741936D01*
X206079788Y-84863224D01*
X206303900Y-84956054D01*
X206538211Y-85018838D01*
X206778712Y-85050500D01*
X206778713Y-85050500D01*
X207021287Y-85050500D01*
X207021288Y-85050500D01*
X207261789Y-85018838D01*
X207496100Y-84956054D01*
X207720212Y-84863224D01*
X207930289Y-84741936D01*
X208122738Y-84594265D01*
X208294265Y-84422738D01*
X208441936Y-84230289D01*
X208563224Y-84020212D01*
X208656054Y-83796100D01*
X208718838Y-83561789D01*
X208750500Y-83321288D01*
X208750500Y-83078712D01*
X208718838Y-82838211D01*
X208656054Y-82603900D01*
X208563224Y-82379788D01*
X208441936Y-82169711D01*
X208441933Y-82169707D01*
X208294270Y-81977268D01*
X208294268Y-81977266D01*
X208294265Y-81977262D01*
X208122738Y-81805735D01*
X208122733Y-81805731D01*
X208122731Y-81805729D01*
X207930292Y-81658066D01*
X207930289Y-81658064D01*
X207720212Y-81536776D01*
X207720208Y-81536774D01*
X207720204Y-81536772D01*
X207496105Y-81443948D01*
X207496104Y-81443947D01*
X207496100Y-81443946D01*
X207261789Y-81381162D01*
X207261786Y-81381161D01*
X207261784Y-81381161D01*
X207021289Y-81349500D01*
X207021288Y-81349500D01*
X206778712Y-81349500D01*
X206778710Y-81349500D01*
X206538218Y-81381161D01*
X206538213Y-81381161D01*
X206303907Y-81443944D01*
X206303894Y-81443948D01*
X206079795Y-81536772D01*
X205869707Y-81658066D01*
X205677268Y-81805729D01*
X205505729Y-81977268D01*
X205358066Y-82169707D01*
X205236772Y-82379795D01*
X205143948Y-82603894D01*
X205143944Y-82603907D01*
X205081161Y-82838213D01*
X205081161Y-82838218D01*
X205049500Y-83078710D01*
X185050500Y-83078710D01*
X185050500Y-82978712D01*
X185018838Y-82738211D01*
X184956054Y-82503900D01*
X184863224Y-82279788D01*
X184741936Y-82069711D01*
X184594265Y-81877262D01*
X184422738Y-81705735D01*
X184422733Y-81705731D01*
X184422731Y-81705729D01*
X184230292Y-81558066D01*
X184193410Y-81536772D01*
X184020212Y-81436776D01*
X184020208Y-81436774D01*
X184020204Y-81436772D01*
X183796105Y-81343948D01*
X183796104Y-81343947D01*
X183796100Y-81343946D01*
X183561789Y-81281162D01*
X183561786Y-81281161D01*
X183561784Y-81281161D01*
X183321289Y-81249500D01*
X183321288Y-81249500D01*
X183078712Y-81249500D01*
X183078710Y-81249500D01*
X182838218Y-81281161D01*
X182838213Y-81281161D01*
X182603907Y-81343944D01*
X182603894Y-81343948D01*
X182379795Y-81436772D01*
X182169707Y-81558066D01*
X181977268Y-81705729D01*
X181805729Y-81877268D01*
X181658066Y-82069707D01*
X181536772Y-82279795D01*
X181443948Y-82503894D01*
X181443944Y-82503907D01*
X181381161Y-82738213D01*
X181381161Y-82738218D01*
X181349500Y-82978710D01*
X180501788Y-82978710D01*
X180510902Y-82828031D01*
X180518362Y-82704688D01*
X180519801Y-82692837D01*
X180572052Y-82407714D01*
X180574912Y-82396113D01*
X180579997Y-82379795D01*
X180661148Y-82119370D01*
X180665378Y-82108218D01*
X180784350Y-81843873D01*
X180789899Y-81833302D01*
X180939861Y-81585233D01*
X180946632Y-81575423D01*
X181125406Y-81347235D01*
X181133318Y-81338303D01*
X181338303Y-81133318D01*
X181347235Y-81125406D01*
X181575423Y-80946632D01*
X181585233Y-80939861D01*
X181833302Y-80789899D01*
X181843873Y-80784350D01*
X182108218Y-80665378D01*
X182119370Y-80661148D01*
X182396120Y-80574910D01*
X182407714Y-80572052D01*
X182692837Y-80519801D01*
X182704688Y-80518362D01*
X182997008Y-80500681D01*
X183002985Y-80500500D01*
X183065892Y-80500500D01*
X206934108Y-80500500D01*
X206997015Y-80500500D01*
X207002992Y-80500681D01*
G37*
%TD.AperFunction*%
%TD*%
%TA.AperFunction,Conductor*%
%TO.N,VDD*%
G36*
X199615311Y-91714352D02*
G01*
X199629663Y-91749000D01*
X199615311Y-91783648D01*
X199531882Y-91867076D01*
X199531878Y-91867081D01*
X199470763Y-91987027D01*
X199455000Y-92086550D01*
X199455000Y-92195000D01*
X200081000Y-92195000D01*
X200115648Y-92209352D01*
X200130000Y-92244000D01*
X200130000Y-92345000D01*
X200231000Y-92345000D01*
X200265648Y-92359352D01*
X200280000Y-92394000D01*
X200280000Y-92994999D01*
X200413449Y-92994999D01*
X200512968Y-92979238D01*
X200528753Y-92971195D01*
X200566140Y-92968251D01*
X200594658Y-92992606D01*
X200600000Y-93014853D01*
X200600000Y-93545099D01*
X200585648Y-93579747D01*
X200551000Y-93594099D01*
X200535861Y-93591702D01*
X200532970Y-93590763D01*
X200433449Y-93575000D01*
X200300000Y-93575000D01*
X200300000Y-94176000D01*
X200285648Y-94210648D01*
X200251000Y-94225000D01*
X200150000Y-94225000D01*
X200150000Y-94326000D01*
X200135648Y-94360648D01*
X200101000Y-94375000D01*
X199475001Y-94375000D01*
X199475001Y-94483449D01*
X199490761Y-94582968D01*
X199514091Y-94628754D01*
X199517034Y-94666141D01*
X199492678Y-94694659D01*
X199470432Y-94700000D01*
X198609956Y-94700000D01*
X198561667Y-94723000D01*
X198468785Y-94767238D01*
X198447716Y-94772000D01*
X196974000Y-94772000D01*
X196939352Y-94757648D01*
X196925000Y-94723000D01*
X196925000Y-93966550D01*
X199475000Y-93966550D01*
X199475000Y-94075000D01*
X200000000Y-94075000D01*
X200000000Y-93575000D01*
X199866550Y-93575000D01*
X199767031Y-93590761D01*
X199647083Y-93651877D01*
X199647076Y-93651882D01*
X199551882Y-93747076D01*
X199551878Y-93747081D01*
X199490763Y-93867027D01*
X199475000Y-93966550D01*
X196925000Y-93966550D01*
X196925000Y-93713813D01*
X196932215Y-93688220D01*
X196991333Y-93591702D01*
X197596637Y-92603449D01*
X199455001Y-92603449D01*
X199470761Y-92702968D01*
X199531877Y-92822916D01*
X199531882Y-92822923D01*
X199627076Y-92918117D01*
X199627081Y-92918121D01*
X199747028Y-92979236D01*
X199747027Y-92979236D01*
X199846550Y-92994999D01*
X199979999Y-92994999D01*
X199980000Y-92994998D01*
X199980000Y-92495000D01*
X199455001Y-92495000D01*
X199455001Y-92603449D01*
X197596637Y-92603449D01*
X198135663Y-91723406D01*
X198165999Y-91701356D01*
X198177448Y-91700000D01*
X199580663Y-91700000D01*
X199615311Y-91714352D01*
G37*
%TD.AperFunction*%
%TD*%
M02*
