%TF.GenerationSoftware,KiCad,Pcbnew,8.0.8-8.0.8-0~ubuntu24.04.1*%
%TF.CreationDate,2025-02-16T19:55:32+01:00*%
%TF.ProjectId,LIS2HH12TR-devboard,4c495332-4848-4313-9254-522d64657662,rev?*%
%TF.SameCoordinates,Original*%
%TF.FileFunction,Legend,Top*%
%TF.FilePolarity,Positive*%
%FSLAX46Y46*%
G04 Gerber Fmt 4.6, Leading zero omitted, Abs format (unit mm)*
G04 Created by KiCad (PCBNEW 8.0.8-8.0.8-0~ubuntu24.04.1) date 2025-02-16 19:55:32*
%MOMM*%
%LPD*%
G01*
G04 APERTURE LIST*
%ADD10C,0.150000*%
%ADD11C,0.120000*%
G04 APERTURE END LIST*
D10*
X198859580Y-95241666D02*
X198907200Y-95289285D01*
X198907200Y-95289285D02*
X198954819Y-95432142D01*
X198954819Y-95432142D02*
X198954819Y-95527380D01*
X198954819Y-95527380D02*
X198907200Y-95670237D01*
X198907200Y-95670237D02*
X198811961Y-95765475D01*
X198811961Y-95765475D02*
X198716723Y-95813094D01*
X198716723Y-95813094D02*
X198526247Y-95860713D01*
X198526247Y-95860713D02*
X198383390Y-95860713D01*
X198383390Y-95860713D02*
X198192914Y-95813094D01*
X198192914Y-95813094D02*
X198097676Y-95765475D01*
X198097676Y-95765475D02*
X198002438Y-95670237D01*
X198002438Y-95670237D02*
X197954819Y-95527380D01*
X197954819Y-95527380D02*
X197954819Y-95432142D01*
X197954819Y-95432142D02*
X198002438Y-95289285D01*
X198002438Y-95289285D02*
X198050057Y-95241666D01*
X198050057Y-94860713D02*
X198002438Y-94813094D01*
X198002438Y-94813094D02*
X197954819Y-94717856D01*
X197954819Y-94717856D02*
X197954819Y-94479761D01*
X197954819Y-94479761D02*
X198002438Y-94384523D01*
X198002438Y-94384523D02*
X198050057Y-94336904D01*
X198050057Y-94336904D02*
X198145295Y-94289285D01*
X198145295Y-94289285D02*
X198240533Y-94289285D01*
X198240533Y-94289285D02*
X198383390Y-94336904D01*
X198383390Y-94336904D02*
X198954819Y-94908332D01*
X198954819Y-94908332D02*
X198954819Y-94289285D01*
X202348095Y-100784819D02*
X202919523Y-100784819D01*
X202633809Y-101784819D02*
X202633809Y-100784819D01*
X203252857Y-101784819D02*
X203252857Y-100784819D01*
X203252857Y-100784819D02*
X203633809Y-100784819D01*
X203633809Y-100784819D02*
X203729047Y-100832438D01*
X203729047Y-100832438D02*
X203776666Y-100880057D01*
X203776666Y-100880057D02*
X203824285Y-100975295D01*
X203824285Y-100975295D02*
X203824285Y-101118152D01*
X203824285Y-101118152D02*
X203776666Y-101213390D01*
X203776666Y-101213390D02*
X203729047Y-101261009D01*
X203729047Y-101261009D02*
X203633809Y-101308628D01*
X203633809Y-101308628D02*
X203252857Y-101308628D01*
X204205238Y-100880057D02*
X204252857Y-100832438D01*
X204252857Y-100832438D02*
X204348095Y-100784819D01*
X204348095Y-100784819D02*
X204586190Y-100784819D01*
X204586190Y-100784819D02*
X204681428Y-100832438D01*
X204681428Y-100832438D02*
X204729047Y-100880057D01*
X204729047Y-100880057D02*
X204776666Y-100975295D01*
X204776666Y-100975295D02*
X204776666Y-101070533D01*
X204776666Y-101070533D02*
X204729047Y-101213390D01*
X204729047Y-101213390D02*
X204157619Y-101784819D01*
X204157619Y-101784819D02*
X204776666Y-101784819D01*
X194360595Y-92302319D02*
X194360595Y-93111842D01*
X194360595Y-93111842D02*
X194408214Y-93207080D01*
X194408214Y-93207080D02*
X194455833Y-93254700D01*
X194455833Y-93254700D02*
X194551071Y-93302319D01*
X194551071Y-93302319D02*
X194741547Y-93302319D01*
X194741547Y-93302319D02*
X194836785Y-93254700D01*
X194836785Y-93254700D02*
X194884404Y-93207080D01*
X194884404Y-93207080D02*
X194932023Y-93111842D01*
X194932023Y-93111842D02*
X194932023Y-92302319D01*
X195932023Y-93302319D02*
X195360595Y-93302319D01*
X195646309Y-93302319D02*
X195646309Y-92302319D01*
X195646309Y-92302319D02*
X195551071Y-92445176D01*
X195551071Y-92445176D02*
X195455833Y-92540414D01*
X195455833Y-92540414D02*
X195360595Y-92588033D01*
X202508095Y-93236819D02*
X203079523Y-93236819D01*
X202793809Y-94236819D02*
X202793809Y-93236819D01*
X203412857Y-94236819D02*
X203412857Y-93236819D01*
X203412857Y-93236819D02*
X203793809Y-93236819D01*
X203793809Y-93236819D02*
X203889047Y-93284438D01*
X203889047Y-93284438D02*
X203936666Y-93332057D01*
X203936666Y-93332057D02*
X203984285Y-93427295D01*
X203984285Y-93427295D02*
X203984285Y-93570152D01*
X203984285Y-93570152D02*
X203936666Y-93665390D01*
X203936666Y-93665390D02*
X203889047Y-93713009D01*
X203889047Y-93713009D02*
X203793809Y-93760628D01*
X203793809Y-93760628D02*
X203412857Y-93760628D01*
X204936666Y-94236819D02*
X204365238Y-94236819D01*
X204650952Y-94236819D02*
X204650952Y-93236819D01*
X204650952Y-93236819D02*
X204555714Y-93379676D01*
X204555714Y-93379676D02*
X204460476Y-93474914D01*
X204460476Y-93474914D02*
X204365238Y-93522533D01*
X198989580Y-91711666D02*
X199037200Y-91759285D01*
X199037200Y-91759285D02*
X199084819Y-91902142D01*
X199084819Y-91902142D02*
X199084819Y-91997380D01*
X199084819Y-91997380D02*
X199037200Y-92140237D01*
X199037200Y-92140237D02*
X198941961Y-92235475D01*
X198941961Y-92235475D02*
X198846723Y-92283094D01*
X198846723Y-92283094D02*
X198656247Y-92330713D01*
X198656247Y-92330713D02*
X198513390Y-92330713D01*
X198513390Y-92330713D02*
X198322914Y-92283094D01*
X198322914Y-92283094D02*
X198227676Y-92235475D01*
X198227676Y-92235475D02*
X198132438Y-92140237D01*
X198132438Y-92140237D02*
X198084819Y-91997380D01*
X198084819Y-91997380D02*
X198084819Y-91902142D01*
X198084819Y-91902142D02*
X198132438Y-91759285D01*
X198132438Y-91759285D02*
X198180057Y-91711666D01*
X199084819Y-90759285D02*
X199084819Y-91330713D01*
X199084819Y-91044999D02*
X198084819Y-91044999D01*
X198084819Y-91044999D02*
X198227676Y-91140237D01*
X198227676Y-91140237D02*
X198322914Y-91235475D01*
X198322914Y-91235475D02*
X198370533Y-91330713D01*
D11*
%TO.C,C2*%
X199349998Y-93700000D02*
X199350000Y-96300000D01*
X200950002Y-96300000D02*
X200950000Y-93700000D01*
X199349998Y-93700000D02*
G75*
G02*
X200950000Y-93700000I800001J-840224D01*
G01*
X200950002Y-96300000D02*
G75*
G02*
X199350000Y-96300000I-800001J840224D01*
G01*
%TO.C,TP2*%
X204910000Y-99030000D02*
G75*
G02*
X202510000Y-99030000I-1200000J0D01*
G01*
X202510000Y-99030000D02*
G75*
G02*
X204910000Y-99030000I1200000J0D01*
G01*
%TO.C,U1*%
X194022500Y-93822500D02*
X194022500Y-93822500D01*
X194022500Y-94322500D02*
X194022500Y-94022500D01*
X194022500Y-95522500D02*
X194022500Y-95522500D01*
X194022500Y-96022500D02*
X194022500Y-95522500D01*
X194522500Y-93822500D02*
X194222500Y-93822500D01*
X194522500Y-96022500D02*
X194022500Y-96022500D01*
X195722500Y-93822500D02*
X196222500Y-93822500D01*
X195722500Y-96022500D02*
X195722500Y-96022500D01*
X196222500Y-93822500D02*
X196222500Y-94322500D01*
X196222500Y-94322500D02*
X196222500Y-94322500D01*
X196222500Y-95522500D02*
X196222500Y-96022500D01*
X196222500Y-96022500D02*
X195722500Y-96022500D01*
X194022500Y-93822500D02*
X193662500Y-93822500D01*
X194022500Y-93462500D01*
X194022500Y-93822500D01*
G36*
X194022500Y-93822500D02*
G01*
X193662500Y-93822500D01*
X194022500Y-93462500D01*
X194022500Y-93822500D01*
G37*
%TO.C,TP1*%
X204970000Y-95780000D02*
G75*
G02*
X202570000Y-95780000I-1200000J0D01*
G01*
X202570000Y-95780000D02*
G75*
G02*
X204970000Y-95780000I1200000J0D01*
G01*
%TO.C,J2*%
X206670000Y-86890000D02*
X208000000Y-86890000D01*
X206670000Y-88220000D02*
X206670000Y-86890000D01*
X206670000Y-89490000D02*
X206670000Y-102250000D01*
X206670000Y-89490000D02*
X209330000Y-89490000D01*
X206670000Y-102250000D02*
X209330000Y-102250000D01*
X209330000Y-89490000D02*
X209330000Y-102250000D01*
%TO.C,J1*%
X180770000Y-86890000D02*
X182100000Y-86890000D01*
X180770000Y-88220000D02*
X180770000Y-86890000D01*
X180770000Y-89490000D02*
X180770000Y-102250000D01*
X180770000Y-89490000D02*
X183430000Y-89490000D01*
X180770000Y-102250000D02*
X183430000Y-102250000D01*
X183430000Y-89490000D02*
X183430000Y-102250000D01*
%TO.C,C1*%
X200930002Y-92870000D02*
X200930000Y-90270000D01*
X199329998Y-90270000D02*
X199330000Y-92870000D01*
X200930002Y-92870000D02*
G75*
G02*
X199330000Y-92870000I-800001J840224D01*
G01*
X199329998Y-90270000D02*
G75*
G02*
X200930000Y-90270000I800001J-840224D01*
G01*
%TD*%
M02*
