M48
INCH,TZ
FMAT,2
ICI,OFF
T01C.01181
T02C.03543
%
T01
G05
X4580Y580
X4596Y-748
X3877Y-4431
T02
X0Y0
X0Y-1000
X0Y-2000
X0Y-3000
X0Y-4000
X0Y-5000
X0Y-6000
X0Y1000
X0Y2000
X0Y3000
X0Y4000
X0Y5000
X5909Y5000
X5909Y4000
X5909Y3000
X5909Y2000
X5909Y1000
X5909Y0
X5909Y-1000
X5909Y-2000
X5909Y-3000
X5909Y-4000
X5909Y-5000
X5909Y-6000
M30
