*
%LPD*%
%LNMS 2x2D12 Adapter to DIL24_Rev1.0.GBL*%
%FSLAX24Y24*%
%MOIN*%
%AD*%
%ADD10C,0.00787*%
%ADD14C,0.01*%
%ADD15C,0.05906*%
%ADD16C,0.05906*%
%ADD17R,0.05906X0.05906*%
%ADD18C,0.02874*%
%ADD19C,0.02658*%
%ADD20C,0.02953*%
G54D10*
%SRX1Y1I0.0J0.0*%
G1X6323Y5000D2*
G1X6311Y5099D1*
G1X6275Y5192D1*
G1X6219Y5274D1*
G1X6144Y5340D1*
G1X6056Y5387D1*
G1X5959Y5410D1*
G1X5860Y5410D1*
G1X5763Y5387D1*
G1X5675Y5340D1*
G1X5600Y5274D1*
G1X5543Y5192D1*
G1X5508Y5099D1*
G1X5496Y5000D1*
G1X5508Y4901D1*
G1X5543Y4808D1*
G1X5600Y4726D1*
G1X5675Y4660D1*
G1X5763Y4614D1*
G1X5860Y4590D1*
G1X5959Y4590D1*
G1X6056Y4614D1*
G1X6144Y4660D1*
G1X6219Y4726D1*
G1X6275Y4808D1*
G1X6311Y4901D1*
G1X6323Y5000D1*
G1X6323Y4000D2*
G1X6311Y4099D1*
G1X6275Y4192D1*
G1X6219Y4274D1*
G1X6144Y4340D1*
G1X6056Y4387D1*
G1X5959Y4410D1*
G1X5860Y4410D1*
G1X5763Y4387D1*
G1X5675Y4340D1*
G1X5600Y4274D1*
G1X5543Y4192D1*
G1X5508Y4099D1*
G1X5496Y4000D1*
G1X5508Y3901D1*
G1X5543Y3808D1*
G1X5600Y3726D1*
G1X5675Y3660D1*
G1X5763Y3614D1*
G1X5860Y3590D1*
G1X5959Y3590D1*
G1X6056Y3614D1*
G1X6144Y3660D1*
G1X6219Y3726D1*
G1X6275Y3808D1*
G1X6311Y3901D1*
G1X6323Y4000D1*
G1X6323Y3000D2*
G1X6311Y3099D1*
G1X6275Y3192D1*
G1X6219Y3274D1*
G1X6144Y3340D1*
G1X6056Y3387D1*
G1X5959Y3410D1*
G1X5860Y3410D1*
G1X5763Y3387D1*
G1X5675Y3340D1*
G1X5600Y3274D1*
G1X5543Y3192D1*
G1X5508Y3099D1*
G1X5496Y3000D1*
G1X5508Y2901D1*
G1X5543Y2808D1*
G1X5600Y2726D1*
G1X5675Y2660D1*
G1X5763Y2614D1*
G1X5860Y2590D1*
G1X5959Y2590D1*
G1X6056Y2614D1*
G1X6144Y2660D1*
G1X6219Y2726D1*
G1X6275Y2808D1*
G1X6311Y2901D1*
G1X6323Y3000D1*
G1X6323Y2000D2*
G1X6310Y2101D1*
G1X6273Y2196D1*
G1X6214Y2280D1*
G1X6136Y2346D1*
G1X6045Y2391D1*
G1X5945Y2412D1*
G1X5843Y2408D1*
G1X5745Y2379D1*
G1X5657Y2327D1*
G1X5584Y2256D1*
G1X5532Y2168D1*
G1X5532Y1832D2*
G1X5584Y1745D1*
G1X5657Y1673D1*
G1X5745Y1621D1*
G1X5843Y1592D1*
G1X5945Y1588D1*
G1X6045Y1609D1*
G1X6136Y1654D1*
G1X6214Y1721D1*
G1X6273Y1804D1*
G1X6310Y1899D1*
G1X6323Y2000D1*
G1X6323Y1000D2*
G1X6311Y1098D1*
G1X6277Y1190D1*
G1X6221Y1271D1*
G1X6148Y1337D1*
G1X6062Y1384D1*
G1X5967Y1409D1*
G1X5868Y1411D1*
G1X5772Y1390D1*
G1X5684Y1347D1*
G1X5608Y1283D1*
G1X5550Y1204D1*
G1X5512Y1113D1*
G1X5600Y726D2*
G1X5675Y660D1*
G1X5763Y614D1*
G1X5860Y590D1*
G1X5959Y590D1*
G1X6056Y614D1*
G1X6144Y660D1*
G1X6219Y726D1*
G1X6275Y808D1*
G1X6311Y901D1*
G1X6323Y1000D1*
G1X6323Y0D2*
G1X6311Y99D1*
G1X6275Y192D1*
G1X6219Y274D1*
G1X6144Y340D1*
G1X6056Y387D1*
G1X5959Y410D1*
G1X5860Y410D1*
G1X5763Y387D1*
G1X5675Y340D1*
G1X5600Y274D1*
G1X5543Y192D1*
G1X5508Y99D1*
G1X5496Y0D1*
G1X5508Y-99D1*
G1X5543Y-192D1*
G1X5600Y-274D1*
G1X5675Y-340D1*
G1X5763Y-387D1*
G1X5860Y-410D1*
G1X5959Y-410D1*
G1X6056Y-387D1*
G1X6144Y-340D1*
G1X6219Y-274D1*
G1X6275Y-192D1*
G1X6311Y-99D1*
G1X6323Y0D1*
G1X5086Y2168D2*
G1X4967Y2119D1*
G1X5086Y2168D2*
G1X4967Y2119D1*
G1X4461Y1613D2*
G1X4412Y1494D1*
G1X4461Y1613D2*
G1X4412Y1494D1*
G1X5098Y699D2*
G1X5048Y580D1*
G1X5098Y699D2*
G1X5048Y580D1*
G1X5335Y-247D2*
G1X5385Y-129D1*
G1X5335Y-247D2*
G1X5385Y-129D1*
G1X4831Y580D2*
G1X4809Y682D1*
G1X4748Y767D1*
G1X4412Y767D2*
G1X4353Y687D1*
G1X4329Y591D1*
G1X4345Y493D1*
G1X4397Y408D1*
G1X4478Y351D1*
G1X4575Y329D1*
G1X4672Y347D1*
G1X4756Y401D1*
G1X4811Y483D1*
G1X4831Y580D1*
G1X6323Y-1000D2*
G1X6311Y-901D1*
G1X6275Y-808D1*
G1X6219Y-726D1*
G1X6144Y-660D1*
G1X6056Y-614D1*
G1X5959Y-590D1*
G1X5860Y-590D1*
G1X5763Y-614D1*
G1X5675Y-660D1*
G1X5600Y-726D1*
G1X5543Y-808D1*
G1X5508Y-901D1*
G1X5496Y-1000D1*
G1X5508Y-1099D1*
G1X5543Y-1192D1*
G1X5600Y-1274D1*
G1X5675Y-1340D1*
G1X5763Y-1387D1*
G1X5860Y-1410D1*
G1X5959Y-1410D1*
G1X6056Y-1387D1*
G1X6144Y-1340D1*
G1X6219Y-1274D1*
G1X6275Y-1192D1*
G1X6311Y-1099D1*
G1X6323Y-1000D1*
G1X6323Y-2000D2*
G1X6311Y-1901D1*
G1X6275Y-1808D1*
G1X6219Y-1726D1*
G1X6144Y-1660D1*
G1X6056Y-1614D1*
G1X5959Y-1590D1*
G1X5860Y-1590D1*
G1X5763Y-1614D1*
G1X5675Y-1660D1*
G1X5600Y-1726D1*
G1X5543Y-1808D1*
G1X5508Y-1901D1*
G1X5496Y-2000D1*
G1X5508Y-2099D1*
G1X5543Y-2192D1*
G1X5600Y-2274D1*
G1X5675Y-2340D1*
G1X5763Y-2387D1*
G1X5860Y-2410D1*
G1X5959Y-2410D1*
G1X6056Y-2387D1*
G1X6144Y-2340D1*
G1X6219Y-2274D1*
G1X6275Y-2192D1*
G1X6311Y-2099D1*
G1X6323Y-2000D1*
G1X6323Y-3000D2*
G1X6311Y-2901D1*
G1X6275Y-2808D1*
G1X6219Y-2726D1*
G1X6144Y-2660D1*
G1X6056Y-2614D1*
G1X5959Y-2590D1*
G1X5860Y-2590D1*
G1X5763Y-2614D1*
G1X5675Y-2660D1*
G1X5600Y-2726D1*
G1X5543Y-2808D1*
G1X5508Y-2901D1*
G1X5496Y-3000D1*
G1X5508Y-3099D1*
G1X5543Y-3192D1*
G1X5600Y-3274D1*
G1X5675Y-3340D1*
G1X5763Y-3387D1*
G1X5860Y-3410D1*
G1X5959Y-3410D1*
G1X6056Y-3387D1*
G1X6144Y-3340D1*
G1X6219Y-3274D1*
G1X6275Y-3192D1*
G1X6311Y-3099D1*
G1X6323Y-3000D1*
G1X6323Y-4000D2*
G1X6310Y-3899D1*
G1X6273Y-3804D1*
G1X6214Y-3721D1*
G1X6136Y-3654D1*
G1X6045Y-3609D1*
G1X5945Y-3588D1*
G1X5843Y-3592D1*
G1X5745Y-3621D1*
G1X5657Y-3673D1*
G1X5584Y-3745D1*
G1X5532Y-3832D1*
G1X5532Y-4168D2*
G1X5584Y-4256D1*
G1X5657Y-4327D1*
G1X5745Y-4379D1*
G1X5843Y-4408D1*
G1X5945Y-4412D1*
G1X6045Y-4391D1*
G1X6136Y-4346D1*
G1X6214Y-4280D1*
G1X6273Y-4196D1*
G1X6310Y-4101D1*
G1X6323Y-4000D1*
G1X6323Y-5000D2*
G1X6311Y-4901D1*
G1X6275Y-4808D1*
G1X6219Y-4726D1*
G1X6144Y-4660D1*
G1X6056Y-4614D1*
G1X5959Y-4590D1*
G1X5860Y-4590D1*
G1X5763Y-4614D1*
G1X5675Y-4660D1*
G1X5600Y-4726D1*
G1X5543Y-4808D1*
G1X5508Y-4901D1*
G1X5496Y-5000D1*
G1X5508Y-5099D1*
G1X5543Y-5192D1*
G1X5600Y-5274D1*
G1X5675Y-5340D1*
G1X5763Y-5387D1*
G1X5860Y-5410D1*
G1X5959Y-5410D1*
G1X6056Y-5387D1*
G1X6144Y-5340D1*
G1X6219Y-5274D1*
G1X6275Y-5192D1*
G1X6311Y-5099D1*
G1X6323Y-5000D1*
G1X6323Y-6000D2*
G1X6311Y-5901D1*
G1X6275Y-5808D1*
G1X6219Y-5726D1*
G1X6144Y-5660D1*
G1X6056Y-5614D1*
G1X5959Y-5590D1*
G1X5860Y-5590D1*
G1X5763Y-5614D1*
G1X5675Y-5660D1*
G1X5600Y-5726D1*
G1X5543Y-5808D1*
G1X5508Y-5901D1*
G1X5496Y-6000D1*
G1X5508Y-6099D1*
G1X5543Y-6192D1*
G1X5600Y-6274D1*
G1X5675Y-6340D1*
G1X5763Y-6387D1*
G1X5860Y-6410D1*
G1X5959Y-6410D1*
G1X6056Y-6387D1*
G1X6144Y-6340D1*
G1X6219Y-6274D1*
G1X6275Y-6192D1*
G1X6311Y-6099D1*
G1X6323Y-6000D1*
G1X4623Y-485D2*
G1X4525Y-493D1*
G1X4437Y-536D1*
G1X4371Y-608D1*
G1X4335Y-699D1*
G1X4335Y-797D1*
G1X4370Y-888D1*
G1X4435Y-960D1*
G1X4523Y-1004D1*
G1X4620Y-1014D1*
G1X4714Y-987D1*
G1X4792Y-928D1*
G1X4844Y-845D1*
G1X4862Y-749D1*
G1X4309Y-3832D2*
G1X4190Y-3881D1*
G1X4309Y-3832D2*
G1X4190Y-3881D1*
G1X3900Y-4171D2*
G1X3805Y-4180D1*
G1X3719Y-4223D1*
G1X3654Y-4294D1*
G1X3620Y-4384D1*
G1X3620Y-4480D1*
G1X3655Y-4570D1*
G1X3720Y-4641D1*
G1X3806Y-4683D1*
G1X3902Y-4692D1*
G1X3994Y-4666D1*
G1X4071Y-4608D1*
G1X4121Y-4526D1*
G1X4139Y-4431D1*
G1X413Y4000D2*
G1X401Y4099D1*
G1X366Y4192D1*
G1X309Y4274D1*
G1X235Y4340D1*
G1X147Y4387D1*
G1X50Y4410D1*
G1X-50Y4410D1*
G1X-147Y4387D1*
G1X-235Y4340D1*
G1X-309Y4274D1*
G1X-366Y4192D1*
G1X-401Y4099D1*
G1X-413Y4000D1*
G1X-401Y3901D1*
G1X-366Y3808D1*
G1X-309Y3726D1*
G1X-235Y3660D1*
G1X-147Y3614D1*
G1X-50Y3590D1*
G1X50Y3590D1*
G1X147Y3614D1*
G1X235Y3660D1*
G1X309Y3726D1*
G1X366Y3808D1*
G1X401Y3901D1*
G1X413Y4000D1*
G1X413Y3000D2*
G1X401Y3099D1*
G1X366Y3192D1*
G1X309Y3274D1*
G1X235Y3340D1*
G1X147Y3387D1*
G1X50Y3410D1*
G1X-50Y3410D1*
G1X-147Y3387D1*
G1X-235Y3340D1*
G1X-309Y3274D1*
G1X-366Y3192D1*
G1X-401Y3099D1*
G1X-413Y3000D1*
G1X-401Y2901D1*
G1X-366Y2808D1*
G1X-309Y2726D1*
G1X-235Y2660D1*
G1X-147Y2614D1*
G1X-50Y2590D1*
G1X50Y2590D1*
G1X147Y2614D1*
G1X235Y2660D1*
G1X309Y2726D1*
G1X366Y2808D1*
G1X401Y2901D1*
G1X413Y3000D1*
G1X413Y2000D2*
G1X401Y2099D1*
G1X366Y2192D1*
G1X309Y2274D1*
G1X235Y2340D1*
G1X147Y2387D1*
G1X50Y2410D1*
G1X-50Y2410D1*
G1X-147Y2387D1*
G1X-235Y2340D1*
G1X-309Y2274D1*
G1X-366Y2192D1*
G1X-401Y2099D1*
G1X-413Y2000D1*
G1X-401Y1901D1*
G1X-366Y1808D1*
G1X-309Y1726D1*
G1X-235Y1660D1*
G1X-147Y1614D1*
G1X-50Y1590D1*
G1X50Y1590D1*
G1X147Y1614D1*
G1X235Y1660D1*
G1X309Y1726D1*
G1X366Y1808D1*
G1X401Y1901D1*
G1X413Y2000D1*
G1X413Y1000D2*
G1X401Y1099D1*
G1X366Y1192D1*
G1X309Y1274D1*
G1X235Y1340D1*
G1X147Y1387D1*
G1X50Y1410D1*
G1X-50Y1410D1*
G1X-147Y1387D1*
G1X-235Y1340D1*
G1X-309Y1274D1*
G1X-366Y1192D1*
G1X-401Y1099D1*
G1X-413Y1000D1*
G1X-401Y901D1*
G1X-366Y808D1*
G1X-309Y726D1*
G1X-235Y660D1*
G1X-147Y614D1*
G1X-50Y590D1*
G1X50Y590D1*
G1X147Y614D1*
G1X235Y660D1*
G1X309Y726D1*
G1X366Y808D1*
G1X401Y901D1*
G1X413Y1000D1*
G1X413Y0D2*
G1X401Y99D1*
G1X366Y192D1*
G1X309Y274D1*
G1X235Y340D1*
G1X147Y387D1*
G1X50Y410D1*
G1X-50Y410D1*
G1X-147Y387D1*
G1X-235Y340D1*
G1X-309Y274D1*
G1X-366Y192D1*
G1X-401Y99D1*
G1X-413Y0D1*
G1X-401Y-99D1*
G1X-366Y-192D1*
G1X-309Y-274D1*
G1X-235Y-340D1*
G1X-147Y-387D1*
G1X-50Y-410D1*
G1X50Y-410D1*
G1X147Y-387D1*
G1X235Y-340D1*
G1X309Y-274D1*
G1X366Y-192D1*
G1X401Y-99D1*
G1X413Y0D1*
G1X413Y-1000D2*
G1X401Y-901D1*
G1X366Y-808D1*
G1X309Y-726D1*
G1X235Y-660D1*
G1X147Y-614D1*
G1X50Y-590D1*
G1X-50Y-590D1*
G1X-147Y-614D1*
G1X-235Y-660D1*
G1X-309Y-726D1*
G1X-366Y-808D1*
G1X-401Y-901D1*
G1X-413Y-1000D1*
G1X-401Y-1099D1*
G1X-366Y-1192D1*
G1X-309Y-1274D1*
G1X-235Y-1340D1*
G1X-147Y-1387D1*
G1X-50Y-1410D1*
G1X50Y-1410D1*
G1X147Y-1387D1*
G1X235Y-1340D1*
G1X309Y-1274D1*
G1X366Y-1192D1*
G1X401Y-1099D1*
G1X413Y-1000D1*
G1X413Y-2000D2*
G1X401Y-1901D1*
G1X366Y-1808D1*
G1X309Y-1726D1*
G1X235Y-1660D1*
G1X147Y-1614D1*
G1X50Y-1590D1*
G1X-50Y-1590D1*
G1X-147Y-1614D1*
G1X-235Y-1660D1*
G1X-309Y-1726D1*
G1X-366Y-1808D1*
G1X-401Y-1901D1*
G1X-413Y-2000D1*
G1X-401Y-2099D1*
G1X-366Y-2192D1*
G1X-309Y-2274D1*
G1X-235Y-2340D1*
G1X-147Y-2387D1*
G1X-50Y-2410D1*
G1X50Y-2410D1*
G1X147Y-2387D1*
G1X235Y-2340D1*
G1X309Y-2274D1*
G1X366Y-2192D1*
G1X401Y-2099D1*
G1X413Y-2000D1*
G1X413Y-3000D2*
G1X401Y-2901D1*
G1X366Y-2808D1*
G1X309Y-2726D1*
G1X235Y-2660D1*
G1X147Y-2614D1*
G1X50Y-2590D1*
G1X-50Y-2590D1*
G1X-147Y-2614D1*
G1X-235Y-2660D1*
G1X-309Y-2726D1*
G1X-366Y-2808D1*
G1X-401Y-2901D1*
G1X-413Y-3000D1*
G1X-401Y-3099D1*
G1X-366Y-3192D1*
G1X-309Y-3274D1*
G1X-235Y-3340D1*
G1X-147Y-3387D1*
G1X-50Y-3410D1*
G1X50Y-3410D1*
G1X147Y-3387D1*
G1X235Y-3340D1*
G1X309Y-3274D1*
G1X366Y-3192D1*
G1X401Y-3099D1*
G1X413Y-3000D1*
G1X413Y-4000D2*
G1X401Y-3901D1*
G1X366Y-3808D1*
G1X309Y-3726D1*
G1X235Y-3660D1*
G1X147Y-3614D1*
G1X50Y-3590D1*
G1X-50Y-3590D1*
G1X-147Y-3614D1*
G1X-235Y-3660D1*
G1X-309Y-3726D1*
G1X-366Y-3808D1*
G1X-401Y-3901D1*
G1X-413Y-4000D1*
G1X-401Y-4099D1*
G1X-366Y-4192D1*
G1X-309Y-4274D1*
G1X-235Y-4340D1*
G1X-147Y-4387D1*
G1X-50Y-4410D1*
G1X50Y-4410D1*
G1X147Y-4387D1*
G1X235Y-4340D1*
G1X309Y-4274D1*
G1X366Y-4192D1*
G1X401Y-4099D1*
G1X413Y-4000D1*
G1X413Y-5000D2*
G1X401Y-4901D1*
G1X366Y-4808D1*
G1X309Y-4726D1*
G1X235Y-4660D1*
G1X147Y-4614D1*
G1X50Y-4590D1*
G1X-50Y-4590D1*
G1X-147Y-4614D1*
G1X-235Y-4660D1*
G1X-309Y-4726D1*
G1X-366Y-4808D1*
G1X-401Y-4901D1*
G1X-413Y-5000D1*
G1X-401Y-5099D1*
G1X-366Y-5192D1*
G1X-309Y-5274D1*
G1X-235Y-5340D1*
G1X-147Y-5387D1*
G1X-50Y-5410D1*
G1X50Y-5410D1*
G1X147Y-5387D1*
G1X235Y-5340D1*
G1X309Y-5274D1*
G1X366Y-5192D1*
G1X401Y-5099D1*
G1X413Y-5000D1*
G1X413Y-6000D2*
G1X401Y-5901D1*
G1X366Y-5808D1*
G1X309Y-5726D1*
G1X235Y-5660D1*
G1X147Y-5614D1*
G1X50Y-5590D1*
G1X-50Y-5590D1*
G1X-147Y-5614D1*
G1X-235Y-5660D1*
G1X-309Y-5726D1*
G1X-366Y-5808D1*
G1X-401Y-5901D1*
G1X-413Y-6000D1*
G1X-401Y-6099D1*
G1X-366Y-6192D1*
G1X-309Y-6274D1*
G1X-235Y-6340D1*
G1X-147Y-6387D1*
G1X-50Y-6410D1*
G1X50Y-6410D1*
G1X147Y-6387D1*
G1X235Y-6340D1*
G1X309Y-6274D1*
G1X366Y-6192D1*
G1X401Y-6099D1*
G1X413Y-6000D1*
G1X6235Y5255D2*
G1X6331Y5255D1*
G1X6318Y5064D2*
G1X6318Y5418D1*
G1X6154Y5333D2*
G1X6331Y5333D1*
G1X6197Y4703D2*
G1X6331Y4703D1*
G1X6252Y4231D2*
G1X6331Y4231D1*
G1X6183Y4310D2*
G1X6331Y4310D1*
G1X6239Y5249D2*
G1X6239Y5418D1*
G1X6318Y4064D2*
G1X6318Y4936D1*
G1X6160Y5329D2*
G1X6160Y5418D1*
G1X6239Y4249D2*
G1X6239Y4751D1*
G1X6245Y3759D2*
G1X6331Y3759D1*
G1X6160Y4329D2*
G1X6160Y4672D1*
G1X6171Y3680D2*
G1X6331Y3680D1*
G1X6318Y3064D2*
G1X6318Y3936D1*
G1X6104Y3365D2*
G1X6331Y3365D1*
G1X6208Y3286D2*
G1X6331Y3286D1*
G1X6227Y2735D2*
G1X6331Y2735D1*
G1X6139Y2656D2*
G1X6331Y2656D1*
G1X6239Y3249D2*
G1X6239Y3751D1*
G1X6318Y2064D2*
G1X6318Y2936D1*
G1X6160Y3329D2*
G1X6160Y3672D1*
G1X6160Y2329D2*
G1X6160Y2672D1*
G1X6239Y2249D2*
G1X6239Y2751D1*
G1X6143Y2341D2*
G1X6331Y2341D1*
G1X5942Y5412D2*
G1X6331Y5412D1*
G1X6083Y4625D2*
G1X6331Y4625D1*
G1X6051Y4388D2*
G1X6331Y4388D1*
G1X6018Y3601D2*
G1X6331Y3601D1*
G1X6003Y4403D2*
G1X6003Y4597D1*
G1X6082Y4376D2*
G1X6082Y4624D1*
G1X5767Y4388D2*
G1X5767Y4612D1*
G1X5924Y4413D2*
G1X5924Y4587D1*
G1X6003Y3403D2*
G1X6003Y3597D1*
G1X5845Y4408D2*
G1X5845Y4592D1*
G1X5924Y3413D2*
G1X5924Y3587D1*
G1X6082Y3376D2*
G1X6082Y3624D1*
G1X6003Y2403D2*
G1X6003Y2597D1*
G1X6082Y2376D2*
G1X6082Y2624D1*
G1X5845Y3408D2*
G1X5845Y3592D1*
G1X5767Y3388D2*
G1X5767Y3612D1*
G1X5767Y2388D2*
G1X5767Y2612D1*
G1X5924Y2413D2*
G1X5924Y2587D1*
G1X5845Y2408D2*
G1X5845Y2592D1*
G1X6229Y2263D2*
G1X6331Y2263D1*
G1X6205Y1711D2*
G1X6331Y1711D1*
G1X6099Y1633D2*
G1X6331Y1633D1*
G1X6174Y1318D2*
G1X6331Y1318D1*
G1X6247Y1239D2*
G1X6331Y1239D1*
G1X6027Y1396D2*
G1X6331Y1396D1*
G1X6239Y1249D2*
G1X6239Y1751D1*
G1X6318Y1064D2*
G1X6318Y1936D1*
G1X6160Y1329D2*
G1X6160Y1672D1*
G1X6082Y1376D2*
G1X6082Y1624D1*
G1X6250Y766D2*
G1X6331Y766D1*
G1X6003Y1403D2*
G1X6003Y1597D1*
G1X6180Y688D2*
G1X6331Y688D1*
G1X6318Y64D2*
G1X6318Y936D1*
G1X6043Y609D2*
G1X6331Y609D1*
G1X6200Y294D2*
G1X6331Y294D1*
G1X6233Y-257D2*
G1X6331Y-257D1*
G1X6088Y373D2*
G1X6331Y373D1*
G1X6160Y329D2*
G1X6160Y672D1*
G1X6239Y249D2*
G1X6239Y751D1*
G1X6082Y376D2*
G1X6082Y624D1*
G1X6150Y-336D2*
G1X6331Y-336D1*
G1X6082Y-624D2*
G1X6082Y-376D1*
G1X6003Y403D2*
G1X6003Y597D1*
G1X4878Y1554D2*
G1X6331Y1554D1*
G1X4799Y1475D2*
G1X6331Y1475D1*
G1X5404Y530D2*
G1X6331Y530D1*
G1X5924Y1413D2*
G1X5924Y1587D1*
G1X5845Y1408D2*
G1X5845Y1592D1*
G1X5767Y1388D2*
G1X5767Y1612D1*
G1X5483Y609D2*
G1X5775Y609D1*
G1X5385Y451D2*
G1X6331Y451D1*
G1X4748Y1396D2*
G1X5792Y1396D1*
G1X5924Y413D2*
G1X5924Y587D1*
G1X5168Y-415D2*
G1X6331Y-415D1*
G1X5089Y-493D2*
G1X6331Y-493D1*
G1X6003Y-597D2*
G1X6003Y-403D1*
G1X5011Y-572D2*
G1X6331Y-572D1*
G1X5845Y408D2*
G1X5845Y592D1*
G1X5767Y388D2*
G1X5767Y612D1*
G1X5385Y373D2*
G1X5731Y373D1*
G1X5924Y-587D2*
G1X5924Y-413D1*
G1X5845Y-592D2*
G1X5845Y-408D1*
G1X5609Y5284D2*
G1X5609Y5418D1*
G1X5688Y4349D2*
G1X5688Y4651D1*
G1X5609Y4284D2*
G1X5609Y4716D1*
G1X5688Y3349D2*
G1X5688Y3651D1*
G1X5688Y2349D2*
G1X5688Y2651D1*
G1X5609Y3284D2*
G1X5609Y3716D1*
G1X5530Y5165D2*
G1X5530Y5418D1*
G1X5530Y4165D2*
G1X5530Y4835D1*
G1X5452Y2168D2*
G1X5452Y5418D1*
G1X5530Y3165D2*
G1X5530Y3835D1*
G1X5609Y2284D2*
G1X5609Y2716D1*
G1X5530Y2168D2*
G1X5530Y2835D1*
G1X5373Y2168D2*
G1X5373Y5418D1*
G1X5530Y1165D2*
G1X5530Y1832D1*
G1X5156Y1832D2*
G1X5532Y1832D1*
G1X5688Y1349D2*
G1X5688Y1651D1*
G1X5609Y1284D2*
G1X5609Y1716D1*
G1X5452Y1053D2*
G1X5452Y1832D1*
G1X5294Y2168D2*
G1X5294Y5418D1*
G1X5215Y2168D2*
G1X5215Y5418D1*
G1X5137Y2168D2*
G1X5137Y5418D1*
G1X5373Y975D2*
G1X5373Y1832D1*
G1X5294Y896D2*
G1X5294Y1832D1*
G1X5215Y817D2*
G1X5215Y1832D1*
G1X5086Y2168D2*
G1X5532Y2168D1*
G1X5058Y2166D2*
G1X5058Y5418D1*
G1X5114Y1790D2*
G1X5553Y1790D1*
G1X5035Y1711D2*
G1X5614Y1711D1*
G1X4979Y2130D2*
G1X4979Y5418D1*
G1X4901Y2052D2*
G1X4901Y5418D1*
G1X4822Y1973D2*
G1X4822Y5418D1*
G1X4743Y1895D2*
G1X4743Y5418D1*
G1X4664Y1816D2*
G1X4664Y5418D1*
G1X4586Y1737D2*
G1X4586Y5418D1*
G1X4748Y1424D2*
G1X5156Y1832D1*
G1X5137Y738D2*
G1X5137Y1813D1*
G1X4461Y1613D2*
G1X4967Y2119D1*
G1X5058Y636D2*
G1X5058Y1734D1*
G1X4979Y-128D2*
G1X4979Y1655D1*
G1X4956Y1633D2*
G1X5720Y1633D1*
G1X4507Y1658D2*
G1X4507Y5418D1*
G1X4428Y1566D2*
G1X4428Y5418D1*
G1X4349Y679D2*
G1X4349Y5418D1*
G1X5688Y349D2*
G1X5688Y651D1*
G1X5609Y284D2*
G1X5609Y716D1*
G1X5385Y511D2*
G1X5600Y726D1*
G1X5385Y294D2*
G1X5619Y294D1*
G1X5530Y165D2*
G1X5530Y657D1*
G1X5385Y215D2*
G1X5556Y215D1*
G1X5098Y699D2*
G1X5512Y1113D1*
G1X4822Y648D2*
G1X4822Y1498D1*
G1X5385Y137D2*
G1X5519Y137D1*
G1X4829Y609D2*
G1X5051Y609D1*
G1X5385Y58D2*
G1X5500Y58D1*
G1X5385Y-21D2*
G1X5497Y-21D1*
G1X5385Y-100D2*
G1X5508Y-100D1*
G1X5377Y-179D2*
G1X5537Y-179D1*
G1X5326Y-257D2*
G1X5586Y-257D1*
G1X5247Y-336D2*
G1X5669Y-336D1*
G1X5048Y-59D2*
G1X5048Y580D1*
G1X5385Y-129D2*
G1X5385Y511D1*
G1X4901Y-207D2*
G1X4901Y1577D1*
G1X4748Y1318D2*
G1X5645Y1318D1*
G1X4748Y1239D2*
G1X5572Y1239D1*
G1X4748Y1160D2*
G1X5528Y1160D1*
G1X4748Y1081D2*
G1X5480Y1081D1*
G1X4748Y1003D2*
G1X5401Y1003D1*
G1X4748Y924D2*
G1X5322Y924D1*
G1X4748Y845D2*
G1X5244Y845D1*
G1X4748Y767D2*
G1X4748Y1424D1*
G1X4412Y767D2*
G1X4412Y1494D1*
G1X4748Y766D2*
G1X5165Y766D1*
G1X4807Y688D2*
G1X5087Y688D1*
G1X4826Y530D2*
G1X5048Y530D1*
G1X4822Y-286D2*
G1X4822Y513D1*
G1X4795Y451D2*
G1X5048Y451D1*
G1X4721Y373D2*
G1X5048Y373D1*
G1X4623Y-485D2*
G1X5048Y-59D1*
G1X4743Y-364D2*
G1X4743Y389D1*
G1X4664Y-443D2*
G1X4664Y344D1*
G1X4428Y-543D2*
G1X4428Y381D1*
G1X4586Y-483D2*
G1X4586Y329D1*
G1X4507Y-499D2*
G1X4507Y340D1*
G1X6222Y-730D2*
G1X6331Y-730D1*
G1X6318Y-936D2*
G1X6318Y-64D1*
G1X6131Y-651D2*
G1X6331Y-651D1*
G1X6213Y-1281D2*
G1X6331Y-1281D1*
G1X6164Y-1675D2*
G1X6331Y-1675D1*
G1X6113Y-1360D2*
G1X6331Y-1360D1*
G1X6239Y-751D2*
G1X6239Y-249D1*
G1X6239Y-1751D2*
G1X6239Y-1249D1*
G1X6160Y-672D2*
G1X6160Y-329D1*
G1X6160Y-1672D2*
G1X6160Y-1329D1*
G1X6241Y-1753D2*
G1X6331Y-1753D1*
G1X6082Y-1624D2*
G1X6082Y-1376D1*
G1X6318Y-1936D2*
G1X6318Y-1064D1*
G1X6318Y-2936D2*
G1X6318Y-2064D1*
G1X6189Y-2305D2*
G1X6331Y-2305D1*
G1X6192Y-2698D2*
G1X6331Y-2698D1*
G1X6239Y-3249D2*
G1X6331Y-3249D1*
G1X6161Y-3328D2*
G1X6331Y-3328D1*
G1X6239Y-2751D2*
G1X6239Y-2249D1*
G1X6331Y-6422D2*
G1X6331Y5418D1*
G1X6160Y-2672D2*
G1X6160Y-2329D1*
G1X6239Y-3751D2*
G1X6239Y-3249D1*
G1X6318Y-3936D2*
G1X6318Y-3064D1*
G1X6160Y-3672D2*
G1X6160Y-3329D1*
G1X6003Y-1597D2*
G1X6003Y-1403D1*
G1X5924Y-1587D2*
G1X5924Y-1413D1*
G1X5996Y-1596D2*
G1X6331Y-1596D1*
G1X6064Y-2383D2*
G1X6331Y-2383D1*
G1X5767Y-612D2*
G1X5767Y-388D1*
G1X5688Y-651D2*
G1X5688Y-349D1*
G1X4932Y-651D2*
G1X5688Y-651D1*
G1X5845Y-1592D2*
G1X5845Y-1408D1*
G1X5767Y-1612D2*
G1X5767Y-1388D1*
G1X5688Y-1651D2*
G1X5688Y-1349D1*
G1X6003Y-2597D2*
G1X6003Y-2403D1*
G1X6082Y-2624D2*
G1X6082Y-2376D1*
G1X6071Y-2619D2*
G1X6331Y-2619D1*
G1X6082Y-3624D2*
G1X6082Y-3376D1*
G1X5983Y-3407D2*
G1X6331Y-3407D1*
G1X5924Y-2587D2*
G1X5924Y-2413D1*
G1X5845Y-2592D2*
G1X5845Y-2408D1*
G1X5767Y-2612D2*
G1X5767Y-2388D1*
G1X6003Y-3597D2*
G1X6003Y-3403D1*
G1X5767Y-3612D2*
G1X5767Y-3388D1*
G1X6215Y-3722D2*
G1X6331Y-3722D1*
G1X6220Y-4273D2*
G1X6331Y-4273D1*
G1X6118Y-3643D2*
G1X6331Y-3643D1*
G1X6154Y-4667D2*
G1X6331Y-4667D1*
G1X6235Y-4745D2*
G1X6331Y-4745D1*
G1X6127Y-4352D2*
G1X6331Y-4352D1*
G1X6239Y-4751D2*
G1X6239Y-4249D1*
G1X6318Y-4936D2*
G1X6318Y-4064D1*
G1X6160Y-4672D2*
G1X6160Y-4329D1*
G1X6082Y-4624D2*
G1X6082Y-4376D1*
G1X6197Y-5297D2*
G1X6331Y-5297D1*
G1X6083Y-5375D2*
G1X6331Y-5375D1*
G1X6183Y-5690D2*
G1X6331Y-5690D1*
G1X6318Y-5936D2*
G1X6318Y-5064D1*
G1X6051Y-5612D2*
G1X6331Y-5612D1*
G1X6252Y-5769D2*
G1X6331Y-5769D1*
G1X6245Y-6242D2*
G1X6331Y-6242D1*
G1X6171Y-6320D2*
G1X6331Y-6320D1*
G1X6160Y-5672D2*
G1X6160Y-5329D1*
G1X6239Y-5751D2*
G1X6239Y-5249D1*
G1X6082Y-5624D2*
G1X6082Y-5376D1*
G1X6318Y-6422D2*
G1X6318Y-6064D1*
G1X6239Y-6422D2*
G1X6239Y-6249D1*
G1X6160Y-6422D2*
G1X6160Y-6329D1*
G1X5924Y-3587D2*
G1X5924Y-3413D1*
G1X6003Y-4597D2*
G1X6003Y-4403D1*
G1X5942Y-4588D2*
G1X6331Y-4588D1*
G1X4127Y-4509D2*
G1X6331Y-4509D1*
G1X5845Y-3592D2*
G1X5845Y-3408D1*
G1X5924Y-4587D2*
G1X5924Y-4413D1*
G1X4195Y-4352D2*
G1X5692Y-4352D1*
G1X5845Y-4592D2*
G1X5845Y-4408D1*
G1X5767Y-4612D2*
G1X5767Y-4388D1*
G1X4087Y-4588D2*
G1X5877Y-4588D1*
G1X6003Y-5597D2*
G1X6003Y-5403D1*
G1X5924Y-5587D2*
G1X5924Y-5413D1*
G1X6018Y-6399D2*
G1X6331Y-6399D1*
G1X5845Y-5592D2*
G1X5845Y-5408D1*
G1X5767Y-5612D2*
G1X5767Y-5388D1*
G1X5609Y-716D2*
G1X5609Y-284D1*
G1X5530Y-835D2*
G1X5530Y-165D1*
G1X4855Y-808D2*
G1X5543Y-808D1*
G1X5609Y-1716D2*
G1X5609Y-1284D1*
G1X5609Y-2716D2*
G1X5609Y-2284D1*
G1X5530Y-1835D2*
G1X5530Y-1165D1*
G1X5452Y-3832D2*
G1X5452Y578D1*
G1X5373Y-3832D2*
G1X5373Y-190D1*
G1X4860Y-722D2*
G1X5335Y-247D1*
G1X4823Y-887D2*
G1X5512Y-887D1*
G1X5530Y-2835D2*
G1X5530Y-2165D1*
G1X4750Y-966D2*
G1X5497Y-966D1*
G1X5294Y-3832D2*
G1X5294Y-289D1*
G1X5215Y-3832D2*
G1X5215Y-367D1*
G1X5137Y-3832D2*
G1X5137Y-446D1*
G1X5058Y-3832D2*
G1X5058Y-525D1*
G1X4979Y-3832D2*
G1X4979Y-604D1*
G1X4901Y-3832D2*
G1X4901Y-682D1*
G1X4822Y-3832D2*
G1X4822Y-889D1*
G1X4743Y-3832D2*
G1X4743Y-970D1*
G1X4428Y-3832D2*
G1X4428Y-955D1*
G1X4664Y-3832D2*
G1X4664Y-1006D1*
G1X4586Y-3832D2*
G1X4586Y-1015D1*
G1X4507Y-3832D2*
G1X4507Y-999D1*
G1X4271Y-3836D2*
G1X4271Y5418D1*
G1X4192Y-3879D2*
G1X4192Y5418D1*
G1X4113Y-3958D2*
G1X4113Y5418D1*
G1X4349Y-650D2*
G1X4349Y481D1*
G1X4349Y-3832D2*
G1X4349Y-848D1*
G1X4034Y-4037D2*
G1X4034Y5418D1*
G1X3956Y-4115D2*
G1X3956Y5418D1*
G1X3877Y-4170D2*
G1X3877Y5418D1*
G1X3798Y-4182D2*
G1X3798Y5418D1*
G1X3719Y-4223D2*
G1X3719Y5418D1*
G1X3641Y-4319D2*
G1X3641Y5418D1*
G1X3562Y-6422D2*
G1X3562Y5418D1*
G1X3483Y-6422D2*
G1X3483Y5418D1*
G1X3404Y-6422D2*
G1X3404Y5418D1*
G1X3326Y-6422D2*
G1X3326Y5418D1*
G1X3247Y-6422D2*
G1X3247Y5418D1*
G1X3168Y-6422D2*
G1X3168Y5418D1*
G1X3089Y-6422D2*
G1X3089Y5418D1*
G1X3011Y-6422D2*
G1X3011Y5418D1*
G1X2932Y-6422D2*
G1X2932Y5418D1*
G1X2853Y-6422D2*
G1X2853Y5418D1*
G1X2775Y-6422D2*
G1X2775Y5418D1*
G1X5688Y-2651D2*
G1X5688Y-2349D1*
G1X5688Y-3651D2*
G1X5688Y-3349D1*
G1X5609Y-3716D2*
G1X5609Y-3284D1*
G1X5688Y-4651D2*
G1X5688Y-4349D1*
G1X5688Y-5651D2*
G1X5688Y-5349D1*
G1X5609Y-4716D2*
G1X5609Y-4284D1*
G1X5530Y-3832D2*
G1X5530Y-3165D1*
G1X5530Y-4835D2*
G1X5530Y-4168D1*
G1X5530Y-5835D2*
G1X5530Y-5165D1*
G1X5609Y-5716D2*
G1X5609Y-5284D1*
G1X5609Y-6422D2*
G1X5609Y-6284D1*
G1X5530Y-6422D2*
G1X5530Y-6165D1*
G1X5452Y-6422D2*
G1X5452Y-4168D1*
G1X5373Y-6422D2*
G1X5373Y-4168D1*
G1X5294Y-6422D2*
G1X5294Y-4168D1*
G1X5215Y-6422D2*
G1X5215Y-4168D1*
G1X5137Y-6422D2*
G1X5137Y-4168D1*
G1X5058Y-6422D2*
G1X5058Y-4168D1*
G1X4979Y-6422D2*
G1X4979Y-4168D1*
G1X4901Y-6422D2*
G1X4901Y-4168D1*
G1X4822Y-6422D2*
G1X4822Y-4168D1*
G1X4743Y-6422D2*
G1X4743Y-4168D1*
G1X4664Y-6422D2*
G1X4664Y-4168D1*
G1X4378Y-4168D2*
G1X5532Y-4168D1*
G1X4586Y-6422D2*
G1X4586Y-4168D1*
G1X4309Y-3832D2*
G1X5532Y-3832D1*
G1X4352Y-4194D2*
G1X5544Y-4194D1*
G1X4273Y-4273D2*
G1X5599Y-4273D1*
G1X3992Y-4667D2*
G1X5665Y-4667D1*
G1X3900Y-4171D2*
G1X4190Y-3881D1*
G1X4138Y-4408D2*
G1X4378Y-4168D1*
G1X4507Y-6422D2*
G1X4507Y-4168D1*
G1X4428Y-6422D2*
G1X4428Y-4168D1*
G1X4349Y-6422D2*
G1X4349Y-4197D1*
G1X4271Y-6422D2*
G1X4271Y-4276D1*
G1X4192Y-6422D2*
G1X4192Y-4355D1*
G1X4113Y-6422D2*
G1X4113Y-4545D1*
G1X4034Y-6422D2*
G1X4034Y-4641D1*
G1X3956Y-6422D2*
G1X3956Y-4681D1*
G1X3719Y-6422D2*
G1X3719Y-4640D1*
G1X3641Y-6422D2*
G1X3641Y-4544D1*
G1X3877Y-6422D2*
G1X3877Y-4693D1*
G1X3798Y-6422D2*
G1X3798Y-4681D1*
G1X413Y5412D2*
G1X5876Y5412D1*
G1X413Y5333D2*
G1X5665Y5333D1*
G1X413Y5255D2*
G1X5584Y5255D1*
G1X413Y5176D2*
G1X5535Y5176D1*
G1X413Y4703D2*
G1X5621Y4703D1*
G1X413Y4625D2*
G1X5736Y4625D1*
G1X413Y5097D2*
G1X5508Y5097D1*
G1X413Y4587D2*
G1X413Y5413D1*
G1X413Y5018D2*
G1X5496Y5018D1*
G1X413Y4940D2*
G1X5500Y4940D1*
G1X413Y4861D2*
G1X5520Y4861D1*
G1X413Y4782D2*
G1X5558Y4782D1*
G1X407Y4074D2*
G1X5503Y4074D1*
G1X413Y3995D2*
G1X5496Y3995D1*
G1X384Y4152D2*
G1X5525Y4152D1*
G1X405Y3916D2*
G1X5505Y3916D1*
G1X380Y3837D2*
G1X5529Y3837D1*
G1X369Y2814D2*
G1X5540Y2814D1*
G1X412Y4030D2*
G1X412Y4587D1*
G1X412Y3030D2*
G1X412Y3970D1*
G1X393Y3129D2*
G1X5517Y3129D1*
G1X410Y3050D2*
G1X5499Y3050D1*
G1X412Y2971D2*
G1X5497Y2971D1*
G1X399Y2892D2*
G1X5510Y2892D1*
G1X-417Y5418D2*
G1X6331Y5418D1*
G1X-417Y4546D2*
G1X6331Y4546D1*
G1X-417Y4467D2*
G1X6331Y4467D1*
G1X141Y4388D2*
G1X5768Y4388D1*
G1X274Y4310D2*
G1X5636Y4310D1*
G1X108Y3601D2*
G1X5801Y3601D1*
G1X-413Y5413D2*
G1X413Y5413D1*
G1X-413Y4587D2*
G1X413Y4587D1*
G1X343Y4231D2*
G1X5567Y4231D1*
G1X336Y3759D2*
G1X5574Y3759D1*
G1X261Y3680D2*
G1X5648Y3680D1*
G1X-417Y3522D2*
G1X6331Y3522D1*
G1X194Y3365D2*
G1X5715Y3365D1*
G1X-417Y3444D2*
G1X6331Y3444D1*
G1X-417Y2577D2*
G1X6331Y2577D1*
G1X-417Y2499D2*
G1X6331Y2499D1*
G1X-417Y2420D2*
G1X6331Y2420D1*
G1X298Y3286D2*
G1X5611Y3286D1*
G1X358Y3207D2*
G1X5552Y3207D1*
G1X317Y2735D2*
G1X5592Y2735D1*
G1X230Y2656D2*
G1X5680Y2656D1*
G1X400Y2105D2*
G1X4953Y2105D1*
G1X413Y2026D2*
G1X4875Y2026D1*
G1X370Y2184D2*
G1X5539Y2184D1*
G1X410Y1948D2*
G1X4796Y1948D1*
G1X392Y1869D2*
G1X4717Y1869D1*
G1X356Y1790D2*
G1X4638Y1790D1*
G1X381Y1160D2*
G1X4412Y1160D1*
G1X405Y1081D2*
G1X4412Y1081D1*
G1X337Y1239D2*
G1X4412Y1239D1*
G1X413Y1003D2*
G1X4412Y1003D1*
G1X406Y924D2*
G1X4412Y924D1*
G1X383Y845D2*
G1X4412Y845D1*
G1X390Y137D2*
G1X5048Y137D1*
G1X409Y58D2*
G1X5048Y58D1*
G1X353Y215D2*
G1X5048Y215D1*
G1X413Y-21D2*
G1X5048Y-21D1*
G1X411Y-1045D2*
G1X5498Y-1045D1*
G1X395Y-1123D2*
G1X5515Y-1123D1*
G1X401Y-100D2*
G1X5008Y-100D1*
G1X373Y-179D2*
G1X4929Y-179D1*
G1X341Y766D2*
G1X4412Y766D1*
G1X398Y-887D2*
G1X4369Y-887D1*
G1X412Y-966D2*
G1X4443Y-966D1*
G1X366Y-808D2*
G1X4337Y-808D1*
G1X319Y2263D2*
G1X5590Y2263D1*
G1X296Y1711D2*
G1X4560Y1711D1*
G1X233Y2341D2*
G1X5676Y2341D1*
G1X189Y1633D2*
G1X4481Y1633D1*
G1X-417Y1554D2*
G1X4423Y1554D1*
G1X-417Y1475D2*
G1X4412Y1475D1*
G1X265Y1318D2*
G1X4412Y1318D1*
G1X271Y688D2*
G1X4353Y688D1*
G1X118Y1396D2*
G1X4412Y1396D1*
G1X134Y609D2*
G1X4331Y609D1*
G1X-417Y530D2*
G1X4334Y530D1*
G1X-417Y451D2*
G1X4365Y451D1*
G1X291Y294D2*
G1X5048Y294D1*
G1X324Y-257D2*
G1X4850Y-257D1*
G1X241Y-336D2*
G1X4771Y-336D1*
G1X361Y-1202D2*
G1X5549Y-1202D1*
G1X303Y-1281D2*
G1X5606Y-1281D1*
G1X-417Y-415D2*
G1X4693Y-415D1*
G1X179Y373D2*
G1X4439Y373D1*
G1X-417Y-493D2*
G1X4523Y-493D1*
G1X-417Y-572D2*
G1X4398Y-572D1*
G1X313Y-730D2*
G1X4331Y-730D1*
G1X221Y-651D2*
G1X4349Y-651D1*
G1X255Y4326D2*
G1X255Y4587D1*
G1X334Y4244D2*
G1X334Y4587D1*
G1X176Y4374D2*
G1X176Y4587D1*
G1X97Y4402D2*
G1X97Y4587D1*
G1X176Y3374D2*
G1X176Y3626D1*
G1X97Y3402D2*
G1X97Y3598D1*
G1X19Y4413D2*
G1X19Y4587D1*
G1X-60Y4409D2*
G1X-60Y4587D1*
G1X-139Y4389D2*
G1X-139Y4587D1*
G1X19Y3413D2*
G1X19Y3587D1*
G1X-60Y3409D2*
G1X-60Y3591D1*
G1X-139Y3389D2*
G1X-139Y3611D1*
G1X334Y3244D2*
G1X334Y3756D1*
G1X412Y2030D2*
G1X412Y2970D1*
G1X255Y3326D2*
G1X255Y3675D1*
G1X334Y2244D2*
G1X334Y2756D1*
G1X412Y1030D2*
G1X412Y1970D1*
G1X334Y1244D2*
G1X334Y1756D1*
G1X176Y2374D2*
G1X176Y2626D1*
G1X255Y2326D2*
G1X255Y2675D1*
G1X97Y2402D2*
G1X97Y2598D1*
G1X19Y2413D2*
G1X19Y2587D1*
G1X-60Y2409D2*
G1X-60Y2591D1*
G1X-139Y2389D2*
G1X-139Y2611D1*
G1X-417Y4388D2*
G1X-141Y4388D1*
G1X-218Y4352D2*
G1X-218Y4587D1*
G1X-417Y4310D2*
G1X-274Y4310D1*
G1X-417Y3601D2*
G1X-108Y3601D1*
G1X-218Y3352D2*
G1X-218Y3649D1*
G1X-417Y3365D2*
G1X-194Y3365D1*
G1X-296Y4288D2*
G1X-296Y4587D1*
G1X-375Y4174D2*
G1X-375Y4587D1*
G1X-413Y4587D2*
G1X-413Y5413D1*
G1X-417Y3759D2*
G1X-336Y3759D1*
G1X-296Y3288D2*
G1X-296Y3712D1*
G1X-417Y3680D2*
G1X-261Y3680D1*
G1X-417Y3286D2*
G1X-298Y3286D1*
G1X-296Y2288D2*
G1X-296Y2712D1*
G1X-417Y2656D2*
G1X-230Y2656D1*
G1X-218Y2352D2*
G1X-218Y2649D1*
G1X-417Y2341D2*
G1X-233Y2341D1*
G1X-375Y3174D2*
G1X-375Y3826D1*
G1X-375Y2174D2*
G1X-375Y2826D1*
G1X-417Y2735D2*
G1X-317Y2735D1*
G1X-375Y1174D2*
G1X-375Y1826D1*
G1X-417Y2263D2*
G1X-319Y2263D1*
G1X176Y1374D2*
G1X176Y1626D1*
G1X255Y1326D2*
G1X255Y1675D1*
G1X97Y1402D2*
G1X97Y1598D1*
G1X97Y402D2*
G1X97Y598D1*
G1X176Y374D2*
G1X176Y626D1*
G1X19Y1413D2*
G1X19Y1587D1*
G1X-60Y1409D2*
G1X-60Y1591D1*
G1X-139Y1389D2*
G1X-139Y1611D1*
G1X-218Y1351D2*
G1X-218Y1649D1*
G1X19Y413D2*
G1X19Y587D1*
G1X-60Y409D2*
G1X-60Y591D1*
G1X-139Y389D2*
G1X-139Y611D1*
G1X334Y244D2*
G1X334Y756D1*
G1X412Y30D2*
G1X412Y970D1*
G1X255Y326D2*
G1X255Y675D1*
G1X334Y-756D2*
G1X334Y-244D1*
G1X412Y-970D2*
G1X412Y-30D1*
G1X255Y-675D2*
G1X255Y-326D1*
G1X97Y-598D2*
G1X97Y-402D1*
G1X176Y-626D2*
G1X176Y-374D1*
G1X19Y-587D2*
G1X19Y-413D1*
G1X-60Y-591D2*
G1X-60Y-409D1*
G1X-139Y-611D2*
G1X-139Y-389D1*
G1X-417Y1633D2*
G1X-189Y1633D1*
G1X-417Y1396D2*
G1X-118Y1396D1*
G1X-417Y609D2*
G1X-134Y609D1*
G1X-218Y351D2*
G1X-218Y649D1*
G1X-417Y373D2*
G1X-179Y373D1*
G1X-417Y1711D2*
G1X-296Y1711D1*
G1X-296Y1288D2*
G1X-296Y1712D1*
G1X-417Y1318D2*
G1X-265Y1318D1*
G1X-417Y1239D2*
G1X-337Y1239D1*
G1X-296Y288D2*
G1X-296Y712D1*
G1X-417Y688D2*
G1X-271Y688D1*
G1X-296Y-712D2*
G1X-296Y-288D1*
G1X-417Y294D2*
G1X-291Y294D1*
G1X-417Y-336D2*
G1X-241Y-336D1*
G1X-218Y-649D2*
G1X-218Y-351D1*
G1X-417Y-651D2*
G1X-221Y-651D1*
G1X-375Y174D2*
G1X-375Y826D1*
G1X-375Y-826D2*
G1X-375Y-174D1*
G1X-417Y-257D2*
G1X-324Y-257D1*
G1X-417Y-730D2*
G1X-313Y-730D1*
G1X-417Y-1281D2*
G1X-303Y-1281D1*
G1X2696Y-6422D2*
G1X2696Y5418D1*
G1X2617Y-6422D2*
G1X2617Y5418D1*
G1X2538Y-6422D2*
G1X2538Y5418D1*
G1X2460Y-6422D2*
G1X2460Y5418D1*
G1X2381Y-6422D2*
G1X2381Y5418D1*
G1X2302Y-6422D2*
G1X2302Y5418D1*
G1X2223Y-6422D2*
G1X2223Y5418D1*
G1X2145Y-6422D2*
G1X2145Y5418D1*
G1X2066Y-6422D2*
G1X2066Y5418D1*
G1X1987Y-6422D2*
G1X1987Y5418D1*
G1X1908Y-6422D2*
G1X1908Y5418D1*
G1X1830Y-6422D2*
G1X1830Y5418D1*
G1X1751Y-6422D2*
G1X1751Y5418D1*
G1X1672Y-6422D2*
G1X1672Y5418D1*
G1X1593Y-6422D2*
G1X1593Y5418D1*
G1X1515Y-6422D2*
G1X1515Y5418D1*
G1X1436Y-6422D2*
G1X1436Y5418D1*
G1X1357Y-6422D2*
G1X1357Y5418D1*
G1X1278Y-6422D2*
G1X1278Y5418D1*
G1X1200Y-6422D2*
G1X1200Y5418D1*
G1X1121Y-6422D2*
G1X1121Y5418D1*
G1X1042Y-6422D2*
G1X1042Y5418D1*
G1X964Y-6422D2*
G1X964Y5418D1*
G1X885Y-6422D2*
G1X885Y5418D1*
G1X204Y-1360D2*
G1X5705Y-1360D1*
G1X-417Y-1438D2*
G1X6331Y-1438D1*
G1X-417Y-1517D2*
G1X6331Y-1517D1*
G1X255Y-1675D2*
G1X5655Y-1675D1*
G1X332Y-1753D2*
G1X5578Y-1753D1*
G1X87Y-1596D2*
G1X5823Y-1596D1*
G1X404Y-1911D2*
G1X5506Y-1911D1*
G1X413Y-1990D2*
G1X5496Y-1990D1*
G1X378Y-1832D2*
G1X5532Y-1832D1*
G1X408Y-2068D2*
G1X5502Y-2068D1*
G1X386Y-2147D2*
G1X5523Y-2147D1*
G1X346Y-2226D2*
G1X5563Y-2226D1*
G1X280Y-2305D2*
G1X5630Y-2305D1*
G1X155Y-2383D2*
G1X5754Y-2383D1*
G1X-417Y-2462D2*
G1X6331Y-2462D1*
G1X161Y-2619D2*
G1X5748Y-2619D1*
G1X283Y-2698D2*
G1X5627Y-2698D1*
G1X-417Y-2541D2*
G1X6331Y-2541D1*
G1X806Y-6422D2*
G1X806Y5418D1*
G1X727Y-6422D2*
G1X727Y5418D1*
G1X649Y-6422D2*
G1X649Y5418D1*
G1X570Y-6422D2*
G1X570Y5418D1*
G1X348Y-2777D2*
G1X5561Y-2777D1*
G1X408Y-2934D2*
G1X5501Y-2934D1*
G1X413Y-3013D2*
G1X5496Y-3013D1*
G1X387Y-2856D2*
G1X5522Y-2856D1*
G1X377Y-3171D2*
G1X5533Y-3171D1*
G1X362Y-3801D2*
G1X5547Y-3801D1*
G1X330Y-3249D2*
G1X5580Y-3249D1*
G1X403Y-3092D2*
G1X5506Y-3092D1*
G1X395Y-3879D2*
G1X4192Y-3879D1*
G1X411Y-3958D2*
G1X4113Y-3958D1*
G1X412Y-4037D2*
G1X4034Y-4037D1*
G1X397Y-4116D2*
G1X3955Y-4116D1*
G1X365Y-4194D2*
G1X3766Y-4194D1*
G1X402Y-4903D2*
G1X5508Y-4903D1*
G1X413Y-4982D2*
G1X5496Y-4982D1*
G1X374Y-4824D2*
G1X5535Y-4824D1*
G1X351Y-5218D2*
G1X5558Y-5218D1*
G1X380Y-6163D2*
G1X5529Y-6163D1*
G1X343Y-5769D2*
G1X5567Y-5769D1*
G1X409Y-5060D2*
G1X5500Y-5060D1*
G1X389Y-5139D2*
G1X5520Y-5139D1*
G1X384Y-5848D2*
G1X5525Y-5848D1*
G1X407Y-5927D2*
G1X5503Y-5927D1*
G1X413Y-6005D2*
G1X5496Y-6005D1*
G1X405Y-6084D2*
G1X5505Y-6084D1*
G1X252Y-3328D2*
G1X5658Y-3328D1*
G1X73Y-3407D2*
G1X5836Y-3407D1*
G1X-417Y-3486D2*
G1X6331Y-3486D1*
G1X209Y-3643D2*
G1X5701Y-3643D1*
G1X306Y-3722D2*
G1X5604Y-3722D1*
G1X-417Y-3564D2*
G1X6331Y-3564D1*
G1X310Y-4273D2*
G1X3669Y-4273D1*
G1X217Y-4352D2*
G1X3628Y-4352D1*
G1X-417Y-4430D2*
G1X3615Y-4430D1*
G1X33Y-4588D2*
G1X3667Y-4588D1*
G1X245Y-4667D2*
G1X3762Y-4667D1*
G1X-417Y-4509D2*
G1X3627Y-4509D1*
G1X173Y-5375D2*
G1X5736Y-5375D1*
G1X-417Y-5454D2*
G1X6331Y-5454D1*
G1X-417Y-5533D2*
G1X6331Y-5533D1*
G1X141Y-5612D2*
G1X5768Y-5612D1*
G1X108Y-6399D2*
G1X5801Y-6399D1*
G1X-417Y-6422D2*
G1X6331Y-6422D1*
G1X326Y-4745D2*
G1X5584Y-4745D1*
G1X288Y-5297D2*
G1X5621Y-5297D1*
G1X274Y-5690D2*
G1X5636Y-5690D1*
G1X336Y-6242D2*
G1X5574Y-6242D1*
G1X262Y-6320D2*
G1X5648Y-6320D1*
G1X334Y-1756D2*
G1X334Y-1244D1*
G1X412Y-1970D2*
G1X412Y-1030D1*
G1X255Y-1675D2*
G1X255Y-1326D1*
G1X176Y-1626D2*
G1X176Y-1374D1*
G1X176Y-2626D2*
G1X176Y-2374D1*
G1X97Y-1598D2*
G1X97Y-1402D1*
G1X19Y-1587D2*
G1X19Y-1413D1*
G1X-60Y-1591D2*
G1X-60Y-1409D1*
G1X-139Y-1611D2*
G1X-139Y-1389D1*
G1X97Y-2598D2*
G1X97Y-2402D1*
G1X19Y-2587D2*
G1X19Y-2413D1*
G1X-60Y-2591D2*
G1X-60Y-2409D1*
G1X412Y-2970D2*
G1X412Y-2030D1*
G1X491Y-6422D2*
G1X491Y5418D1*
G1X334Y-2756D2*
G1X334Y-2244D1*
G1X334Y-3756D2*
G1X334Y-3244D1*
G1X412Y-3970D2*
G1X412Y-3030D1*
G1X255Y-2675D2*
G1X255Y-2326D1*
G1X176Y-3626D2*
G1X176Y-3374D1*
G1X255Y-3675D2*
G1X255Y-3326D1*
G1X-139Y-2611D2*
G1X-139Y-2389D1*
G1X97Y-3598D2*
G1X97Y-3402D1*
G1X19Y-3587D2*
G1X19Y-3413D1*
G1X-139Y-3611D2*
G1X-139Y-3389D1*
G1X-417Y-1360D2*
G1X-204Y-1360D1*
G1X-417Y-1596D2*
G1X-87Y-1596D1*
G1X-417Y-2383D2*
G1X-155Y-2383D1*
G1X-417Y-2619D2*
G1X-161Y-2619D1*
G1X-218Y-1649D2*
G1X-218Y-1351D1*
G1X-296Y-1712D2*
G1X-296Y-1288D1*
G1X-375Y-1826D2*
G1X-375Y-1174D1*
G1X-417Y-1675D2*
G1X-255Y-1675D1*
G1X-417Y-1753D2*
G1X-332Y-1753D1*
G1X-417Y-2305D2*
G1X-280Y-2305D1*
G1X-218Y-2649D2*
G1X-218Y-2352D1*
G1X-296Y-2712D2*
G1X-296Y-2288D1*
G1X-417Y-2698D2*
G1X-283Y-2698D1*
G1X-218Y-3649D2*
G1X-218Y-3352D1*
G1X-417Y-3328D2*
G1X-252Y-3328D1*
G1X-375Y-2826D2*
G1X-375Y-2174D1*
G1X-375Y-3826D2*
G1X-375Y-3174D1*
G1X-417Y-6422D2*
G1X-417Y5418D1*
G1X-296Y-3712D2*
G1X-296Y-3288D1*
G1X-417Y-3249D2*
G1X-330Y-3249D1*
G1X334Y-4756D2*
G1X334Y-4244D1*
G1X412Y-4970D2*
G1X412Y-4030D1*
G1X255Y-4675D2*
G1X255Y-4326D1*
G1X97Y-4598D2*
G1X97Y-4402D1*
G1X176Y-4626D2*
G1X176Y-4374D1*
G1X97Y-5598D2*
G1X97Y-5402D1*
G1X-60Y-3591D2*
G1X-60Y-3409D1*
G1X-218Y-4649D2*
G1X-218Y-4352D1*
G1X-296Y-4712D2*
G1X-296Y-4288D1*
G1X19Y-4587D2*
G1X19Y-4413D1*
G1X-60Y-4591D2*
G1X-60Y-4409D1*
G1X-139Y-4611D2*
G1X-139Y-4389D1*
G1X334Y-5756D2*
G1X334Y-5244D1*
G1X412Y-5970D2*
G1X412Y-5030D1*
G1X255Y-5675D2*
G1X255Y-5326D1*
G1X412Y-6422D2*
G1X412Y-6030D1*
G1X334Y-6422D2*
G1X334Y-6244D1*
G1X255Y-6422D2*
G1X255Y-6326D1*
G1X-139Y-5611D2*
G1X-139Y-5389D1*
G1X176Y-5626D2*
G1X176Y-5374D1*
G1X-218Y-5649D2*
G1X-218Y-5351D1*
G1X19Y-5587D2*
G1X19Y-5413D1*
G1X-60Y-5591D2*
G1X-60Y-5409D1*
G1X-417Y-3407D2*
G1X-73Y-3407D1*
G1X-417Y-3643D2*
G1X-209Y-3643D1*
G1X-417Y-4352D2*
G1X-217Y-4352D1*
G1X-417Y-4588D2*
G1X-33Y-4588D1*
G1X-417Y-5375D2*
G1X-173Y-5375D1*
G1X-417Y-3722D2*
G1X-306Y-3722D1*
G1X-375Y-4826D2*
G1X-375Y-4174D1*
G1X-417Y-4273D2*
G1X-310Y-4273D1*
G1X-417Y-4667D2*
G1X-245Y-4667D1*
G1X-417Y-4745D2*
G1X-326Y-4745D1*
G1X-417Y-5297D2*
G1X-288Y-5297D1*
G1X-417Y-5612D2*
G1X-141Y-5612D1*
G1X-417Y-5690D2*
G1X-274Y-5690D1*
G1X-417Y-6320D2*
G1X-262Y-6320D1*
G1X-417Y-6399D2*
G1X-108Y-6399D1*
G1X-296Y-5712D2*
G1X-296Y-5288D1*
G1X-375Y-5826D2*
G1X-375Y-5174D1*
G1X-375Y-6422D2*
G1X-375Y-6174D1*
G1X-296Y-6422D2*
G1X-296Y-6288D1*
G1X-417Y-6242D2*
G1X-336Y-6242D1*
G1X5909Y-6000D2*
G54D14*
G1X6283Y-6000D1*
G1X5909Y-6000D2*
G1X5909Y-5626D1*
G1X5909Y-6374D2*
G1X5909Y-6000D1*
G1X5535Y-6000D2*
G1X5909Y-6000D1*
G1X5877Y-3968D2*
G1X5909Y-4000D1*
G1X4309Y-4000D2*
G1X5909Y-4000D1*
G1X3877Y-4431D2*
G1X4309Y-4000D1*
G1X5086Y2000D2*
G1X5909Y2000D1*
G1X4580Y580D2*
G1X4580Y1494D1*
G1X5086Y2000D1*
G1X4596Y-749D2*
G1X5217Y-129D1*
G1X5636Y1000D2*
G1X5909Y1000D1*
G1X5217Y580D2*
G1X5636Y1000D1*
G1X5217Y-129D2*
G1X5217Y580D1*
G54D15*
G1X5909Y3000D3*
G1X5909Y0D3*
G1X5909Y-5000D3*
G1X5909Y2000D3*
G1X5909Y1000D3*
G1X5909Y-4000D3*
G1X5909Y-6000D3*
G1X5909Y4000D3*
G1X5909Y5000D3*
G1X5909Y-2000D3*
G1X5909Y-3000D3*
G1X5909Y-1000D3*
G54D16*
G1X0Y-6000D3*
G1X0Y-5000D3*
G1X0Y-4000D3*
G1X0Y-3000D3*
G1X0Y-1000D3*
G1X0Y0D3*
G1X0Y1000D3*
G1X0Y2000D3*
G1X0Y3000D3*
G1X0Y4000D3*
G1X0Y-2000D3*
G54D17*
G1X0Y5000D3*
G54D18*
G1X3877Y-4431D3*
G54D19*
G1X4580Y580D3*
G54D20*
G1X4596Y-749D3*
M2*
