*
%LPD*%
%LNMS 2x2D12 Adapter to DIL24_Rev1.0.GTL*%
%FSLAX24Y24*%
%MOIN*%
%AD*%
%ADD10C,0.00787*%
%ADD11R,0.01181X0.01969*%
%ADD12R,0.01969X0.01181*%
%ADD13R,0.0315X0.05118*%
%ADD14C,0.01*%
%ADD15C,0.05906*%
%ADD16C,0.05906*%
%ADD17R,0.05906X0.05906*%
%ADD18C,0.02874*%
%ADD19C,0.02658*%
%ADD20C,0.02953*%
G54D10*
%SRX1Y1I0.0J0.0*%
G1X6323Y5000D2*
G1X6311Y5099D1*
G1X6275Y5192D1*
G1X6219Y5274D1*
G1X6144Y5340D1*
G1X6056Y5387D1*
G1X5959Y5410D1*
G1X5860Y5410D1*
G1X5763Y5387D1*
G1X5675Y5340D1*
G1X5600Y5274D1*
G1X5543Y5192D1*
G1X5508Y5099D1*
G1X5496Y5000D1*
G1X5508Y4901D1*
G1X5543Y4808D1*
G1X5600Y4726D1*
G1X5675Y4660D1*
G1X5763Y4614D1*
G1X5860Y4590D1*
G1X5959Y4590D1*
G1X6056Y4614D1*
G1X6144Y4660D1*
G1X6219Y4726D1*
G1X6275Y4808D1*
G1X6311Y4901D1*
G1X6323Y5000D1*
G1X6323Y4000D2*
G1X6311Y4099D1*
G1X6275Y4192D1*
G1X6219Y4274D1*
G1X6144Y4340D1*
G1X6056Y4387D1*
G1X5959Y4410D1*
G1X5860Y4410D1*
G1X5763Y4387D1*
G1X5675Y4340D1*
G1X5600Y4274D1*
G1X5543Y4192D1*
G1X5508Y4099D1*
G1X5496Y4000D1*
G1X5508Y3901D1*
G1X5543Y3808D1*
G1X5600Y3726D1*
G1X5675Y3660D1*
G1X5763Y3614D1*
G1X5860Y3590D1*
G1X5959Y3590D1*
G1X6056Y3614D1*
G1X6144Y3660D1*
G1X6219Y3726D1*
G1X6275Y3808D1*
G1X6311Y3901D1*
G1X6323Y4000D1*
G1X5622Y2703D2*
G1X5698Y2645D1*
G1X5786Y2605D1*
G1X5881Y2588D1*
G1X5978Y2592D1*
G1X6071Y2619D1*
G1X6154Y2667D1*
G1X6225Y2733D1*
G1X6278Y2814D1*
G1X6312Y2904D1*
G1X6323Y3000D1*
G1X6310Y3102D1*
G1X6272Y3198D1*
G1X6212Y3282D1*
G1X6132Y3348D1*
G1X6039Y3392D1*
G1X5938Y3412D1*
G1X5835Y3407D1*
G1X5737Y3376D1*
G1X5649Y3321D1*
G1X5578Y3247D1*
G1X5527Y3157D1*
G1X5500Y3057D1*
G1X6323Y2000D2*
G1X6311Y2099D1*
G1X6275Y2192D1*
G1X6219Y2274D1*
G1X6144Y2340D1*
G1X6056Y2387D1*
G1X5959Y2410D1*
G1X5860Y2410D1*
G1X5763Y2387D1*
G1X5675Y2340D1*
G1X5600Y2274D1*
G1X5543Y2192D1*
G1X5508Y2099D1*
G1X5496Y2000D1*
G1X5508Y1901D1*
G1X5543Y1808D1*
G1X5600Y1726D1*
G1X5675Y1660D1*
G1X5763Y1614D1*
G1X5860Y1590D1*
G1X5959Y1590D1*
G1X6056Y1614D1*
G1X6144Y1660D1*
G1X6219Y1726D1*
G1X6275Y1808D1*
G1X6311Y1901D1*
G1X6323Y2000D1*
G1X6323Y1000D2*
G1X6311Y1099D1*
G1X6275Y1192D1*
G1X6219Y1274D1*
G1X6144Y1340D1*
G1X6056Y1387D1*
G1X5959Y1410D1*
G1X5860Y1410D1*
G1X5763Y1387D1*
G1X5675Y1340D1*
G1X5600Y1274D1*
G1X5543Y1192D1*
G1X5508Y1099D1*
G1X5496Y1000D1*
G1X5508Y901D1*
G1X5543Y808D1*
G1X5600Y726D1*
G1X5675Y660D1*
G1X5763Y614D1*
G1X5860Y590D1*
G1X5959Y590D1*
G1X6056Y614D1*
G1X6144Y660D1*
G1X6219Y726D1*
G1X6275Y808D1*
G1X6311Y901D1*
G1X6323Y1000D1*
G1X6323Y0D2*
G1X6310Y101D1*
G1X6273Y196D1*
G1X6214Y280D1*
G1X6136Y346D1*
G1X6045Y391D1*
G1X5945Y412D1*
G1X5843Y408D1*
G1X5745Y379D1*
G1X5657Y327D1*
G1X5584Y256D1*
G1X5532Y168D1*
G1X5532Y-168D2*
G1X5584Y-256D1*
G1X5657Y-327D1*
G1X5745Y-379D1*
G1X5843Y-408D1*
G1X5945Y-412D1*
G1X6045Y-391D1*
G1X6136Y-346D1*
G1X6214Y-280D1*
G1X6273Y-196D1*
G1X6310Y-101D1*
G1X6323Y0D1*
G1X5061Y2619D2*
G1X5012Y2500D1*
G1X5061Y2619D2*
G1X5012Y2500D1*
G1X4689Y3845D2*
G1X4738Y3964D1*
G1X4689Y3845D2*
G1X4738Y3964D1*
G1X5299Y241D2*
G1X5348Y359D1*
G1X5299Y241D2*
G1X5348Y359D1*
G1X4567Y330D2*
G1X4667Y345D1*
G1X4753Y398D1*
G1X4811Y481D1*
G1X4831Y580D1*
G1X4227Y3452D2*
G1X4346Y3501D1*
G1X4227Y3452D2*
G1X4346Y3501D1*
G1X4831Y580D2*
G1X4811Y678D1*
G1X4755Y760D1*
G1X4672Y814D1*
G1X4574Y831D1*
G1X4477Y809D1*
G1X4396Y751D1*
G1X4344Y666D1*
G1X4329Y567D1*
G1X6323Y-1000D2*
G1X6311Y-901D1*
G1X6275Y-808D1*
G1X6219Y-726D1*
G1X6144Y-660D1*
G1X6056Y-614D1*
G1X5959Y-590D1*
G1X5860Y-590D1*
G1X5763Y-614D1*
G1X5675Y-660D1*
G1X5600Y-726D1*
G1X5543Y-808D1*
G1X5508Y-901D1*
G1X5496Y-1000D1*
G1X5508Y-1099D1*
G1X5543Y-1192D1*
G1X5600Y-1274D1*
G1X5675Y-1340D1*
G1X5763Y-1387D1*
G1X5860Y-1410D1*
G1X5959Y-1410D1*
G1X6056Y-1387D1*
G1X6144Y-1340D1*
G1X6219Y-1274D1*
G1X6275Y-1192D1*
G1X6311Y-1099D1*
G1X6323Y-1000D1*
G1X6323Y-2000D2*
G1X6311Y-1901D1*
G1X6275Y-1808D1*
G1X6219Y-1726D1*
G1X6144Y-1660D1*
G1X6056Y-1614D1*
G1X5959Y-1590D1*
G1X5860Y-1590D1*
G1X5763Y-1614D1*
G1X5675Y-1660D1*
G1X5600Y-1726D1*
G1X5543Y-1808D1*
G1X5508Y-1901D1*
G1X5496Y-2000D1*
G1X5508Y-2099D1*
G1X5543Y-2192D1*
G1X5600Y-2274D1*
G1X5675Y-2340D1*
G1X5763Y-2387D1*
G1X5860Y-2410D1*
G1X5959Y-2410D1*
G1X6056Y-2387D1*
G1X6144Y-2340D1*
G1X6219Y-2274D1*
G1X6275Y-2192D1*
G1X6311Y-2099D1*
G1X6323Y-2000D1*
G1X6323Y-3000D2*
G1X6311Y-2901D1*
G1X6275Y-2808D1*
G1X6219Y-2726D1*
G1X6144Y-2660D1*
G1X6056Y-2614D1*
G1X5959Y-2590D1*
G1X5860Y-2590D1*
G1X5763Y-2614D1*
G1X5675Y-2660D1*
G1X5600Y-2726D1*
G1X5543Y-2808D1*
G1X5508Y-2901D1*
G1X5496Y-3000D1*
G1X5508Y-3099D1*
G1X5543Y-3192D1*
G1X5600Y-3274D1*
G1X5675Y-3340D1*
G1X5763Y-3387D1*
G1X5860Y-3410D1*
G1X5959Y-3410D1*
G1X6056Y-3387D1*
G1X6144Y-3340D1*
G1X6219Y-3274D1*
G1X6275Y-3192D1*
G1X6311Y-3099D1*
G1X6323Y-3000D1*
G1X6323Y-4000D2*
G1X6311Y-3901D1*
G1X6275Y-3808D1*
G1X6219Y-3726D1*
G1X6144Y-3660D1*
G1X6056Y-3614D1*
G1X5959Y-3590D1*
G1X5860Y-3590D1*
G1X5763Y-3614D1*
G1X5675Y-3660D1*
G1X5600Y-3726D1*
G1X5543Y-3808D1*
G1X5508Y-3901D1*
G1X5496Y-4000D1*
G1X5508Y-4099D1*
G1X5543Y-4192D1*
G1X5600Y-4274D1*
G1X5675Y-4340D1*
G1X5763Y-4387D1*
G1X5860Y-4410D1*
G1X5959Y-4410D1*
G1X6056Y-4387D1*
G1X6144Y-4340D1*
G1X6219Y-4274D1*
G1X6275Y-4192D1*
G1X6311Y-4099D1*
G1X6323Y-4000D1*
G1X6323Y-5000D2*
G1X6310Y-4899D1*
G1X6273Y-4804D1*
G1X6214Y-4721D1*
G1X6136Y-4654D1*
G1X6045Y-4609D1*
G1X5945Y-4588D1*
G1X5843Y-4592D1*
G1X5745Y-4621D1*
G1X5657Y-4673D1*
G1X5584Y-4745D1*
G1X5532Y-4832D1*
G1X5532Y-5168D2*
G1X5584Y-5256D1*
G1X5657Y-5327D1*
G1X5745Y-5379D1*
G1X5843Y-5408D1*
G1X5945Y-5412D1*
G1X6045Y-5391D1*
G1X6136Y-5346D1*
G1X6214Y-5280D1*
G1X6273Y-5196D1*
G1X6310Y-5101D1*
G1X6323Y-5000D1*
G1X6323Y-6000D2*
G1X6311Y-5901D1*
G1X6275Y-5808D1*
G1X6219Y-5726D1*
G1X6144Y-5660D1*
G1X6056Y-5614D1*
G1X5959Y-5590D1*
G1X5860Y-5590D1*
G1X5763Y-5614D1*
G1X5675Y-5660D1*
G1X5600Y-5726D1*
G1X5543Y-5808D1*
G1X5508Y-5901D1*
G1X5496Y-6000D1*
G1X5508Y-6099D1*
G1X5543Y-6192D1*
G1X5600Y-6274D1*
G1X5675Y-6340D1*
G1X5763Y-6387D1*
G1X5860Y-6410D1*
G1X5959Y-6410D1*
G1X6056Y-6387D1*
G1X6144Y-6340D1*
G1X6219Y-6274D1*
G1X6275Y-6192D1*
G1X6311Y-6099D1*
G1X6323Y-6000D1*
G1X4937Y-463D2*
G1X5056Y-414D1*
G1X4937Y-463D2*
G1X5056Y-414D1*
G1X4862Y-749D2*
G1X4846Y-658D1*
G1X4799Y-577D1*
G1X4728Y-518D1*
G1X4640Y-487D1*
G1X4547Y-488D1*
G1X4461Y-520D1*
G1X4390Y-581D1*
G1X4390Y-917D2*
G1X4461Y-978D1*
G1X4547Y-1010D1*
G1X4640Y-1011D1*
G1X4728Y-980D1*
G1X4799Y-921D1*
G1X4846Y-840D1*
G1X4862Y-749D1*
G1X4138Y-868D2*
G1X4257Y-917D1*
G1X4138Y-868D2*
G1X4257Y-917D1*
G1X5150Y-5119D2*
G1X5269Y-5168D1*
G1X5150Y-5119D2*
G1X5269Y-5168D1*
G1X4139Y-4431D2*
G1X4118Y-4328D1*
G1X4057Y-4241D1*
G1X3967Y-4185D1*
G1X3862Y-4170D1*
G1X3760Y-4198D1*
G1X3677Y-4263D1*
G1X3677Y-4600D2*
G1X3760Y-4665D1*
G1X3862Y-4693D1*
G1X3967Y-4677D1*
G1X4057Y-4622D1*
G1X4118Y-4535D1*
G1X4139Y-4431D1*
G1X3102Y-4550D2*
G1X3221Y-4600D1*
G1X3102Y-4550D2*
G1X3221Y-4600D1*
G1X1182Y4735D2*
G1X1133Y4854D1*
G1X1182Y4735D2*
G1X1133Y4854D1*
G1X2051Y3918D2*
G1X2100Y4036D1*
G1X2051Y3918D2*
G1X2100Y4036D1*
G1X866Y5121D2*
G1X747Y5170D1*
G1X866Y5121D2*
G1X747Y5170D1*
G1X386Y3853D2*
G1X407Y3925D1*
G1X413Y4000D1*
G1X401Y4099D1*
G1X366Y4192D1*
G1X309Y4274D1*
G1X234Y4341D1*
G1X146Y4387D1*
G1X49Y4411D1*
G1X-51Y4410D1*
G1X-148Y4386D1*
G1X-236Y4340D1*
G1X-310Y4273D1*
G1X-367Y4191D1*
G1X-402Y4097D1*
G1X-413Y3998D1*
G1X-401Y3899D1*
G1X-365Y3806D1*
G1X-308Y3724D1*
G1X-233Y3658D1*
G1X-144Y3613D1*
G1X-47Y3589D1*
G1X53Y3590D1*
G1X149Y3615D1*
G1X413Y3000D2*
G1X401Y3099D1*
G1X366Y3192D1*
G1X309Y3274D1*
G1X235Y3340D1*
G1X147Y3387D1*
G1X50Y3410D1*
G1X-50Y3410D1*
G1X-147Y3387D1*
G1X-235Y3340D1*
G1X-309Y3274D1*
G1X-366Y3192D1*
G1X-401Y3099D1*
G1X-413Y3000D1*
G1X-401Y2901D1*
G1X-366Y2808D1*
G1X-309Y2726D1*
G1X-235Y2660D1*
G1X-147Y2614D1*
G1X-50Y2590D1*
G1X50Y2590D1*
G1X147Y2614D1*
G1X235Y2660D1*
G1X309Y2726D1*
G1X366Y2808D1*
G1X401Y2901D1*
G1X413Y3000D1*
G1X413Y2000D2*
G1X401Y2099D1*
G1X366Y2192D1*
G1X309Y2274D1*
G1X235Y2340D1*
G1X147Y2387D1*
G1X50Y2410D1*
G1X-50Y2410D1*
G1X-147Y2387D1*
G1X-235Y2340D1*
G1X-309Y2274D1*
G1X-366Y2192D1*
G1X-401Y2099D1*
G1X-413Y2000D1*
G1X-401Y1901D1*
G1X-366Y1808D1*
G1X-309Y1726D1*
G1X-235Y1660D1*
G1X-147Y1614D1*
G1X-50Y1590D1*
G1X50Y1590D1*
G1X147Y1614D1*
G1X235Y1660D1*
G1X309Y1726D1*
G1X366Y1808D1*
G1X401Y1901D1*
G1X413Y2000D1*
G1X413Y1000D2*
G1X401Y1099D1*
G1X366Y1192D1*
G1X309Y1274D1*
G1X235Y1340D1*
G1X147Y1387D1*
G1X50Y1410D1*
G1X-50Y1410D1*
G1X-147Y1387D1*
G1X-235Y1340D1*
G1X-309Y1274D1*
G1X-366Y1192D1*
G1X-401Y1099D1*
G1X-413Y1000D1*
G1X-401Y901D1*
G1X-366Y808D1*
G1X-309Y726D1*
G1X-235Y660D1*
G1X-147Y614D1*
G1X-50Y590D1*
G1X50Y590D1*
G1X147Y614D1*
G1X235Y660D1*
G1X309Y726D1*
G1X366Y808D1*
G1X401Y901D1*
G1X413Y1000D1*
G1X1996Y-1503D2*
G1X1975Y-1421D1*
G1X1996Y-1503D2*
G1X1975Y-1421D1*
G1X2531Y-3910D2*
G1X2581Y-4029D1*
G1X2531Y-3910D2*
G1X2581Y-4029D1*
G1X525Y-367D2*
G1X574Y-486D1*
G1X525Y-367D2*
G1X574Y-486D1*
G1X413Y0D2*
G1X401Y99D1*
G1X366Y192D1*
G1X309Y274D1*
G1X235Y340D1*
G1X147Y387D1*
G1X50Y410D1*
G1X-50Y410D1*
G1X-147Y387D1*
G1X-235Y340D1*
G1X-309Y274D1*
G1X-366Y192D1*
G1X-401Y99D1*
G1X-413Y0D1*
G1X-401Y-99D1*
G1X-366Y-192D1*
G1X-309Y-274D1*
G1X-235Y-340D1*
G1X-147Y-387D1*
G1X-50Y-410D1*
G1X50Y-410D1*
G1X147Y-387D1*
G1X235Y-340D1*
G1X309Y-274D1*
G1X366Y-192D1*
G1X401Y-99D1*
G1X413Y0D1*
G1X413Y-1000D2*
G1X401Y-901D1*
G1X366Y-808D1*
G1X309Y-726D1*
G1X235Y-660D1*
G1X147Y-614D1*
G1X50Y-590D1*
G1X-50Y-590D1*
G1X-147Y-614D1*
G1X-235Y-660D1*
G1X-309Y-726D1*
G1X-366Y-808D1*
G1X-401Y-901D1*
G1X-413Y-1000D1*
G1X-401Y-1099D1*
G1X-366Y-1192D1*
G1X-309Y-1274D1*
G1X-235Y-1340D1*
G1X-147Y-1387D1*
G1X-50Y-1410D1*
G1X50Y-1410D1*
G1X147Y-1387D1*
G1X235Y-1340D1*
G1X309Y-1274D1*
G1X366Y-1192D1*
G1X401Y-1099D1*
G1X413Y-1000D1*
G1X413Y-2000D2*
G1X401Y-1901D1*
G1X366Y-1808D1*
G1X309Y-1726D1*
G1X235Y-1660D1*
G1X147Y-1614D1*
G1X50Y-1590D1*
G1X-50Y-1590D1*
G1X-147Y-1614D1*
G1X-235Y-1660D1*
G1X-309Y-1726D1*
G1X-366Y-1808D1*
G1X-401Y-1901D1*
G1X-413Y-2000D1*
G1X-401Y-2099D1*
G1X-366Y-2192D1*
G1X-309Y-2274D1*
G1X-235Y-2340D1*
G1X-147Y-2387D1*
G1X-50Y-2410D1*
G1X50Y-2410D1*
G1X147Y-2387D1*
G1X235Y-2340D1*
G1X309Y-2274D1*
G1X366Y-2192D1*
G1X401Y-2099D1*
G1X413Y-2000D1*
G1X413Y-3000D2*
G1X401Y-2901D1*
G1X366Y-2808D1*
G1X309Y-2726D1*
G1X235Y-2660D1*
G1X147Y-2614D1*
G1X50Y-2590D1*
G1X-50Y-2590D1*
G1X-147Y-2614D1*
G1X-235Y-2660D1*
G1X-309Y-2726D1*
G1X-366Y-2808D1*
G1X-401Y-2901D1*
G1X-413Y-3000D1*
G1X-401Y-3099D1*
G1X-366Y-3192D1*
G1X-309Y-3274D1*
G1X-235Y-3340D1*
G1X-147Y-3387D1*
G1X-50Y-3410D1*
G1X50Y-3410D1*
G1X147Y-3387D1*
G1X235Y-3340D1*
G1X309Y-3274D1*
G1X366Y-3192D1*
G1X401Y-3099D1*
G1X413Y-3000D1*
G1X413Y-4000D2*
G1X401Y-3901D1*
G1X366Y-3808D1*
G1X309Y-3726D1*
G1X235Y-3660D1*
G1X147Y-3614D1*
G1X50Y-3590D1*
G1X-50Y-3590D1*
G1X-147Y-3614D1*
G1X-235Y-3660D1*
G1X-309Y-3726D1*
G1X-366Y-3808D1*
G1X-401Y-3901D1*
G1X-413Y-4000D1*
G1X-401Y-4099D1*
G1X-366Y-4192D1*
G1X-309Y-4274D1*
G1X-235Y-4340D1*
G1X-147Y-4387D1*
G1X-50Y-4410D1*
G1X50Y-4410D1*
G1X147Y-4387D1*
G1X235Y-4340D1*
G1X309Y-4274D1*
G1X366Y-4192D1*
G1X401Y-4099D1*
G1X413Y-4000D1*
G1X413Y-5000D2*
G1X401Y-4901D1*
G1X366Y-4808D1*
G1X309Y-4726D1*
G1X235Y-4660D1*
G1X147Y-4614D1*
G1X50Y-4590D1*
G1X-50Y-4590D1*
G1X-147Y-4614D1*
G1X-235Y-4660D1*
G1X-309Y-4726D1*
G1X-366Y-4808D1*
G1X-401Y-4901D1*
G1X-413Y-5000D1*
G1X-401Y-5099D1*
G1X-366Y-5192D1*
G1X-309Y-5274D1*
G1X-235Y-5340D1*
G1X-147Y-5387D1*
G1X-50Y-5410D1*
G1X50Y-5410D1*
G1X147Y-5387D1*
G1X235Y-5340D1*
G1X309Y-5274D1*
G1X366Y-5192D1*
G1X401Y-5099D1*
G1X413Y-5000D1*
G1X413Y-6000D2*
G1X401Y-5901D1*
G1X366Y-5808D1*
G1X309Y-5726D1*
G1X235Y-5660D1*
G1X147Y-5614D1*
G1X50Y-5590D1*
G1X-50Y-5590D1*
G1X-147Y-5614D1*
G1X-235Y-5660D1*
G1X-309Y-5726D1*
G1X-366Y-5808D1*
G1X-401Y-5901D1*
G1X-413Y-6000D1*
G1X-401Y-6099D1*
G1X-366Y-6192D1*
G1X-309Y-6274D1*
G1X-235Y-6340D1*
G1X-147Y-6387D1*
G1X-50Y-6410D1*
G1X50Y-6410D1*
G1X147Y-6387D1*
G1X235Y-6340D1*
G1X309Y-6274D1*
G1X366Y-6192D1*
G1X401Y-6099D1*
G1X413Y-6000D1*
G1X6235Y5255D2*
G1X6331Y5255D1*
G1X6318Y5064D2*
G1X6318Y5418D1*
G1X6318Y4064D2*
G1X6318Y4936D1*
G1X5942Y5412D2*
G1X6331Y5412D1*
G1X6154Y5333D2*
G1X6331Y5333D1*
G1X6197Y4703D2*
G1X6331Y4703D1*
G1X6183Y4310D2*
G1X6331Y4310D1*
G1X6252Y4231D2*
G1X6331Y4231D1*
G1X6083Y4625D2*
G1X6331Y4625D1*
G1X6051Y4388D2*
G1X6331Y4388D1*
G1X6239Y5249D2*
G1X6239Y5418D1*
G1X6160Y5329D2*
G1X6160Y5418D1*
G1X6239Y4249D2*
G1X6239Y4751D1*
G1X6082Y4376D2*
G1X6082Y4624D1*
G1X6160Y4329D2*
G1X6160Y4672D1*
G1X6003Y4403D2*
G1X6003Y4597D1*
G1X5924Y4413D2*
G1X5924Y4587D1*
G1X6245Y3759D2*
G1X6331Y3759D1*
G1X5845Y4408D2*
G1X5845Y4592D1*
G1X5767Y4388D2*
G1X5767Y4612D1*
G1X6171Y3680D2*
G1X6331Y3680D1*
G1X6239Y3249D2*
G1X6239Y3751D1*
G1X6318Y3064D2*
G1X6318Y3936D1*
G1X6018Y3601D2*
G1X6331Y3601D1*
G1X6104Y3365D2*
G1X6331Y3365D1*
G1X6208Y3286D2*
G1X6331Y3286D1*
G1X6239Y2249D2*
G1X6239Y2751D1*
G1X6318Y2064D2*
G1X6318Y2936D1*
G1X6227Y2735D2*
G1X6331Y2735D1*
G1X6139Y2656D2*
G1X6331Y2656D1*
G1X6082Y3376D2*
G1X6082Y3624D1*
G1X6003Y3403D2*
G1X6003Y3597D1*
G1X6160Y3329D2*
G1X6160Y3672D1*
G1X5924Y3413D2*
G1X5924Y3587D1*
G1X5767Y3388D2*
G1X5767Y3612D1*
G1X6082Y2376D2*
G1X6082Y2624D1*
G1X6160Y2329D2*
G1X6160Y2672D1*
G1X5845Y3408D2*
G1X5845Y3592D1*
G1X6003Y2403D2*
G1X6003Y2597D1*
G1X5688Y4349D2*
G1X5688Y4651D1*
G1X5609Y5284D2*
G1X5609Y5418D1*
G1X5609Y4284D2*
G1X5609Y4716D1*
G1X4846Y4703D2*
G1X5621Y4703D1*
G1X4846Y4546D2*
G1X6331Y4546D1*
G1X4846Y4625D2*
G1X5736Y4625D1*
G1X4738Y4467D2*
G1X6331Y4467D1*
G1X4738Y4388D2*
G1X5768Y4388D1*
G1X4738Y4310D2*
G1X5636Y4310D1*
G1X5530Y5165D2*
G1X5530Y5418D1*
G1X4846Y5176D2*
G1X5535Y5176D1*
G1X4846Y5097D2*
G1X5508Y5097D1*
G1X4846Y5018D2*
G1X5496Y5018D1*
G1X4846Y4940D2*
G1X5500Y4940D1*
G1X4846Y4782D2*
G1X5558Y4782D1*
G1X4846Y4861D2*
G1X5520Y4861D1*
G1X5530Y4165D2*
G1X5530Y4835D1*
G1X4738Y4231D2*
G1X5567Y4231D1*
G1X4738Y4152D2*
G1X5525Y4152D1*
G1X5688Y3349D2*
G1X5688Y3651D1*
G1X5609Y3284D2*
G1X5609Y3716D1*
G1X4524Y3680D2*
G1X5648Y3680D1*
G1X4445Y3601D2*
G1X5801Y3601D1*
G1X5574Y2656D2*
G1X5680Y2656D1*
G1X5688Y2349D2*
G1X5688Y2651D1*
G1X4366Y3522D2*
G1X6331Y3522D1*
G1X4738Y4074D2*
G1X5503Y4074D1*
G1X4738Y3995D2*
G1X5496Y3995D1*
G1X5530Y3165D2*
G1X5530Y3835D1*
G1X4731Y3916D2*
G1X5505Y3916D1*
G1X4681Y3837D2*
G1X5529Y3837D1*
G1X5348Y2430D2*
G1X5622Y2703D1*
G1X5609Y2284D2*
G1X5609Y2691D1*
G1X4603Y3759D2*
G1X5574Y3759D1*
G1X5061Y2619D2*
G1X5500Y3057D1*
G1X6229Y2263D2*
G1X6331Y2263D1*
G1X6205Y1711D2*
G1X6331Y1711D1*
G1X6239Y1249D2*
G1X6239Y1751D1*
G1X6143Y2341D2*
G1X6331Y2341D1*
G1X6160Y1329D2*
G1X6160Y1672D1*
G1X6099Y1633D2*
G1X6331Y1633D1*
G1X6174Y1318D2*
G1X6331Y1318D1*
G1X6247Y1239D2*
G1X6331Y1239D1*
G1X6027Y1396D2*
G1X6331Y1396D1*
G1X6082Y1376D2*
G1X6082Y1624D1*
G1X5924Y2413D2*
G1X5924Y2587D1*
G1X5845Y2408D2*
G1X5845Y2592D1*
G1X5767Y2388D2*
G1X5767Y2612D1*
G1X5530Y2165D2*
G1X5530Y2612D1*
G1X5609Y1284D2*
G1X5609Y1716D1*
G1X6003Y1403D2*
G1X6003Y1597D1*
G1X5924Y1413D2*
G1X5924Y1587D1*
G1X5845Y1408D2*
G1X5845Y1592D1*
G1X5767Y1388D2*
G1X5767Y1612D1*
G1X5688Y1349D2*
G1X5688Y1651D1*
G1X6318Y1064D2*
G1X6318Y1936D1*
G1X6250Y766D2*
G1X6331Y766D1*
G1X6318Y64D2*
G1X6318Y936D1*
G1X6180Y688D2*
G1X6331Y688D1*
G1X6239Y249D2*
G1X6239Y751D1*
G1X6200Y294D2*
G1X6331Y294D1*
G1X6233Y-257D2*
G1X6331Y-257D1*
G1X6150Y-336D2*
G1X6331Y-336D1*
G1X6043Y609D2*
G1X6331Y609D1*
G1X6088Y373D2*
G1X6331Y373D1*
G1X6082Y376D2*
G1X6082Y624D1*
G1X5688Y349D2*
G1X5688Y651D1*
G1X6160Y329D2*
G1X6160Y672D1*
G1X5530Y1165D2*
G1X5530Y1835D1*
G1X5609Y284D2*
G1X5609Y716D1*
G1X5924Y413D2*
G1X5924Y587D1*
G1X6003Y403D2*
G1X6003Y597D1*
G1X5845Y408D2*
G1X5845Y592D1*
G1X5767Y388D2*
G1X5767Y612D1*
G1X5496Y2577D2*
G1X6331Y2577D1*
G1X5417Y2499D2*
G1X6331Y2499D1*
G1X5348Y2420D2*
G1X6331Y2420D1*
G1X5348Y2341D2*
G1X5676Y2341D1*
G1X5348Y1554D2*
G1X6331Y1554D1*
G1X5348Y1633D2*
G1X5720Y1633D1*
G1X5348Y1475D2*
G1X6331Y1475D1*
G1X5348Y1396D2*
G1X5792Y1396D1*
G1X5348Y1318D2*
G1X5645Y1318D1*
G1X5348Y2263D2*
G1X5590Y2263D1*
G1X5348Y2184D2*
G1X5539Y2184D1*
G1X5348Y2105D2*
G1X5510Y2105D1*
G1X5348Y2026D2*
G1X5497Y2026D1*
G1X5348Y1948D2*
G1X5499Y1948D1*
G1X5348Y1790D2*
G1X5553Y1790D1*
G1X5348Y1711D2*
G1X5614Y1711D1*
G1X5348Y1239D2*
G1X5572Y1239D1*
G1X5348Y1160D2*
G1X5528Y1160D1*
G1X5348Y688D2*
G1X5639Y688D1*
G1X5348Y609D2*
G1X5775Y609D1*
G1X5348Y530D2*
G1X6331Y530D1*
G1X5348Y451D2*
G1X6331Y451D1*
G1X5348Y373D2*
G1X5731Y373D1*
G1X5134Y-336D2*
G1X5669Y-336D1*
G1X5056Y-415D2*
G1X6331Y-415D1*
G1X5348Y766D2*
G1X5568Y766D1*
G1X5348Y845D2*
G1X5526Y845D1*
G1X5530Y168D2*
G1X5530Y835D1*
G1X5335Y294D2*
G1X5619Y294D1*
G1X5274Y215D2*
G1X5556Y215D1*
G1X5302Y-168D2*
G1X5532Y-168D1*
G1X5292Y-179D2*
G1X5537Y-179D1*
G1X5233Y168D2*
G1X5532Y168D1*
G1X5213Y-257D2*
G1X5586Y-257D1*
G1X4822Y5239D2*
G1X4822Y5418D1*
G1X4743Y5239D2*
G1X4743Y5418D1*
G1X4664Y5239D2*
G1X4664Y5418D1*
G1X4586Y5239D2*
G1X4586Y5418D1*
G1X4507Y5239D2*
G1X4507Y5418D1*
G1X4846Y4491D2*
G1X4846Y5239D1*
G1X4428Y5239D2*
G1X4428Y5418D1*
G1X4738Y4491D2*
G1X4846Y4491D1*
G1X4349Y5239D2*
G1X4349Y5418D1*
G1X4295Y5239D2*
G1X4846Y5239D1*
G1X4177Y5176D2*
G1X4295Y5176D1*
G1X4177Y5097D2*
G1X4295Y5097D1*
G1X4177Y5018D2*
G1X4295Y5018D1*
G1X4113Y5239D2*
G1X4113Y5418D1*
G1X4177Y4940D2*
G1X4295Y4940D1*
G1X4177Y4861D2*
G1X4295Y4861D1*
G1X4177Y4782D2*
G1X4295Y4782D1*
G1X4177Y4703D2*
G1X4295Y4703D1*
G1X4177Y4625D2*
G1X4295Y4625D1*
G1X4177Y4546D2*
G1X4295Y4546D1*
G1X5452Y3009D2*
G1X5452Y5418D1*
G1X5373Y2930D2*
G1X5373Y5418D1*
G1X5294Y2851D2*
G1X5294Y5418D1*
G1X5215Y2773D2*
G1X5215Y5418D1*
G1X5137Y2694D2*
G1X5137Y5418D1*
G1X5058Y2615D2*
G1X5058Y5418D1*
G1X4979Y396D2*
G1X4979Y5418D1*
G1X4901Y317D2*
G1X4901Y5418D1*
G1X4743Y771D2*
G1X4743Y4491D1*
G1X4822Y648D2*
G1X4822Y4491D1*
G1X4738Y3964D2*
G1X4738Y4491D1*
G1X4295Y4491D2*
G1X4295Y5239D1*
G1X4271Y3902D2*
G1X4271Y5418D1*
G1X4177Y4491D2*
G1X4177Y5239D1*
G1X4192Y3823D2*
G1X4192Y5418D1*
G1X4402Y4033D2*
G1X4402Y4491D1*
G1X4349Y3981D2*
G1X4349Y4491D1*
G1X4295Y4491D2*
G1X4402Y4491D1*
G1X4113Y3788D2*
G1X4113Y4491D1*
G1X4034Y5239D2*
G1X4034Y5418D1*
G1X3956Y5239D2*
G1X3956Y5418D1*
G1X3877Y5239D2*
G1X3877Y5418D1*
G1X3798Y5239D2*
G1X3798Y5418D1*
G1X3719Y5239D2*
G1X3719Y5418D1*
G1X3641Y5239D2*
G1X3641Y5418D1*
G1X3625Y5239D2*
G1X4177Y5239D1*
G1X2877Y5176D2*
G1X3625Y5176D1*
G1X2853Y5238D2*
G1X2853Y5418D1*
G1X2877Y5097D2*
G1X3625Y5097D1*
G1X2877Y5018D2*
G1X3625Y5018D1*
G1X2877Y4940D2*
G1X3625Y4940D1*
G1X2877Y4861D2*
G1X3625Y4861D1*
G1X2877Y4782D2*
G1X3625Y4782D1*
G1X2877Y4703D2*
G1X3625Y4703D1*
G1X2877Y4625D2*
G1X3625Y4625D1*
G1X3625Y4491D2*
G1X3625Y5239D1*
G1X3625Y4491D2*
G1X4177Y4491D1*
G1X2877Y4546D2*
G1X3625Y4546D1*
G1X3562Y3788D2*
G1X3562Y5418D1*
G1X4034Y3788D2*
G1X4034Y4491D1*
G1X3956Y3788D2*
G1X3956Y4491D1*
G1X3877Y3788D2*
G1X3877Y4491D1*
G1X3798Y3788D2*
G1X3798Y4491D1*
G1X3719Y3788D2*
G1X3719Y4491D1*
G1X3483Y3788D2*
G1X3483Y5418D1*
G1X3404Y3788D2*
G1X3404Y5418D1*
G1X3326Y3788D2*
G1X3326Y5418D1*
G1X3247Y3788D2*
G1X3247Y5418D1*
G1X3168Y3788D2*
G1X3168Y5418D1*
G1X3089Y3788D2*
G1X3089Y5418D1*
G1X3011Y3788D2*
G1X3011Y5418D1*
G1X2877Y4490D2*
G1X2877Y5238D1*
G1X2932Y3788D2*
G1X2932Y5418D1*
G1X5348Y1869D2*
G1X5517Y1869D1*
G1X5348Y1081D2*
G1X5504Y1081D1*
G1X5348Y1003D2*
G1X5496Y1003D1*
G1X5348Y924D2*
G1X5503Y924D1*
G1X4829Y609D2*
G1X5012Y609D1*
G1X4826Y530D2*
G1X5012Y530D1*
G1X4748Y766D2*
G1X5012Y766D1*
G1X4807Y688D2*
G1X5012Y688D1*
G1X4664Y817D2*
G1X4664Y3820D1*
G1X4346Y3501D2*
G1X4689Y3845D1*
G1X4586Y831D2*
G1X4586Y3741D1*
G1X4795Y451D2*
G1X5012Y451D1*
G1X4507Y820D2*
G1X4507Y3663D1*
G1X5012Y429D2*
G1X5012Y2500D1*
G1X4428Y780D2*
G1X4428Y3584D1*
G1X4349Y679D2*
G1X4349Y3505D1*
G1X5452Y168D2*
G1X5452Y2533D1*
G1X5348Y359D2*
G1X5348Y2430D1*
G1X5373Y168D2*
G1X5373Y2455D1*
G1X4721Y373D2*
G1X4956Y373D1*
G1X4656Y73D2*
G1X5012Y429D1*
G1X5227Y168D2*
G1X5299Y241D1*
G1X4531Y294D2*
G1X4877Y294D1*
G1X5056Y-414D2*
G1X5302Y-168D1*
G1X4822Y239D2*
G1X4822Y513D1*
G1X4743Y160D2*
G1X4743Y389D1*
G1X4664Y81D2*
G1X4664Y344D1*
G1X4586Y73D2*
G1X4586Y329D1*
G1X4453Y215D2*
G1X4798Y215D1*
G1X4507Y73D2*
G1X4507Y269D1*
G1X4374Y137D2*
G1X4720Y137D1*
G1X4428Y73D2*
G1X4428Y191D1*
G1X4157Y3788D2*
G1X4402Y4033D1*
G1X3641Y3788D2*
G1X3641Y4491D1*
G1X3956Y871D2*
G1X3956Y3452D1*
G1X3971Y845D2*
G1X5012Y845D1*
G1X3877Y871D2*
G1X3877Y3452D1*
G1X3798Y871D2*
G1X3798Y3452D1*
G1X3719Y871D2*
G1X3719Y3452D1*
G1X3641Y871D2*
G1X3641Y3452D1*
G1X3562Y871D2*
G1X3562Y3452D1*
G1X3483Y871D2*
G1X3483Y3452D1*
G1X3404Y871D2*
G1X3404Y3452D1*
G1X2853Y3788D2*
G1X2853Y4490D1*
G1X2775Y3788D2*
G1X2775Y4490D1*
G1X3326Y871D2*
G1X3326Y3452D1*
G1X3247Y871D2*
G1X3247Y3452D1*
G1X3168Y871D2*
G1X3168Y3452D1*
G1X3089Y871D2*
G1X3089Y3452D1*
G1X3971Y766D2*
G1X4412Y766D1*
G1X4271Y509D2*
G1X4271Y3458D1*
G1X3971Y688D2*
G1X4353Y688D1*
G1X3971Y609D2*
G1X4331Y609D1*
G1X4311Y73D2*
G1X4567Y330D1*
G1X4035Y273D2*
G1X4329Y567D1*
G1X4311Y73D2*
G1X4656Y73D1*
G1X3971Y530D2*
G1X4292Y530D1*
G1X3971Y451D2*
G1X4213Y451D1*
G1X4192Y430D2*
G1X4192Y3452D1*
G1X3011Y871D2*
G1X3011Y3452D1*
G1X4113Y351D2*
G1X4113Y3452D1*
G1X2932Y871D2*
G1X2932Y3452D1*
G1X2853Y871D2*
G1X2853Y3452D1*
G1X3971Y373D2*
G1X4135Y373D1*
G1X3971Y273D2*
G1X3971Y871D1*
G1X2775Y871D2*
G1X2775Y3452D1*
G1X3971Y294D2*
G1X4056Y294D1*
G1X6222Y-730D2*
G1X6331Y-730D1*
G1X6239Y-751D2*
G1X6239Y-249D1*
G1X6318Y-936D2*
G1X6318Y-64D1*
G1X6131Y-651D2*
G1X6331Y-651D1*
G1X6160Y-672D2*
G1X6160Y-329D1*
G1X6213Y-1281D2*
G1X6331Y-1281D1*
G1X6164Y-1675D2*
G1X6331Y-1675D1*
G1X6160Y-1672D2*
G1X6160Y-1329D1*
G1X6113Y-1360D2*
G1X6331Y-1360D1*
G1X5996Y-1596D2*
G1X6331Y-1596D1*
G1X6003Y-597D2*
G1X6003Y-403D1*
G1X5924Y-587D2*
G1X5924Y-413D1*
G1X6082Y-624D2*
G1X6082Y-376D1*
G1X5845Y-592D2*
G1X5845Y-408D1*
G1X5767Y-612D2*
G1X5767Y-388D1*
G1X6003Y-1597D2*
G1X6003Y-1403D1*
G1X5924Y-1587D2*
G1X5924Y-1413D1*
G1X6082Y-1624D2*
G1X6082Y-1376D1*
G1X5845Y-1592D2*
G1X5845Y-1408D1*
G1X5767Y-1612D2*
G1X5767Y-1388D1*
G1X6318Y-1936D2*
G1X6318Y-1064D1*
G1X6318Y-2936D2*
G1X6318Y-2064D1*
G1X6331Y-6422D2*
G1X6331Y5418D1*
G1X6241Y-1753D2*
G1X6331Y-1753D1*
G1X6189Y-2305D2*
G1X6331Y-2305D1*
G1X6192Y-2698D2*
G1X6331Y-2698D1*
G1X6239Y-3249D2*
G1X6331Y-3249D1*
G1X6318Y-3936D2*
G1X6318Y-3064D1*
G1X6064Y-2383D2*
G1X6331Y-2383D1*
G1X6071Y-2619D2*
G1X6331Y-2619D1*
G1X6239Y-1751D2*
G1X6239Y-1249D1*
G1X6160Y-2672D2*
G1X6160Y-2329D1*
G1X6239Y-2751D2*
G1X6239Y-2249D1*
G1X6003Y-2597D2*
G1X6003Y-2403D1*
G1X6082Y-2624D2*
G1X6082Y-2376D1*
G1X5924Y-2587D2*
G1X5924Y-2413D1*
G1X6239Y-3751D2*
G1X6239Y-3249D1*
G1X5845Y-2592D2*
G1X5845Y-2408D1*
G1X5767Y-2612D2*
G1X5767Y-2388D1*
G1X5688Y-651D2*
G1X5688Y-349D1*
G1X4843Y-651D2*
G1X5688Y-651D1*
G1X4669Y-493D2*
G1X6331Y-493D1*
G1X4795Y-572D2*
G1X6331Y-572D1*
G1X3068Y-1438D2*
G1X6331Y-1438D1*
G1X3971Y-1360D2*
G1X5705Y-1360D1*
G1X5688Y-1651D2*
G1X5688Y-1349D1*
G1X3068Y-1517D2*
G1X6331Y-1517D1*
G1X3068Y-1596D2*
G1X5823Y-1596D1*
G1X5609Y-716D2*
G1X5609Y-284D1*
G1X4861Y-730D2*
G1X5597Y-730D1*
G1X5530Y-835D2*
G1X5530Y-168D1*
G1X4855Y-808D2*
G1X5543Y-808D1*
G1X3971Y-1202D2*
G1X5549Y-1202D1*
G1X3971Y-1281D2*
G1X5606Y-1281D1*
G1X5609Y-1716D2*
G1X5609Y-1284D1*
G1X3068Y-1675D2*
G1X5655Y-1675D1*
G1X3068Y-1753D2*
G1X5578Y-1753D1*
G1X5688Y-2651D2*
G1X5688Y-2349D1*
G1X5609Y-2716D2*
G1X5609Y-2284D1*
G1X3068Y-2305D2*
G1X5630Y-2305D1*
G1X3068Y-2383D2*
G1X5754Y-2383D1*
G1X3126Y-2619D2*
G1X5748Y-2619D1*
G1X3205Y-2698D2*
G1X5627Y-2698D1*
G1X3068Y-2462D2*
G1X6331Y-2462D1*
G1X3068Y-2541D2*
G1X6331Y-2541D1*
G1X3284Y-2777D2*
G1X5561Y-2777D1*
G1X5530Y-1835D2*
G1X5530Y-1165D1*
G1X5530Y-2835D2*
G1X5530Y-2165D1*
G1X3068Y-1832D2*
G1X5532Y-1832D1*
G1X3068Y-2226D2*
G1X5563Y-2226D1*
G1X5609Y-3716D2*
G1X5609Y-3284D1*
G1X5530Y-3835D2*
G1X5530Y-3165D1*
G1X3677Y-3171D2*
G1X5533Y-3171D1*
G1X3756Y-3249D2*
G1X5580Y-3249D1*
G1X6161Y-3328D2*
G1X6331Y-3328D1*
G1X6215Y-3722D2*
G1X6331Y-3722D1*
G1X6318Y-4936D2*
G1X6318Y-4064D1*
G1X5983Y-3407D2*
G1X6331Y-3407D1*
G1X6118Y-3643D2*
G1X6331Y-3643D1*
G1X6220Y-4273D2*
G1X6331Y-4273D1*
G1X6154Y-4667D2*
G1X6331Y-4667D1*
G1X6235Y-4745D2*
G1X6331Y-4745D1*
G1X6127Y-4352D2*
G1X6331Y-4352D1*
G1X5942Y-4588D2*
G1X6331Y-4588D1*
G1X6160Y-3672D2*
G1X6160Y-3329D1*
G1X6082Y-3624D2*
G1X6082Y-3376D1*
G1X6239Y-4751D2*
G1X6239Y-4249D1*
G1X6003Y-3597D2*
G1X6003Y-3403D1*
G1X5924Y-3587D2*
G1X5924Y-3413D1*
G1X6160Y-4672D2*
G1X6160Y-4329D1*
G1X6082Y-4624D2*
G1X6082Y-4376D1*
G1X6197Y-5297D2*
G1X6331Y-5297D1*
G1X6003Y-4597D2*
G1X6003Y-4403D1*
G1X5924Y-4587D2*
G1X5924Y-4413D1*
G1X6183Y-5690D2*
G1X6331Y-5690D1*
G1X6252Y-5769D2*
G1X6331Y-5769D1*
G1X6318Y-5936D2*
G1X6318Y-5064D1*
G1X6083Y-5375D2*
G1X6331Y-5375D1*
G1X6051Y-5612D2*
G1X6331Y-5612D1*
G1X6245Y-6242D2*
G1X6331Y-6242D1*
G1X6171Y-6320D2*
G1X6331Y-6320D1*
G1X6318Y-6422D2*
G1X6318Y-6064D1*
G1X6018Y-6399D2*
G1X6331Y-6399D1*
G1X6160Y-5672D2*
G1X6160Y-5329D1*
G1X6082Y-5624D2*
G1X6082Y-5376D1*
G1X6239Y-5751D2*
G1X6239Y-5249D1*
G1X6003Y-5597D2*
G1X6003Y-5403D1*
G1X5924Y-5587D2*
G1X5924Y-5413D1*
G1X6239Y-6422D2*
G1X6239Y-6249D1*
G1X6160Y-6422D2*
G1X6160Y-6329D1*
G1X4071Y-3564D2*
G1X6331Y-3564D1*
G1X5845Y-3592D2*
G1X5845Y-3408D1*
G1X5767Y-3612D2*
G1X5767Y-3388D1*
G1X3914Y-3407D2*
G1X5836Y-3407D1*
G1X3992Y-3486D2*
G1X6331Y-3486D1*
G1X5845Y-4592D2*
G1X5845Y-4408D1*
G1X5095Y-4588D2*
G1X5877Y-4588D1*
G1X4937Y-4430D2*
G1X6331Y-4430D1*
G1X5016Y-4509D2*
G1X6331Y-4509D1*
G1X5688Y-3651D2*
G1X5688Y-3349D1*
G1X4229Y-3722D2*
G1X5604Y-3722D1*
G1X4307Y-3801D2*
G1X5547Y-3801D1*
G1X3835Y-3328D2*
G1X5658Y-3328D1*
G1X4150Y-3643D2*
G1X5701Y-3643D1*
G1X4859Y-4352D2*
G1X5692Y-4352D1*
G1X5767Y-4612D2*
G1X5767Y-4388D1*
G1X4701Y-4194D2*
G1X5544Y-4194D1*
G1X4780Y-4273D2*
G1X5599Y-4273D1*
G1X5688Y-4651D2*
G1X5688Y-4349D1*
G1X5609Y-4716D2*
G1X5609Y-4284D1*
G1X5174Y-4667D2*
G1X5665Y-4667D1*
G1X5845Y-5592D2*
G1X5845Y-5408D1*
G1X5767Y-5612D2*
G1X5767Y-5388D1*
G1X5688Y-5651D2*
G1X5688Y-5349D1*
G1X5331Y-4824D2*
G1X5535Y-4824D1*
G1X5530Y-4832D2*
G1X5530Y-4165D1*
G1X5339Y-4832D2*
G1X5532Y-4832D1*
G1X5252Y-4745D2*
G1X5584Y-4745D1*
G1X5269Y-5168D2*
G1X5532Y-5168D1*
G1X5609Y-5716D2*
G1X5609Y-5284D1*
G1X5609Y-6422D2*
G1X5609Y-6284D1*
G1X5530Y-5835D2*
G1X5530Y-5168D1*
G1X5530Y-6422D2*
G1X5530Y-6165D1*
G1X4822Y-609D2*
G1X4822Y-463D1*
G1X4209Y-463D2*
G1X4937Y-463D1*
G1X4823Y-887D2*
G1X5512Y-887D1*
G1X4428Y-543D2*
G1X4428Y-463D1*
G1X4750Y-966D2*
G1X5497Y-966D1*
G1X4239Y-493D2*
G1X4523Y-493D1*
G1X4318Y-572D2*
G1X4398Y-572D1*
G1X4209Y-463D2*
G1X4326Y-581D1*
G1X3971Y-701D2*
G1X4138Y-868D1*
G1X3971Y-808D2*
G1X4078Y-808D1*
G1X3971Y-1421D2*
G1X3971Y-701D1*
G1X4257Y-917D2*
G1X4390Y-917D1*
G1X3971Y-887D2*
G1X4161Y-887D1*
G1X3971Y-966D2*
G1X4443Y-966D1*
G1X5452Y-4832D2*
G1X5452Y-168D1*
G1X5294Y-4787D2*
G1X5294Y-176D1*
G1X5373Y-4832D2*
G1X5373Y-168D1*
G1X5137Y-4630D2*
G1X5137Y-334D1*
G1X5215Y-4709D2*
G1X5215Y-255D1*
G1X4979Y-4472D2*
G1X4979Y-458D1*
G1X4901Y-4394D2*
G1X4901Y-463D1*
G1X5058Y-4551D2*
G1X5058Y-412D1*
G1X4743Y-4236D2*
G1X4743Y-970D1*
G1X4822Y-4315D2*
G1X4822Y-889D1*
G1X4271Y-3764D2*
G1X4271Y-917D1*
G1X4192Y-3685D2*
G1X4192Y-904D1*
G1X4349Y-3843D2*
G1X4349Y-917D1*
G1X4034Y-3528D2*
G1X4034Y-764D1*
G1X4113Y-3606D2*
G1X4113Y-843D1*
G1X4586Y-4079D2*
G1X4586Y-1015D1*
G1X4664Y-4157D2*
G1X4664Y-1006D1*
G1X4428Y-3921D2*
G1X4428Y-955D1*
G1X4507Y-4000D2*
G1X4507Y-999D1*
G1X3971Y-1045D2*
G1X5498Y-1045D1*
G1X3971Y-1123D2*
G1X5515Y-1123D1*
G1X3068Y-1421D2*
G1X3971Y-1421D1*
G1X3068Y-1911D2*
G1X5506Y-1911D1*
G1X3068Y-1990D2*
G1X5496Y-1990D1*
G1X3362Y-2856D2*
G1X5522Y-2856D1*
G1X3441Y-2934D2*
G1X5501Y-2934D1*
G1X3520Y-3013D2*
G1X5496Y-3013D1*
G1X3068Y-2068D2*
G1X5502Y-2068D1*
G1X3068Y-2147D2*
G1X5523Y-2147D1*
G1X3404Y-2898D2*
G1X3404Y-1421D1*
G1X3326Y-2819D2*
G1X3326Y-1421D1*
G1X3483Y-2976D2*
G1X3483Y-1421D1*
G1X3168Y-2661D2*
G1X3168Y-1421D1*
G1X3247Y-2740D2*
G1X3247Y-1421D1*
G1X3068Y-2561D2*
G1X3068Y-1421D1*
G1X3089Y-2583D2*
G1X3089Y-1421D1*
G1X2868Y-2934D2*
G1X2966Y-2934D1*
G1X2868Y-3013D2*
G1X3044Y-3013D1*
G1X3877Y-3370D2*
G1X3877Y-1421D1*
G1X3798Y-3291D2*
G1X3798Y-1421D1*
G1X3956Y-3449D2*
G1X3956Y-1421D1*
G1X3641Y-3134D2*
G1X3641Y-1421D1*
G1X3719Y-3213D2*
G1X3719Y-1421D1*
G1X3599Y-3092D2*
G1X5506Y-3092D1*
G1X3562Y-3055D2*
G1X3562Y-1421D1*
G1X3326Y-4263D2*
G1X3326Y-3294D1*
G1X3068Y-2561D2*
G1X5339Y-4832D1*
G1X2868Y-2836D2*
G1X5150Y-5119D1*
G1X3011Y-3984D2*
G1X3011Y-2979D1*
G1X2932Y-3905D2*
G1X2932Y-2901D1*
G1X3089Y-4062D2*
G1X3089Y-3058D1*
G1X2868Y-3092D2*
G1X3123Y-3092D1*
G1X2868Y-3841D2*
G1X2868Y-2836D1*
G1X3168Y-4141D2*
G1X3168Y-3137D1*
G1X3247Y-4220D2*
G1X3247Y-3216D1*
G1X2868Y-3171D2*
G1X3202Y-3171D1*
G1X2868Y-3249D2*
G1X3281Y-3249D1*
G1X4465Y-3958D2*
G1X5498Y-3958D1*
G1X4544Y-4037D2*
G1X5498Y-4037D1*
G1X4622Y-4116D2*
G1X5512Y-4116D1*
G1X4386Y-3879D2*
G1X5514Y-3879D1*
G1X4087Y-4588D2*
G1X4619Y-4588D1*
G1X5452Y-6422D2*
G1X5452Y-5168D1*
G1X5373Y-6422D2*
G1X5373Y-5168D1*
G1X3992Y-4667D2*
G1X4698Y-4667D1*
G1X4034Y-4222D2*
G1X4034Y-4003D1*
G1X3956Y-4182D2*
G1X3956Y-3924D1*
G1X4113Y-4318D2*
G1X4113Y-4082D1*
G1X3877Y-4170D2*
G1X3877Y-3846D1*
G1X3798Y-4182D2*
G1X3798Y-3767D1*
G1X4139Y-4430D2*
G1X4462Y-4430D1*
G1X4127Y-4352D2*
G1X4383Y-4352D1*
G1X4127Y-4509D2*
G1X4541Y-4509D1*
G1X3988Y-4194D2*
G1X4226Y-4194D1*
G1X4086Y-4273D2*
G1X4304Y-4273D1*
G1X4901Y-6422D2*
G1X4901Y-4869D1*
G1X4822Y-6422D2*
G1X4822Y-4790D1*
G1X4743Y-6422D2*
G1X4743Y-4712D1*
G1X4664Y-6422D2*
G1X4664Y-4633D1*
G1X4586Y-6422D2*
G1X4586Y-4554D1*
G1X5294Y-6422D2*
G1X5294Y-5168D1*
G1X5215Y-6422D2*
G1X5215Y-5159D1*
G1X5137Y-6422D2*
G1X5137Y-5105D1*
G1X5058Y-6422D2*
G1X5058Y-5027D1*
G1X4979Y-6422D2*
G1X4979Y-4948D1*
G1X4507Y-6422D2*
G1X4507Y-4475D1*
G1X4428Y-6422D2*
G1X4428Y-4397D1*
G1X4349Y-6422D2*
G1X4349Y-4318D1*
G1X4271Y-6422D2*
G1X4271Y-4239D1*
G1X4192Y-6422D2*
G1X4192Y-4161D1*
G1X4113Y-6422D2*
G1X4113Y-4545D1*
G1X4034Y-6422D2*
G1X4034Y-4641D1*
G1X3956Y-6422D2*
G1X3956Y-4681D1*
G1X3877Y-6422D2*
G1X3877Y-4693D1*
G1X2906Y-3879D2*
G1X3911Y-3879D1*
G1X2868Y-3643D2*
G1X3674Y-3643D1*
G1X3719Y-4223D2*
G1X3719Y-3688D1*
G1X2868Y-3722D2*
G1X3753Y-3722D1*
G1X2868Y-3801D2*
G1X3832Y-3801D1*
G1X3143Y-4116D2*
G1X4147Y-4116D1*
G1X3221Y-4194D2*
G1X3766Y-4194D1*
G1X3290Y-4263D2*
G1X3677Y-4263D1*
G1X2985Y-3958D2*
G1X3989Y-3958D1*
G1X3064Y-4037D2*
G1X4068Y-4037D1*
G1X3483Y-4263D2*
G1X3483Y-3452D1*
G1X2868Y-3328D2*
G1X3359Y-3328D1*
G1X3404Y-4263D2*
G1X3404Y-3373D1*
G1X2868Y-3407D2*
G1X3438Y-3407D1*
G1X2868Y-3486D2*
G1X3517Y-3486D1*
G1X3641Y-4263D2*
G1X3641Y-3609D1*
G1X3562Y-4263D2*
G1X3562Y-3531D1*
G1X2868Y-3564D2*
G1X3596Y-3564D1*
G1X2868Y-3841D2*
G1X3290Y-4263D1*
G1X3641Y-6422D2*
G1X3641Y-4600D1*
G1X3221Y-4600D2*
G1X3677Y-4600D1*
G1X3562Y-6422D2*
G1X3562Y-4600D1*
G1X3798Y-6422D2*
G1X3798Y-4681D1*
G1X3719Y-6422D2*
G1X3719Y-4640D1*
G1X3483Y-6422D2*
G1X3483Y-4600D1*
G1X3404Y-6422D2*
G1X3404Y-4600D1*
G1X3326Y-6422D2*
G1X3326Y-4600D1*
G1X3089Y-6422D2*
G1X3089Y-4538D1*
G1X3011Y-6422D2*
G1X3011Y-4459D1*
G1X2932Y-6422D2*
G1X2932Y-4380D1*
G1X2853Y-6422D2*
G1X2853Y-4302D1*
G1X2775Y-6422D2*
G1X2775Y-4223D1*
G1X3247Y-6422D2*
G1X3247Y-4600D1*
G1X3168Y-6422D2*
G1X3168Y-4591D1*
G1X2775Y5238D2*
G1X2775Y5418D1*
G1X2696Y5238D2*
G1X2696Y5418D1*
G1X2617Y5238D2*
G1X2617Y5418D1*
G1X2538Y5238D2*
G1X2538Y5418D1*
G1X2460Y5238D2*
G1X2460Y5418D1*
G1X2381Y5238D2*
G1X2381Y5418D1*
G1X2326Y5238D2*
G1X2877Y5238D1*
G1X2208Y5176D2*
G1X2326Y5176D1*
G1X2145Y5238D2*
G1X2145Y5418D1*
G1X2208Y5097D2*
G1X2326Y5097D1*
G1X2066Y5238D2*
G1X2066Y5418D1*
G1X1987Y5238D2*
G1X1987Y5418D1*
G1X2208Y5018D2*
G1X2326Y5018D1*
G1X2208Y4940D2*
G1X2326Y4940D1*
G1X2208Y4861D2*
G1X2326Y4861D1*
G1X2208Y4782D2*
G1X2326Y4782D1*
G1X2208Y4703D2*
G1X2326Y4703D1*
G1X2696Y3788D2*
G1X2696Y4490D1*
G1X2617Y3788D2*
G1X2617Y4490D1*
G1X2326Y4490D2*
G1X2877Y4490D1*
G1X2100Y4467D2*
G1X4402Y4467D1*
G1X2538Y3788D2*
G1X2538Y4490D1*
G1X2460Y3788D2*
G1X2460Y4490D1*
G1X2381Y3788D2*
G1X2381Y4490D1*
G1X2100Y4388D2*
G1X4402Y4388D1*
G1X2100Y4310D2*
G1X4402Y4310D1*
G1X2326Y4490D2*
G1X2326Y5238D1*
G1X2302Y3788D2*
G1X2302Y5418D1*
G1X2223Y3788D2*
G1X2223Y5418D1*
G1X2208Y4625D2*
G1X2326Y4625D1*
G1X2208Y4490D2*
G1X2208Y5238D1*
G1X2208Y4546D2*
G1X2326Y4546D1*
G1X2145Y3788D2*
G1X2145Y4490D1*
G1X2100Y4490D2*
G1X2208Y4490D1*
G1X2100Y4036D2*
G1X2100Y4490D1*
G1X1908Y5238D2*
G1X1908Y5418D1*
G1X1830Y5238D2*
G1X1830Y5418D1*
G1X1751Y5238D2*
G1X1751Y5418D1*
G1X-417Y5418D2*
G1X6331Y5418D1*
G1X1672Y5238D2*
G1X1672Y5418D1*
G1X413Y5412D2*
G1X5876Y5412D1*
G1X413Y5333D2*
G1X5665Y5333D1*
G1X1657Y5238D2*
G1X2208Y5238D1*
G1X413Y5255D2*
G1X5584Y5255D1*
G1X413Y5176D2*
G1X1657Y5176D1*
G1X1042Y4945D2*
G1X1042Y5418D1*
G1X964Y5023D2*
G1X964Y5418D1*
G1X1121Y4866D2*
G1X1121Y5418D1*
G1X890Y5097D2*
G1X1657Y5097D1*
G1X866Y5121D2*
G1X1133Y4854D1*
G1X1126Y4861D2*
G1X1657Y4861D1*
G1X1175Y4782D2*
G1X1657Y4782D1*
G1X968Y5018D2*
G1X1657Y5018D1*
G1X1047Y4940D2*
G1X1657Y4940D1*
G1X1182Y4703D2*
G1X1657Y4703D1*
G1X1182Y4625D2*
G1X1657Y4625D1*
G1X1657Y4490D2*
G1X1764Y4490D1*
G1X1182Y4546D2*
G1X1657Y4546D1*
G1X1182Y4467D2*
G1X1764Y4467D1*
G1X1764Y4106D2*
G1X1764Y4490D1*
G1X1751Y4093D2*
G1X1751Y4490D1*
G1X1672Y4014D2*
G1X1672Y4490D1*
G1X1182Y4388D2*
G1X1764Y4388D1*
G1X1182Y4310D2*
G1X1764Y4310D1*
G1X1593Y3935D2*
G1X1593Y5418D1*
G1X1515Y3857D2*
G1X1515Y5418D1*
G1X1436Y3778D2*
G1X1436Y5418D1*
G1X1357Y3699D2*
G1X1357Y5418D1*
G1X1278Y3620D2*
G1X1278Y5418D1*
G1X1657Y4490D2*
G1X1657Y5238D1*
G1X1200Y3542D2*
G1X1200Y5418D1*
G1X1182Y3524D2*
G1X1182Y4735D1*
G1X2100Y4231D2*
G1X4402Y4231D1*
G1X2100Y4152D2*
G1X4402Y4152D1*
G1X2100Y4074D2*
G1X4402Y4074D1*
G1X2095Y3995D2*
G1X4363Y3995D1*
G1X2050Y3916D2*
G1X4285Y3916D1*
G1X1971Y3837D2*
G1X4206Y3837D1*
G1X1922Y3788D2*
G1X4157Y3788D1*
G1X1586Y3452D2*
G1X4227Y3452D1*
G1X1577Y3444D2*
G1X6331Y3444D1*
G1X1182Y4231D2*
G1X1764Y4231D1*
G1X1182Y4152D2*
G1X1764Y4152D1*
G1X1182Y4074D2*
G1X1732Y4074D1*
G1X1182Y3524D2*
G1X1764Y4106D1*
G1X2066Y3788D2*
G1X2066Y3935D1*
G1X1182Y3995D2*
G1X1653Y3995D1*
G1X1922Y3788D2*
G1X2051Y3918D1*
G1X1182Y3916D2*
G1X1574Y3916D1*
G1X1182Y3837D2*
G1X1495Y3837D1*
G1X2696Y871D2*
G1X2696Y3452D1*
G1X2617Y871D2*
G1X2617Y3452D1*
G1X2538Y871D2*
G1X2538Y3452D1*
G1X2460Y871D2*
G1X2460Y3452D1*
G1X2381Y871D2*
G1X2381Y3452D1*
G1X1498Y3365D2*
G1X5715Y3365D1*
G1X1420Y3286D2*
G1X5611Y3286D1*
G1X1655Y871D2*
G1X3971Y871D1*
G1X1341Y3207D2*
G1X5552Y3207D1*
G1X1262Y3129D2*
G1X5517Y3129D1*
G1X2302Y871D2*
G1X2302Y3452D1*
G1X2223Y871D2*
G1X2223Y3452D1*
G1X2145Y871D2*
G1X2145Y3452D1*
G1X2066Y871D2*
G1X2066Y3452D1*
G1X1987Y871D2*
G1X1987Y3452D1*
G1X1908Y871D2*
G1X1908Y3452D1*
G1X1830Y871D2*
G1X1830Y3452D1*
G1X1751Y871D2*
G1X1751Y3452D1*
G1X1672Y871D2*
G1X1672Y3452D1*
G1X1183Y3050D2*
G1X5493Y3050D1*
G1X1182Y2971D2*
G1X5414Y2971D1*
G1X1182Y2892D2*
G1X5335Y2892D1*
G1X1182Y2814D2*
G1X5256Y2814D1*
G1X1182Y2735D2*
G1X5178Y2735D1*
G1X1182Y2656D2*
G1X5099Y2656D1*
G1X1182Y2577D2*
G1X5031Y2577D1*
G1X1182Y2499D2*
G1X5012Y2499D1*
G1X1182Y2420D2*
G1X5012Y2420D1*
G1X1182Y2341D2*
G1X5012Y2341D1*
G1X1182Y3759D2*
G1X1417Y3759D1*
G1X1182Y3680D2*
G1X1338Y3680D1*
G1X1182Y3049D2*
G1X1586Y3452D1*
G1X1182Y2263D2*
G1X5012Y2263D1*
G1X1182Y2184D2*
G1X5012Y2184D1*
G1X1182Y2105D2*
G1X5012Y2105D1*
G1X1182Y2026D2*
G1X5012Y2026D1*
G1X1182Y1948D2*
G1X5012Y1948D1*
G1X1182Y1869D2*
G1X5012Y1869D1*
G1X1182Y1790D2*
G1X5012Y1790D1*
G1X1182Y1711D2*
G1X5012Y1711D1*
G1X1182Y1633D2*
G1X5012Y1633D1*
G1X1182Y1554D2*
G1X5012Y1554D1*
G1X1182Y1475D2*
G1X5012Y1475D1*
G1X1182Y1396D2*
G1X5012Y1396D1*
G1X1182Y1318D2*
G1X5012Y1318D1*
G1X1182Y1239D2*
G1X5012Y1239D1*
G1X1182Y1160D2*
G1X5012Y1160D1*
G1X1182Y1081D2*
G1X5012Y1081D1*
G1X1182Y1003D2*
G1X5012Y1003D1*
G1X1182Y924D2*
G1X5012Y924D1*
G1X1182Y845D2*
G1X1655Y845D1*
G1X1182Y766D2*
G1X1655Y766D1*
G1X1182Y688D2*
G1X1655Y688D1*
G1X1182Y609D2*
G1X1655Y609D1*
G1X1182Y530D2*
G1X1655Y530D1*
G1X1182Y451D2*
G1X1655Y451D1*
G1X1182Y373D2*
G1X1655Y373D1*
G1X885Y5102D2*
G1X885Y5418D1*
G1X806Y5159D2*
G1X806Y5418D1*
G1X645Y5170D2*
G1X747Y5170D1*
G1X678Y4834D2*
G1X846Y4665D1*
G1X413Y4703D2*
G1X808Y4703D1*
G1X413Y4625D2*
G1X846Y4625D1*
G1X343Y4231D2*
G1X846Y4231D1*
G1X384Y4152D2*
G1X846Y4152D1*
G1X727Y5170D2*
G1X727Y5418D1*
G1X649Y5170D2*
G1X649Y5418D1*
G1X570Y5168D2*
G1X570Y5418D1*
G1X491Y5168D2*
G1X491Y5418D1*
G1X413Y5168D2*
G1X413Y5413D1*
G1X413Y4832D2*
G1X645Y4832D1*
G1X413Y5168D2*
G1X621Y5168D1*
G1X413Y4587D2*
G1X413Y4832D1*
G1X413Y4782D2*
G1X729Y4782D1*
G1X334Y4244D2*
G1X334Y4587D1*
G1X407Y4074D2*
G1X846Y4074D1*
G1X413Y3995D2*
G1X846Y3995D1*
G1X846Y3378D2*
G1X846Y4665D1*
G1X405Y3916D2*
G1X846Y3916D1*
G1X386Y3853D2*
G1X812Y3428D1*
G1X560Y3680D2*
G1X846Y3680D1*
G1X638Y3601D2*
G1X846Y3601D1*
G1X717Y3522D2*
G1X846Y3522D1*
G1X402Y3837D2*
G1X846Y3837D1*
G1X481Y3759D2*
G1X846Y3759D1*
G1X727Y3512D2*
G1X727Y4784D1*
G1X570Y3670D2*
G1X570Y4832D1*
G1X806Y3434D2*
G1X806Y4705D1*
G1X412Y4030D2*
G1X412Y4587D1*
G1X491Y3748D2*
G1X491Y4832D1*
G1X412Y3827D2*
G1X412Y3970D1*
G1X412Y3030D2*
G1X412Y3352D1*
G1X334Y3244D2*
G1X334Y3430D1*
G1X176Y4374D2*
G1X176Y4587D1*
G1X97Y4402D2*
G1X97Y4587D1*
G1X255Y4326D2*
G1X255Y4587D1*
G1X-413Y5413D2*
G1X413Y5413D1*
G1X-413Y4587D2*
G1X413Y4587D1*
G1X141Y4388D2*
G1X846Y4388D1*
G1X19Y4413D2*
G1X19Y4587D1*
G1X274Y4310D2*
G1X846Y4310D1*
G1X-417Y4546D2*
G1X846Y4546D1*
G1X-417Y4467D2*
G1X846Y4467D1*
G1X-60Y4409D2*
G1X-60Y4587D1*
G1X-139Y4389D2*
G1X-139Y4587D1*
G1X-218Y4352D2*
G1X-218Y4587D1*
G1X-413Y4587D2*
G1X-413Y5413D1*
G1X-296Y4288D2*
G1X-296Y4587D1*
G1X-417Y4388D2*
G1X-141Y4388D1*
G1X-375Y4174D2*
G1X-375Y4587D1*
G1X-417Y4310D2*
G1X-274Y4310D1*
G1X-417Y3759D2*
G1X-336Y3759D1*
G1X176Y3374D2*
G1X176Y3588D1*
G1X97Y3402D2*
G1X97Y3598D1*
G1X149Y3615D2*
G1X525Y3239D1*
G1X-417Y3522D2*
G1X242Y3522D1*
G1X194Y3365D2*
G1X399Y3365D1*
G1X255Y3326D2*
G1X255Y3509D1*
G1X298Y3286D2*
G1X478Y3286D1*
G1X-417Y3444D2*
G1X320Y3444D1*
G1X19Y3413D2*
G1X19Y3587D1*
G1X-218Y3352D2*
G1X-218Y3649D1*
G1X-296Y3288D2*
G1X-296Y3712D1*
G1X-417Y3680D2*
G1X-261Y3680D1*
G1X-375Y3174D2*
G1X-375Y3826D1*
G1X-60Y3409D2*
G1X-60Y3591D1*
G1X-139Y3389D2*
G1X-139Y3611D1*
G1X-417Y3601D2*
G1X-108Y3601D1*
G1X-417Y3365D2*
G1X-194Y3365D1*
G1X410Y3050D2*
G1X525Y3050D1*
G1X412Y2971D2*
G1X525Y2971D1*
G1X399Y2892D2*
G1X525Y2892D1*
G1X358Y3207D2*
G1X525Y3207D1*
G1X393Y3129D2*
G1X525Y3129D1*
G1X369Y2814D2*
G1X525Y2814D1*
G1X317Y2735D2*
G1X525Y2735D1*
G1X319Y2263D2*
G1X525Y2263D1*
G1X230Y2656D2*
G1X525Y2656D1*
G1X233Y2341D2*
G1X525Y2341D1*
G1X334Y2244D2*
G1X334Y2756D1*
G1X255Y2326D2*
G1X255Y2675D1*
G1X412Y2030D2*
G1X412Y2970D1*
G1X97Y2402D2*
G1X97Y2598D1*
G1X176Y2374D2*
G1X176Y2626D1*
G1X400Y2105D2*
G1X525Y2105D1*
G1X413Y2026D2*
G1X525Y2026D1*
G1X410Y1948D2*
G1X525Y1948D1*
G1X370Y2184D2*
G1X525Y2184D1*
G1X392Y1869D2*
G1X525Y1869D1*
G1X356Y1790D2*
G1X525Y1790D1*
G1X296Y1711D2*
G1X525Y1711D1*
G1X265Y1318D2*
G1X525Y1318D1*
G1X189Y1633D2*
G1X525Y1633D1*
G1X118Y1396D2*
G1X525Y1396D1*
G1X405Y1081D2*
G1X525Y1081D1*
G1X413Y1003D2*
G1X525Y1003D1*
G1X406Y924D2*
G1X525Y924D1*
G1X337Y1239D2*
G1X525Y1239D1*
G1X381Y1160D2*
G1X525Y1160D1*
G1X412Y1030D2*
G1X412Y1970D1*
G1X334Y1244D2*
G1X334Y1756D1*
G1X383Y845D2*
G1X525Y845D1*
G1X176Y1374D2*
G1X176Y1626D1*
G1X255Y1326D2*
G1X255Y1675D1*
G1X341Y766D2*
G1X525Y766D1*
G1X271Y688D2*
G1X525Y688D1*
G1X134Y609D2*
G1X525Y609D1*
G1X179Y373D2*
G1X525Y373D1*
G1X19Y2413D2*
G1X19Y2587D1*
G1X-60Y2409D2*
G1X-60Y2591D1*
G1X-139Y2389D2*
G1X-139Y2611D1*
G1X-417Y2577D2*
G1X525Y2577D1*
G1X-417Y2499D2*
G1X525Y2499D1*
G1X-417Y2420D2*
G1X525Y2420D1*
G1X-417Y1633D2*
G1X-189Y1633D1*
G1X-417Y1554D2*
G1X525Y1554D1*
G1X-417Y1475D2*
G1X525Y1475D1*
G1X-417Y3286D2*
G1X-298Y3286D1*
G1X-296Y2288D2*
G1X-296Y2712D1*
G1X-375Y2174D2*
G1X-375Y2826D1*
G1X-417Y2735D2*
G1X-317Y2735D1*
G1X-417Y2656D2*
G1X-230Y2656D1*
G1X-218Y2352D2*
G1X-218Y2649D1*
G1X-417Y2341D2*
G1X-233Y2341D1*
G1X-417Y2263D2*
G1X-319Y2263D1*
G1X-417Y1711D2*
G1X-296Y1711D1*
G1X97Y1402D2*
G1X97Y1598D1*
G1X19Y1413D2*
G1X19Y1587D1*
G1X-60Y1409D2*
G1X-60Y1591D1*
G1X-417Y1396D2*
G1X-118Y1396D1*
G1X97Y402D2*
G1X97Y598D1*
G1X19Y413D2*
G1X19Y587D1*
G1X-60Y409D2*
G1X-60Y591D1*
G1X-417Y530D2*
G1X525Y530D1*
G1X-417Y451D2*
G1X525Y451D1*
G1X-139Y1389D2*
G1X-139Y1611D1*
G1X-218Y1351D2*
G1X-218Y1649D1*
G1X-296Y1288D2*
G1X-296Y1712D1*
G1X-417Y1318D2*
G1X-265Y1318D1*
G1X-375Y1174D2*
G1X-375Y1826D1*
G1X-417Y1239D2*
G1X-337Y1239D1*
G1X-139Y389D2*
G1X-139Y611D1*
G1X-417Y688D2*
G1X-271Y688D1*
G1X-417Y609D2*
G1X-134Y609D1*
G1X1975Y-1421D2*
G1X2531Y-1421D1*
G1X2066Y-1673D2*
G1X2066Y-1421D1*
G1X1983Y-1438D2*
G1X2531Y-1438D1*
G1X1996Y-1517D2*
G1X2531Y-1517D1*
G1X2103Y-1675D2*
G1X2531Y-1675D1*
G1X2103Y-1753D2*
G1X2531Y-1753D1*
G1X1996Y-1596D2*
G1X2531Y-1596D1*
G1X1996Y-1673D2*
G1X2103Y-1673D1*
G1X1655Y-127D2*
G1X1655Y871D1*
G1X1593Y-127D2*
G1X1593Y3452D1*
G1X1996Y-1673D2*
G1X1996Y-1503D1*
G1X1515Y-127D2*
G1X1515Y3381D1*
G1X1436Y-127D2*
G1X1436Y3302D1*
G1X1660Y-1673D2*
G1X1660Y-1572D1*
G1X1593Y-1673D2*
G1X1593Y-1506D1*
G1X1552Y-1673D2*
G1X1660Y-1673D1*
G1X1434Y-1675D2*
G1X1552Y-1675D1*
G1X1434Y-1753D2*
G1X1552Y-1753D1*
G1X2531Y-3910D2*
G1X2531Y-1421D1*
G1X2460Y-6422D2*
G1X2460Y-1421D1*
G1X2381Y-6422D2*
G1X2381Y-1421D1*
G1X2103Y-1832D2*
G1X2531Y-1832D1*
G1X2302Y-6422D2*
G1X2302Y-1421D1*
G1X2103Y-1911D2*
G1X2531Y-1911D1*
G1X2103Y-1990D2*
G1X2531Y-1990D1*
G1X2103Y-2068D2*
G1X2531Y-2068D1*
G1X2103Y-2147D2*
G1X2531Y-2147D1*
G1X2103Y-2226D2*
G1X2531Y-2226D1*
G1X2223Y-6422D2*
G1X2223Y-1421D1*
G1X2103Y-2421D2*
G1X2103Y-1673D1*
G1X2145Y-6422D2*
G1X2145Y-1421D1*
G1X1515Y-6422D2*
G1X1515Y-1427D1*
G1X1436Y-6422D2*
G1X1436Y-1348D1*
G1X1552Y-2421D2*
G1X1552Y-1673D1*
G1X1434Y-2421D2*
G1X1434Y-1673D1*
G1X1434Y-1832D2*
G1X1552Y-1832D1*
G1X1434Y-1911D2*
G1X1552Y-1911D1*
G1X1182Y294D2*
G1X1655Y294D1*
G1X1182Y215D2*
G1X1655Y215D1*
G1X1357Y-127D2*
G1X1357Y3224D1*
G1X1182Y137D2*
G1X1655Y137D1*
G1X1182Y58D2*
G1X1655Y58D1*
G1X1182Y-21D2*
G1X1655Y-21D1*
G1X1182Y-100D2*
G1X1655Y-100D1*
G1X1182Y-127D2*
G1X1655Y-127D1*
G1X303Y-1281D2*
G1X1368Y-1281D1*
G1X204Y-1360D2*
G1X1447Y-1360D1*
G1X1278Y-127D2*
G1X1278Y3145D1*
G1X1200Y-127D2*
G1X1200Y3066D1*
G1X1182Y-127D2*
G1X1182Y3049D1*
G1X398Y-887D2*
G1X975Y-887D1*
G1X574Y-486D2*
G1X1359Y-1271D1*
G1X412Y-966D2*
G1X1053Y-966D1*
G1X411Y-1045D2*
G1X1132Y-1045D1*
G1X395Y-1123D2*
G1X1211Y-1123D1*
G1X361Y-1202D2*
G1X1290Y-1202D1*
G1X1359Y-1271D2*
G1X1660Y-1572D1*
G1X87Y-1596D2*
G1X1660Y-1596D1*
G1X883Y-1673D2*
G1X1434Y-1673D1*
G1X-417Y-1438D2*
G1X1526Y-1438D1*
G1X-417Y-1517D2*
G1X1605Y-1517D1*
G1X1434Y-1990D2*
G1X1552Y-1990D1*
G1X1434Y-2068D2*
G1X1552Y-2068D1*
G1X1434Y-2147D2*
G1X1552Y-2147D1*
G1X1434Y-2226D2*
G1X1552Y-2226D1*
G1X1278Y-1673D2*
G1X1278Y-1191D1*
G1X1200Y-1673D2*
G1X1200Y-1112D1*
G1X1121Y-1673D2*
G1X1121Y-1033D1*
G1X1042Y-1673D2*
G1X1042Y-955D1*
G1X964Y-1673D2*
G1X964Y-876D1*
G1X1357Y-1673D2*
G1X1357Y-1270D1*
G1X2581Y-4029D2*
G1X3102Y-4550D1*
G1X2103Y-2305D2*
G1X2531Y-2305D1*
G1X2103Y-2383D2*
G1X2531Y-2383D1*
G1X397Y-4116D2*
G1X2667Y-4116D1*
G1X412Y-4037D2*
G1X2588Y-4037D1*
G1X402Y-4903D2*
G1X4934Y-4903D1*
G1X413Y-4982D2*
G1X5013Y-4982D1*
G1X409Y-5060D2*
G1X5092Y-5060D1*
G1X1434Y-2305D2*
G1X1552Y-2305D1*
G1X1434Y-2383D2*
G1X1552Y-2383D1*
G1X1552Y-2421D2*
G1X2103Y-2421D1*
G1X883Y-2421D2*
G1X1434Y-2421D1*
G1X387Y-2856D2*
G1X2531Y-2856D1*
G1X408Y-2934D2*
G1X2531Y-2934D1*
G1X413Y-3013D2*
G1X2531Y-3013D1*
G1X403Y-3092D2*
G1X2531Y-3092D1*
G1X395Y-3879D2*
G1X2531Y-3879D1*
G1X411Y-3958D2*
G1X2538Y-3958D1*
G1X2538Y-6422D2*
G1X2538Y-3958D1*
G1X2066Y-6422D2*
G1X2066Y-2421D1*
G1X1987Y-6422D2*
G1X1987Y-2421D1*
G1X1908Y-6422D2*
G1X1908Y-2421D1*
G1X1830Y-6422D2*
G1X1830Y-2421D1*
G1X407Y-5927D2*
G1X5503Y-5927D1*
G1X2696Y-6422D2*
G1X2696Y-4144D1*
G1X2617Y-6422D2*
G1X2617Y-4066D1*
G1X413Y-6005D2*
G1X5496Y-6005D1*
G1X405Y-6084D2*
G1X5505Y-6084D1*
G1X1751Y-6422D2*
G1X1751Y-2421D1*
G1X1672Y-6422D2*
G1X1672Y-2421D1*
G1X1593Y-6422D2*
G1X1593Y-2421D1*
G1X1357Y-6422D2*
G1X1357Y-2421D1*
G1X1278Y-6422D2*
G1X1278Y-2421D1*
G1X1200Y-6422D2*
G1X1200Y-2421D1*
G1X1121Y-6422D2*
G1X1121Y-2421D1*
G1X1042Y-6422D2*
G1X1042Y-2421D1*
G1X964Y-6422D2*
G1X964Y-2421D1*
G1X161Y-2619D2*
G1X2531Y-2619D1*
G1X283Y-2698D2*
G1X2531Y-2698D1*
G1X348Y-2777D2*
G1X2531Y-2777D1*
G1X-417Y-2462D2*
G1X2531Y-2462D1*
G1X-417Y-2541D2*
G1X2531Y-2541D1*
G1X310Y-4273D2*
G1X2825Y-4273D1*
G1X365Y-4194D2*
G1X2746Y-4194D1*
G1X217Y-4352D2*
G1X2903Y-4352D1*
G1X-417Y-4430D2*
G1X2982Y-4430D1*
G1X-417Y-4509D2*
G1X3061Y-4509D1*
G1X377Y-3171D2*
G1X2531Y-3171D1*
G1X330Y-3249D2*
G1X2531Y-3249D1*
G1X252Y-3328D2*
G1X2531Y-3328D1*
G1X73Y-3407D2*
G1X2531Y-3407D1*
G1X-417Y-3486D2*
G1X2531Y-3486D1*
G1X306Y-3722D2*
G1X2531Y-3722D1*
G1X362Y-3801D2*
G1X2531Y-3801D1*
G1X-417Y-3564D2*
G1X2531Y-3564D1*
G1X209Y-3643D2*
G1X2531Y-3643D1*
G1X173Y-5375D2*
G1X5736Y-5375D1*
G1X288Y-5297D2*
G1X5621Y-5297D1*
G1X141Y-5612D2*
G1X5768Y-5612D1*
G1X-417Y-5454D2*
G1X6331Y-5454D1*
G1X-417Y-5533D2*
G1X6331Y-5533D1*
G1X274Y-5690D2*
G1X5636Y-5690D1*
G1X343Y-5769D2*
G1X5567Y-5769D1*
G1X262Y-6320D2*
G1X5648Y-6320D1*
G1X108Y-6399D2*
G1X5801Y-6399D1*
G1X-417Y-6422D2*
G1X6331Y-6422D1*
G1X374Y-4824D2*
G1X4856Y-4824D1*
G1X326Y-4745D2*
G1X4777Y-4745D1*
G1X389Y-5139D2*
G1X5175Y-5139D1*
G1X33Y-4588D2*
G1X3159Y-4588D1*
G1X245Y-4667D2*
G1X3762Y-4667D1*
G1X384Y-5848D2*
G1X5525Y-5848D1*
G1X380Y-6163D2*
G1X5529Y-6163D1*
G1X351Y-5218D2*
G1X5558Y-5218D1*
G1X336Y-6242D2*
G1X5574Y-6242D1*
G1X390Y137D2*
G1X525Y137D1*
G1X409Y58D2*
G1X525Y58D1*
G1X413Y-21D2*
G1X525Y-21D1*
G1X291Y294D2*
G1X525Y294D1*
G1X353Y215D2*
G1X525Y215D1*
G1X366Y-808D2*
G1X896Y-808D1*
G1X221Y-651D2*
G1X738Y-651D1*
G1X313Y-730D2*
G1X817Y-730D1*
G1X401Y-100D2*
G1X525Y-100D1*
G1X412Y30D2*
G1X412Y970D1*
G1X525Y-367D2*
G1X525Y3239D1*
G1X255Y326D2*
G1X255Y675D1*
G1X334Y244D2*
G1X334Y756D1*
G1X373Y-179D2*
G1X525Y-179D1*
G1X324Y-257D2*
G1X525Y-257D1*
G1X334Y-756D2*
G1X334Y-244D1*
G1X241Y-336D2*
G1X525Y-336D1*
G1X255Y-675D2*
G1X255Y-326D1*
G1X885Y-1673D2*
G1X885Y-797D1*
G1X883Y-2421D2*
G1X883Y-1673D1*
G1X806Y-6422D2*
G1X806Y-719D1*
G1X255Y-1675D2*
G1X883Y-1675D1*
G1X332Y-1753D2*
G1X883Y-1753D1*
G1X404Y-1911D2*
G1X883Y-1911D1*
G1X413Y-1990D2*
G1X883Y-1990D1*
G1X408Y-2068D2*
G1X883Y-2068D1*
G1X378Y-1832D2*
G1X883Y-1832D1*
G1X386Y-2147D2*
G1X883Y-2147D1*
G1X727Y-6422D2*
G1X727Y-640D1*
G1X649Y-6422D2*
G1X649Y-561D1*
G1X570Y-6422D2*
G1X570Y-482D1*
G1X412Y-970D2*
G1X412Y-30D1*
G1X491Y-6422D2*
G1X491Y3273D1*
G1X412Y-1970D2*
G1X412Y-1030D1*
G1X412Y-2970D2*
G1X412Y-2030D1*
G1X255Y-1675D2*
G1X255Y-1326D1*
G1X334Y-1756D2*
G1X334Y-1244D1*
G1X176Y374D2*
G1X176Y626D1*
G1X97Y-598D2*
G1X97Y-402D1*
G1X176Y-626D2*
G1X176Y-374D1*
G1X-417Y-415D2*
G1X531Y-415D1*
G1X19Y-587D2*
G1X19Y-413D1*
G1X-60Y-591D2*
G1X-60Y-409D1*
G1X-139Y-611D2*
G1X-139Y-389D1*
G1X-417Y-493D2*
G1X581Y-493D1*
G1X-417Y-572D2*
G1X660Y-572D1*
G1X-218Y351D2*
G1X-218Y649D1*
G1X-296Y288D2*
G1X-296Y712D1*
G1X-375Y174D2*
G1X-375Y826D1*
G1X-417Y373D2*
G1X-179Y373D1*
G1X-417Y294D2*
G1X-291Y294D1*
G1X-417Y-257D2*
G1X-324Y-257D1*
G1X-218Y-649D2*
G1X-218Y-351D1*
G1X-417Y-336D2*
G1X-241Y-336D1*
G1X-417Y-651D2*
G1X-221Y-651D1*
G1X176Y-1626D2*
G1X176Y-1374D1*
G1X97Y-1598D2*
G1X97Y-1402D1*
G1X-218Y-1649D2*
G1X-218Y-1351D1*
G1X-417Y-1360D2*
G1X-204Y-1360D1*
G1X19Y-1587D2*
G1X19Y-1413D1*
G1X-60Y-1591D2*
G1X-60Y-1409D1*
G1X-139Y-1611D2*
G1X-139Y-1389D1*
G1X-417Y-1596D2*
G1X-87Y-1596D1*
G1X-296Y-712D2*
G1X-296Y-288D1*
G1X-375Y-826D2*
G1X-375Y-174D1*
G1X-375Y-1826D2*
G1X-375Y-1174D1*
G1X-417Y-730D2*
G1X-313Y-730D1*
G1X-417Y-6422D2*
G1X-417Y5418D1*
G1X-417Y-1281D2*
G1X-303Y-1281D1*
G1X-296Y-1712D2*
G1X-296Y-1288D1*
G1X-417Y-1675D2*
G1X-255Y-1675D1*
G1X-417Y-1753D2*
G1X-332Y-1753D1*
G1X346Y-2226D2*
G1X883Y-2226D1*
G1X280Y-2305D2*
G1X883Y-2305D1*
G1X334Y-2756D2*
G1X334Y-2244D1*
G1X155Y-2383D2*
G1X883Y-2383D1*
G1X255Y-2675D2*
G1X255Y-2326D1*
G1X334Y-3756D2*
G1X334Y-3244D1*
G1X255Y-3675D2*
G1X255Y-3326D1*
G1X412Y-3970D2*
G1X412Y-3030D1*
G1X176Y-2626D2*
G1X176Y-2374D1*
G1X176Y-3626D2*
G1X176Y-3374D1*
G1X97Y-2598D2*
G1X97Y-2402D1*
G1X19Y-2587D2*
G1X19Y-2413D1*
G1X-60Y-2591D2*
G1X-60Y-2409D1*
G1X-139Y-2611D2*
G1X-139Y-2389D1*
G1X-218Y-2649D2*
G1X-218Y-2352D1*
G1X97Y-3598D2*
G1X97Y-3402D1*
G1X19Y-3587D2*
G1X19Y-3413D1*
G1X97Y-4598D2*
G1X97Y-4402D1*
G1X-60Y-3591D2*
G1X-60Y-3409D1*
G1X-139Y-3611D2*
G1X-139Y-3389D1*
G1X412Y-4970D2*
G1X412Y-4030D1*
G1X412Y-5970D2*
G1X412Y-5030D1*
G1X885Y-6422D2*
G1X885Y-2421D1*
G1X255Y-4675D2*
G1X255Y-4326D1*
G1X334Y-4756D2*
G1X334Y-4244D1*
G1X412Y-6422D2*
G1X412Y-6030D1*
G1X334Y-5756D2*
G1X334Y-5244D1*
G1X334Y-6422D2*
G1X334Y-6244D1*
G1X255Y-5675D2*
G1X255Y-5326D1*
G1X255Y-6422D2*
G1X255Y-6326D1*
G1X176Y-4626D2*
G1X176Y-4374D1*
G1X19Y-4587D2*
G1X19Y-4413D1*
G1X176Y-5626D2*
G1X176Y-5374D1*
G1X-60Y-4591D2*
G1X-60Y-4409D1*
G1X-139Y-4611D2*
G1X-139Y-4389D1*
G1X97Y-5598D2*
G1X97Y-5402D1*
G1X19Y-5587D2*
G1X19Y-5413D1*
G1X-60Y-5591D2*
G1X-60Y-5409D1*
G1X-139Y-5611D2*
G1X-139Y-5389D1*
G1X-417Y-2383D2*
G1X-155Y-2383D1*
G1X-218Y-3649D2*
G1X-218Y-3352D1*
G1X-417Y-2619D2*
G1X-161Y-2619D1*
G1X-417Y-3328D2*
G1X-252Y-3328D1*
G1X-417Y-3407D2*
G1X-73Y-3407D1*
G1X-417Y-3643D2*
G1X-209Y-3643D1*
G1X-417Y-4352D2*
G1X-217Y-4352D1*
G1X-417Y-4588D2*
G1X-33Y-4588D1*
G1X-296Y-2712D2*
G1X-296Y-2288D1*
G1X-375Y-2826D2*
G1X-375Y-2174D1*
G1X-375Y-3826D2*
G1X-375Y-3174D1*
G1X-417Y-2305D2*
G1X-280Y-2305D1*
G1X-417Y-2698D2*
G1X-283Y-2698D1*
G1X-417Y-3249D2*
G1X-330Y-3249D1*
G1X-296Y-3712D2*
G1X-296Y-3288D1*
G1X-417Y-3722D2*
G1X-306Y-3722D1*
G1X-417Y-4273D2*
G1X-310Y-4273D1*
G1X-218Y-4649D2*
G1X-218Y-4352D1*
G1X-218Y-5649D2*
G1X-218Y-5351D1*
G1X-417Y-4667D2*
G1X-245Y-4667D1*
G1X-417Y-5375D2*
G1X-173Y-5375D1*
G1X-417Y-5612D2*
G1X-141Y-5612D1*
G1X-417Y-5690D2*
G1X-274Y-5690D1*
G1X-417Y-6320D2*
G1X-262Y-6320D1*
G1X-417Y-6399D2*
G1X-108Y-6399D1*
G1X-296Y-4712D2*
G1X-296Y-4288D1*
G1X-375Y-4826D2*
G1X-375Y-4174D1*
G1X-375Y-5826D2*
G1X-375Y-5174D1*
G1X-417Y-4745D2*
G1X-326Y-4745D1*
G1X-417Y-5297D2*
G1X-288Y-5297D1*
G1X-296Y-5712D2*
G1X-296Y-5288D1*
G1X-296Y-6422D2*
G1X-296Y-6288D1*
G1X-417Y-6242D2*
G1X-336Y-6242D1*
G1X-375Y-6422D2*
G1X-375Y-6174D1*
G54D11*
G1X2899Y-495D3*
G1X2699Y-495D3*
G1X2699Y105D3*
G1X2899Y105D3*
G54D12*
G1X2499Y-495D3*
G1X2499Y-295D3*
G1X2499Y-95D3*
G1X2499Y105D3*
G1X3099Y105D3*
G1X3099Y-295D3*
G1X3099Y-495D3*
G1X3099Y-95D3*
G54D13*
G1X1828Y-2047D3*
G1X1159Y-2047D3*
G1X2601Y4864D3*
G1X3901Y4865D3*
G1X1932Y4864D3*
G1X4570Y4865D3*
G1X3901Y4865D2*
G54D14*
G1X3901Y5200D1*
G1X3901Y4865D2*
G1X4137Y4865D1*
G1X3665Y4865D2*
G1X3901Y4865D1*
G1X3901Y4530D2*
G1X3901Y4865D1*
G1X5909Y-6000D2*
G1X6283Y-6000D1*
G1X5909Y-6000D2*
G1X5909Y-5626D1*
G1X5909Y-6374D2*
G1X5909Y-6000D1*
G1X5535Y-6000D2*
G1X5909Y-6000D1*
G1X2601Y4864D2*
G1X2601Y5199D1*
G1X2601Y4864D2*
G1X2838Y4864D1*
G1X2365Y4864D2*
G1X2601Y4864D1*
G1X2601Y4529D2*
G1X2601Y4864D1*
G1X1159Y-2047D2*
G1X1395Y-2047D1*
G1X1159Y-2047D2*
G1X1159Y-1713D1*
G1X922Y-2047D2*
G1X1159Y-2047D1*
G1X1159Y-2382D2*
G1X1159Y-2047D1*
G1X2699Y-3910D2*
G1X2699Y-495D1*
G1X3221Y-4431D2*
G1X3877Y-4431D1*
G1X2699Y-3910D2*
G1X3221Y-4431D1*
G1X2157Y-6000D2*
G1X5909Y-6000D1*
G1X1159Y-5002D2*
G1X1159Y-2046D1*
G1X1159Y-5002D2*
G1X2157Y-6000D1*
G1X1014Y3118D2*
G1X1932Y4036D1*
G1X1516Y3620D2*
G1X4227Y3620D1*
G1X1014Y-197D2*
G1X1014Y4735D1*
G1X4570Y3964D2*
G1X4570Y4865D1*
G1X1932Y4036D2*
G1X1932Y4864D1*
G1X1112Y-295D2*
G1X2499Y-295D1*
G1X0Y5000D2*
G1X645Y5000D1*
G1X747Y5002D2*
G1X1014Y4735D1*
G1X645Y5002D2*
G1X747Y5002D1*
G1X3900Y4864D2*
G1X3901Y4865D1*
G1X2601Y4864D2*
G1X3900Y4864D1*
G1X693Y-367D2*
G1X1477Y-1152D1*
G1X1716Y-495D2*
G1X2499Y-495D1*
G1X1477Y-1152D2*
G1X1828Y-1503D1*
G1X1828Y-2047D2*
G1X1828Y-1503D1*
G1X2Y4000D2*
G1X693Y3309D1*
G1X1398Y-1072D2*
G1X1398Y-813D1*
G1X693Y-367D2*
G1X693Y3309D1*
G1X1014Y-197D2*
G1X1112Y-295D1*
G1X4227Y3620D2*
G1X4570Y3964D1*
G1X3099Y105D2*
G1X4105Y105D1*
G1X4580Y580D1*
G1X5681Y3000D2*
G1X5909Y3000D1*
G1X3099Y-95D2*
G1X4726Y-95D1*
G1X5180Y2500D2*
G1X5681Y3000D1*
G1X5180Y359D2*
G1X5180Y2500D1*
G1X4726Y-95D2*
G1X5180Y359D1*
G1X4003Y-495D2*
G1X4257Y-749D1*
G1X4596Y-749D1*
G1X3099Y-495D2*
G1X4003Y-495D1*
G1X5233Y0D2*
G1X5909Y0D1*
G1X3099Y-295D2*
G1X4937Y-295D1*
G1X5233Y0D1*
G1X2899Y-2630D2*
G1X2899Y-495D1*
G1X5269Y-5000D2*
G1X5909Y-5000D1*
G1X2899Y-2630D2*
G1X5269Y-5000D1*
G1X1539Y1194D2*
G1X2924Y1194D1*
G1X1349Y32D2*
G1X1349Y1004D1*
G1X2899Y105D2*
G1X2899Y1169D1*
G1X2699Y105D2*
G1X2699Y1194D1*
G1X1445Y105D2*
G1X2499Y105D1*
G1X1477Y-95D2*
G1X2499Y-95D1*
G1X1349Y201D2*
G1X1445Y105D1*
G1X1349Y32D2*
G1X1477Y-95D1*
G1X1349Y1004D2*
G1X1539Y1194D1*
G1X2899Y1169D2*
G1X2924Y1194D1*
G1X1398Y-813D2*
G1X1716Y-495D1*
G54D15*
G1X5909Y3000D3*
G1X5909Y0D3*
G1X5909Y-5000D3*
G1X5909Y2000D3*
G1X5909Y1000D3*
G1X5909Y-4000D3*
G1X5909Y-6000D3*
G1X5909Y4000D3*
G1X5909Y5000D3*
G1X5909Y-2000D3*
G1X5909Y-3000D3*
G1X5909Y-1000D3*
G54D16*
G1X0Y-6000D3*
G1X0Y-5000D3*
G1X0Y-4000D3*
G1X0Y-3000D3*
G1X0Y-1000D3*
G1X0Y0D3*
G1X0Y1000D3*
G1X0Y2000D3*
G1X0Y3000D3*
G1X0Y4000D3*
G1X0Y-2000D3*
G54D17*
G1X0Y5000D3*
G54D18*
G1X3877Y-4431D3*
G54D19*
G1X4580Y580D3*
G54D20*
G1X4596Y-749D3*
M2*
