*
%LPD*%
%LNMS 2x2D12 Adapter to DIL24_Rev1.0.GTS*%
%FSLAX24Y24*%
%MOIN*%
%AD*%
%ADD28R,0.01575X0.02362*%
%ADD29R,0.02362X0.01575*%
%ADD30R,0.0395X0.05918*%
%ADD31C,0.06706*%
%ADD32C,0.06706*%
%ADD33R,0.06706X0.06706*%
%ADD34C,0.03674*%
%ADD35C,0.03458*%
%ADD36C,0.03753*%
G54D28*
%SRX1Y1I0.0J0.0*%
G1X2899Y-495D3*
G1X2699Y-495D3*
G1X2699Y105D3*
G1X2899Y105D3*
G54D29*
G1X2499Y-495D3*
G1X2499Y-295D3*
G1X2499Y-95D3*
G1X2499Y105D3*
G1X3099Y105D3*
G1X3099Y-295D3*
G1X3099Y-495D3*
G1X3099Y-95D3*
G54D30*
G1X1828Y-2047D3*
G1X1159Y-2047D3*
G1X2601Y4864D3*
G1X3901Y4865D3*
G1X1932Y4864D3*
G1X4570Y4865D3*
G54D31*
G1X5909Y3000D3*
G1X5909Y0D3*
G1X5909Y-5000D3*
G1X5909Y2000D3*
G1X5909Y1000D3*
G1X5909Y-4000D3*
G1X5909Y-6000D3*
G1X5909Y4000D3*
G1X5909Y5000D3*
G1X5909Y-2000D3*
G1X5909Y-3000D3*
G1X5909Y-1000D3*
G54D32*
G1X0Y-6000D3*
G1X0Y-5000D3*
G1X0Y-4000D3*
G1X0Y-3000D3*
G1X0Y-1000D3*
G1X0Y0D3*
G1X0Y1000D3*
G1X0Y2000D3*
G1X0Y3000D3*
G1X0Y4000D3*
G1X0Y-2000D3*
G54D33*
G1X0Y5000D3*
G54D34*
G1X3877Y-4431D3*
G54D35*
G1X4580Y580D3*
G54D36*
G1X4596Y-749D3*
M2*
